<svg xmlns="http://www.w3.org/2000/svg" xmlns:xlink="http://www.w3.org/1999/xlink" viewBox="0 0 800 1000" width="800" height="1000" role="img" aria-label="Bloom &amp; Bubbles — Nested Blooms"><title>Bloom &amp; Bubbles — Nested Blooms</title><defs><radialGradient id="g1" cx="50%" cy="38%" r="72%"><stop offset="0" stop-color="#faf3e8"/><stop offset="1" stop-color="#eee0c9"/></radialGradient><g id="s2"><path d="M0 0 C5 -30 -5 -60 0 -90" fill="none" stroke="#627442" stroke-width="3.5"/><ellipse cx="-12.8" cy="-15" rx="15" ry="12.3" fill="#7a9152" opacity="0.95"/><ellipse cx="12.8" cy="-15" rx="15" ry="12.3" fill="#7a9152" opacity="0.95"/><ellipse cx="-11.3" cy="-31" rx="13.2" ry="10.9" fill="#82985c" opacity="0.95"/><ellipse cx="11.3" cy="-31" rx="13.2" ry="10.9" fill="#82985c" opacity="0.95"/><ellipse cx="-9.8" cy="-47" rx="11.5" ry="9.4" fill="#8a9e67" opacity="0.95"/><ellipse cx="9.8" cy="-47" rx="11.5" ry="9.4" fill="#8a9e67" opacity="0.95"/><ellipse cx="-8.3" cy="-63" rx="9.7" ry="8" fill="#92a571" opacity="0.95"/><ellipse cx="8.3" cy="-63" rx="9.7" ry="8" fill="#92a571" opacity="0.95"/><ellipse cx="-6.8" cy="-79" rx="8" ry="6.6" fill="#9aab7c" opacity="0.95"/><ellipse cx="6.8" cy="-79" rx="8" ry="6.6" fill="#9aab7c" opacity="0.95"/></g><linearGradient id="g4" x1="0" y1="0" x2="0" y2="1"><stop offset="0" stop-color="#879968"/><stop offset="1" stop-color="#57683a"/></linearGradient><g id="s3"><path d="M0 0 C-21 -30 -15 -67.5 0 -87.5 C15 -67.5 21 -30 0 0 Z" fill="url(#g4)"/><path d="M0 -4 L0 -80" fill="none" stroke="#4e5d34" stroke-width="2.2" opacity="0.55"/></g><filter id="f5" x="-30%" y="-30%" width="160%" height="160%"><feGaussianBlur stdDeviation="24.4"/></filter><radialGradient id="g7" cx="45%" cy="35%" r="72%"><stop offset="0" stop-color="#f3d4b9"/><stop offset="1" stop-color="#d8b597"/></radialGradient><path id="p8" d="M0 0 C-23 -11 -25.8 -33 -11.5 -46.5 C-4.1 -53 4.1 -53 11.5 -46.5 C25.8 -33 23 -11 0 0 Z"/><radialGradient id="g9" cx="45%" cy="35%" r="72%"><stop offset="0" stop-color="#ebc3a4"/><stop offset="1" stop-color="#cfa27f"/></radialGradient><path id="p10" d="M0 0 C-18.5 -8.4 -20.7 -25.1 -9.2 -35.3 C-3.3 -40.3 3.3 -40.3 9.2 -35.3 C20.7 -25.1 18.5 -8.4 0 0 Z"/><path id="p11" d="M0 0 C-14.5 -6.1 -16.2 -18.2 -7.2 -25.6 C-2.6 -29.2 2.6 -29.2 7.2 -25.6 C16.2 -18.2 14.5 -6.1 0 0 Z"/><path id="p12" d="M0 0 C-11 -4.1 -12.3 -12.2 -5.5 -17.2 C-2 -19.6 2 -19.6 5.5 -17.2 C12.3 -12.2 11 -4.1 0 0 Z"/><g id="s6"><circle r="25" fill="#9e7c61"/><use href="#p8" fill="url(#g7)" stroke="#c1a894" stroke-width="0.6" stroke-opacity="0.5" transform="rotate(16.7)" opacity="0.98"/><use href="#p8" fill="url(#g7)" stroke="#c1a894" stroke-width="0.6" stroke-opacity="0.5" transform="rotate(61.7)" opacity="0.98"/><use href="#p8" fill="url(#g7)" stroke="#c1a894" stroke-width="0.6" stroke-opacity="0.5" transform="rotate(106.7)" opacity="0.98"/><use href="#p8" fill="url(#g7)" stroke="#c1a894" stroke-width="0.6" stroke-opacity="0.5" transform="rotate(151.7)" opacity="0.98"/><use href="#p8" fill="url(#g7)" stroke="#c1a894" stroke-width="0.6" stroke-opacity="0.5" transform="rotate(196.7)" opacity="0.98"/><use href="#p8" fill="url(#g7)" stroke="#c1a894" stroke-width="0.6" stroke-opacity="0.5" transform="rotate(241.7)" opacity="0.98"/><use href="#p8" fill="url(#g7)" stroke="#c1a894" stroke-width="0.6" stroke-opacity="0.5" transform="rotate(286.7)" opacity="0.98"/><use href="#p8" fill="url(#g7)" stroke="#c1a894" stroke-width="0.6" stroke-opacity="0.5" transform="rotate(331.7)" opacity="0.98"/><use href="#p10" fill="url(#g9)" stroke="#c1a894" stroke-width="0.6" stroke-opacity="0.5" transform="rotate(40.7)" opacity="0.98"/><use href="#p10" fill="url(#g9)" stroke="#c1a894" stroke-width="0.6" stroke-opacity="0.5" transform="rotate(92.1)" opacity="0.98"/><use href="#p10" fill="url(#g9)" stroke="#c1a894" stroke-width="0.6" stroke-opacity="0.5" transform="rotate(143.6)" opacity="0.98"/><use href="#p10" fill="url(#g9)" stroke="#c1a894" stroke-width="0.6" stroke-opacity="0.5" transform="rotate(195)" opacity="0.98"/><use href="#p10" fill="url(#g9)" stroke="#c1a894" stroke-width="0.6" stroke-opacity="0.5" transform="rotate(246.4)" opacity="0.98"/><use href="#p10" fill="url(#g9)" stroke="#c1a894" stroke-width="0.6" stroke-opacity="0.5" transform="rotate(297.8)" opacity="0.98"/><use href="#p10" fill="url(#g9)" stroke="#c1a894" stroke-width="0.6" stroke-opacity="0.5" transform="rotate(349.3)" opacity="0.98"/><use href="#p11" fill="url(#g7)" stroke="#c1a894" stroke-width="0.6" stroke-opacity="0.5" transform="rotate(64.7)" opacity="0.98"/><use href="#p11" fill="url(#g7)" stroke="#c1a894" stroke-width="0.6" stroke-opacity="0.5" transform="rotate(124.7)" opacity="0.98"/><use href="#p11" fill="url(#g7)" stroke="#c1a894" stroke-width="0.6" stroke-opacity="0.5" transform="rotate(184.7)" opacity="0.98"/><use href="#p11" fill="url(#g7)" stroke="#c1a894" stroke-width="0.6" stroke-opacity="0.5" transform="rotate(244.7)" opacity="0.98"/><use href="#p11" fill="url(#g7)" stroke="#c1a894" stroke-width="0.6" stroke-opacity="0.5" transform="rotate(304.7)" opacity="0.98"/><use href="#p11" fill="url(#g7)" stroke="#c1a894" stroke-width="0.6" stroke-opacity="0.5" transform="rotate(364.7)" opacity="0.98"/><use href="#p12" fill="url(#g9)" stroke="#c1a894" stroke-width="0.6" stroke-opacity="0.5" transform="rotate(88.7)" opacity="0.98"/><use href="#p12" fill="url(#g9)" stroke="#c1a894" stroke-width="0.6" stroke-opacity="0.5" transform="rotate(160.7)" opacity="0.98"/><use href="#p12" fill="url(#g9)" stroke="#c1a894" stroke-width="0.6" stroke-opacity="0.5" transform="rotate(232.7)" opacity="0.98"/><use href="#p12" fill="url(#g9)" stroke="#c1a894" stroke-width="0.6" stroke-opacity="0.5" transform="rotate(304.7)" opacity="0.98"/><use href="#p12" fill="url(#g9)" stroke="#c1a894" stroke-width="0.6" stroke-opacity="0.5" transform="rotate(376.7)" opacity="0.98"/><circle r="11" fill="none" stroke="#b4967e" stroke-width="3.5" opacity="0.9"/><circle r="7" fill="none" stroke="#bda28e" stroke-width="3.5" opacity="0.9"/><circle r="3.5" fill="none" stroke="#c6af9d" stroke-width="3.5" opacity="0.9"/><circle r="2.2" fill="#856852"/></g><g id="s13"><circle r="25" fill="#9e7c61"/><use href="#p8" fill="url(#g7)" stroke="#c1a894" stroke-width="0.6" stroke-opacity="0.5" transform="rotate(32.4)" opacity="0.98"/><use href="#p8" fill="url(#g7)" stroke="#c1a894" stroke-width="0.6" stroke-opacity="0.5" transform="rotate(77.4)" opacity="0.98"/><use href="#p8" fill="url(#g7)" stroke="#c1a894" stroke-width="0.6" stroke-opacity="0.5" transform="rotate(122.4)" opacity="0.98"/><use href="#p8" fill="url(#g7)" stroke="#c1a894" stroke-width="0.6" stroke-opacity="0.5" transform="rotate(167.4)" opacity="0.98"/><use href="#p8" fill="url(#g7)" stroke="#c1a894" stroke-width="0.6" stroke-opacity="0.5" transform="rotate(212.4)" opacity="0.98"/><use href="#p8" fill="url(#g7)" stroke="#c1a894" stroke-width="0.6" stroke-opacity="0.5" transform="rotate(257.4)" opacity="0.98"/><use href="#p8" fill="url(#g7)" stroke="#c1a894" stroke-width="0.6" stroke-opacity="0.5" transform="rotate(302.4)" opacity="0.98"/><use href="#p8" fill="url(#g7)" stroke="#c1a894" stroke-width="0.6" stroke-opacity="0.5" transform="rotate(347.4)" opacity="0.98"/><use href="#p10" fill="url(#g9)" stroke="#c1a894" stroke-width="0.6" stroke-opacity="0.5" transform="rotate(56.4)" opacity="0.98"/><use href="#p10" fill="url(#g9)" stroke="#c1a894" stroke-width="0.6" stroke-opacity="0.5" transform="rotate(107.8)" opacity="0.98"/><use href="#p10" fill="url(#g9)" stroke="#c1a894" stroke-width="0.6" stroke-opacity="0.5" transform="rotate(159.3)" opacity="0.98"/><use href="#p10" fill="url(#g9)" stroke="#c1a894" stroke-width="0.6" stroke-opacity="0.5" transform="rotate(210.7)" opacity="0.98"/><use href="#p10" fill="url(#g9)" stroke="#c1a894" stroke-width="0.6" stroke-opacity="0.5" transform="rotate(262.1)" opacity="0.98"/><use href="#p10" fill="url(#g9)" stroke="#c1a894" stroke-width="0.6" stroke-opacity="0.5" transform="rotate(313.5)" opacity="0.98"/><use href="#p10" fill="url(#g9)" stroke="#c1a894" stroke-width="0.6" stroke-opacity="0.5" transform="rotate(365)" opacity="0.98"/><use href="#p11" fill="url(#g7)" stroke="#c1a894" stroke-width="0.6" stroke-opacity="0.5" transform="rotate(80.4)" opacity="0.98"/><use href="#p11" fill="url(#g7)" stroke="#c1a894" stroke-width="0.6" stroke-opacity="0.5" transform="rotate(140.4)" opacity="0.98"/><use href="#p11" fill="url(#g7)" stroke="#c1a894" stroke-width="0.6" stroke-opacity="0.5" transform="rotate(200.4)" opacity="0.98"/><use href="#p11" fill="url(#g7)" stroke="#c1a894" stroke-width="0.6" stroke-opacity="0.5" transform="rotate(260.4)" opacity="0.98"/><use href="#p11" fill="url(#g7)" stroke="#c1a894" stroke-width="0.6" stroke-opacity="0.5" transform="rotate(320.4)" opacity="0.98"/><use href="#p11" fill="url(#g7)" stroke="#c1a894" stroke-width="0.6" stroke-opacity="0.5" transform="rotate(380.4)" opacity="0.98"/><use href="#p12" fill="url(#g9)" stroke="#c1a894" stroke-width="0.6" stroke-opacity="0.5" transform="rotate(104.4)" opacity="0.98"/><use href="#p12" fill="url(#g9)" stroke="#c1a894" stroke-width="0.6" stroke-opacity="0.5" transform="rotate(176.4)" opacity="0.98"/><use href="#p12" fill="url(#g9)" stroke="#c1a894" stroke-width="0.6" stroke-opacity="0.5" transform="rotate(248.4)" opacity="0.98"/><use href="#p12" fill="url(#g9)" stroke="#c1a894" stroke-width="0.6" stroke-opacity="0.5" transform="rotate(320.4)" opacity="0.98"/><use href="#p12" fill="url(#g9)" stroke="#c1a894" stroke-width="0.6" stroke-opacity="0.5" transform="rotate(392.4)" opacity="0.98"/><circle r="11" fill="none" stroke="#b4967e" stroke-width="3.5" opacity="0.9"/><circle r="7" fill="none" stroke="#bda28e" stroke-width="3.5" opacity="0.9"/><circle r="3.5" fill="none" stroke="#c6af9d" stroke-width="3.5" opacity="0.9"/><circle r="2.2" fill="#856852"/></g><path id="p15" d="M0 0 C-7.5 -12.2 -7.5 -35.3 -0 -49 C7.5 -35.3 7.5 -12.2 0 0 Z"/><radialGradient id="g16" cx="45%" cy="35%" r="72%"><stop offset="0" stop-color="#f3c73f"/><stop offset="1" stop-color="#c9962a"/></radialGradient><g id="s14"><use href="#p15" fill="#fdfbf2" stroke="#a1a099" stroke-width="0.5" transform="rotate(0)"/><use href="#p15" fill="#dfddd4" stroke="#a1a099" stroke-width="0.5" transform="rotate(27.7)"/><use href="#p15" fill="#fdfbf2" stroke="#a1a099" stroke-width="0.5" transform="rotate(55.4)"/><use href="#p15" fill="#dfddd4" stroke="#a1a099" stroke-width="0.5" transform="rotate(83.1)"/><use href="#p15" fill="#fdfbf2" stroke="#a1a099" stroke-width="0.5" transform="rotate(110.8)"/><use href="#p15" fill="#dfddd4" stroke="#a1a099" stroke-width="0.5" transform="rotate(138.5)"/><use href="#p15" fill="#fdfbf2" stroke="#a1a099" stroke-width="0.5" transform="rotate(166.2)"/><use href="#p15" fill="#dfddd4" stroke="#a1a099" stroke-width="0.5" transform="rotate(193.8)"/><use href="#p15" fill="#fdfbf2" stroke="#a1a099" stroke-width="0.5" transform="rotate(221.5)"/><use href="#p15" fill="#dfddd4" stroke="#a1a099" stroke-width="0.5" transform="rotate(249.2)"/><use href="#p15" fill="#fdfbf2" stroke="#a1a099" stroke-width="0.5" transform="rotate(276.9)"/><use href="#p15" fill="#dfddd4" stroke="#a1a099" stroke-width="0.5" transform="rotate(304.6)"/><use href="#p15" fill="#fdfbf2" stroke="#a1a099" stroke-width="0.5" transform="rotate(332.3)"/><circle r="14" fill="url(#g16)"/><circle r="8" fill="none" stroke="#b8842355" stroke-width="5"/></g><g id="s17"><use href="#p15" fill="#fdfbf2" stroke="#a1a099" stroke-width="0.5" transform="rotate(0)"/><use href="#p15" fill="#dfddd4" stroke="#a1a099" stroke-width="0.5" transform="rotate(27.7)"/><use href="#p15" fill="#fdfbf2" stroke="#a1a099" stroke-width="0.5" transform="rotate(55.4)"/><use href="#p15" fill="#dfddd4" stroke="#a1a099" stroke-width="0.5" transform="rotate(83.1)"/><use href="#p15" fill="#fdfbf2" stroke="#a1a099" stroke-width="0.5" transform="rotate(110.8)"/><use href="#p15" fill="#dfddd4" stroke="#a1a099" stroke-width="0.5" transform="rotate(138.5)"/><use href="#p15" fill="#fdfbf2" stroke="#a1a099" stroke-width="0.5" transform="rotate(166.2)"/><use href="#p15" fill="#dfddd4" stroke="#a1a099" stroke-width="0.5" transform="rotate(193.8)"/><use href="#p15" fill="#fdfbf2" stroke="#a1a099" stroke-width="0.5" transform="rotate(221.5)"/><use href="#p15" fill="#dfddd4" stroke="#a1a099" stroke-width="0.5" transform="rotate(249.2)"/><use href="#p15" fill="#fdfbf2" stroke="#a1a099" stroke-width="0.5" transform="rotate(276.9)"/><use href="#p15" fill="#dfddd4" stroke="#a1a099" stroke-width="0.5" transform="rotate(304.6)"/><use href="#p15" fill="#fdfbf2" stroke="#a1a099" stroke-width="0.5" transform="rotate(332.3)"/><circle r="14" fill="url(#g16)"/><circle r="8" fill="none" stroke="#b8842355" stroke-width="5"/></g><g id="s18"><circle cx="-16.3" cy="36.1" r="12.4" fill="#fffdf5" opacity="0.95"/><circle cx="-16.3" cy="36.1" r="4.4" fill="#c1c0b9" opacity="0.6"/><circle cx="-18.6" cy="-14.4" r="14.3" fill="#fffdf5" opacity="0.95"/><circle cx="-18.6" cy="-14.4" r="5" fill="#c1c0b9" opacity="0.6"/><circle cx="38.6" cy="11.8" r="9.4" fill="#fffdf5" opacity="0.95"/><circle cx="38.6" cy="11.8" r="3.3" fill="#c1c0b9" opacity="0.6"/><circle cx="-5.2" cy="-5.9" r="14" fill="#fffdf5" opacity="0.95"/><circle cx="-5.2" cy="-5.9" r="4.9" fill="#c1c0b9" opacity="0.6"/><circle cx="-11.5" cy="-23" r="8.2" fill="#fffdf5" opacity="0.95"/><circle cx="-11.5" cy="-23" r="2.9" fill="#c1c0b9" opacity="0.6"/><circle cx="-24.7" cy="28" r="11.6" fill="#fffdf5" opacity="0.95"/><circle cx="-24.7" cy="28" r="4.1" fill="#c1c0b9" opacity="0.6"/><circle cx="-3.7" cy="-12.4" r="11.3" fill="#fffdf5" opacity="0.95"/><circle cx="-3.7" cy="-12.4" r="4" fill="#c1c0b9" opacity="0.6"/></g><g id="s19"><circle cx="27.7" cy="30.7" r="12.5" fill="#fffdf5" opacity="0.95"/><circle cx="27.7" cy="30.7" r="4.4" fill="#c1c0b9" opacity="0.6"/><circle cx="-24.5" cy="14.3" r="8.2" fill="#fffdf5" opacity="0.95"/><circle cx="-24.5" cy="14.3" r="2.9" fill="#c1c0b9" opacity="0.6"/><circle cx="28.7" cy="24.1" r="8.2" fill="#fffdf5" opacity="0.95"/><circle cx="28.7" cy="24.1" r="2.9" fill="#c1c0b9" opacity="0.6"/><circle cx="26.1" cy="-34.4" r="13.2" fill="#fffdf5" opacity="0.95"/><circle cx="26.1" cy="-34.4" r="4.6" fill="#c1c0b9" opacity="0.6"/><circle cx="-6.9" cy="-10.7" r="10" fill="#fffdf5" opacity="0.95"/><circle cx="-6.9" cy="-10.7" r="3.5" fill="#c1c0b9" opacity="0.6"/><circle cx="-10.6" cy="3" r="13.3" fill="#fffdf5" opacity="0.95"/><circle cx="-10.6" cy="3" r="4.7" fill="#c1c0b9" opacity="0.6"/><circle cx="26.9" cy="-19" r="15" fill="#fffdf5" opacity="0.95"/><circle cx="26.9" cy="-19" r="5.2" fill="#c1c0b9" opacity="0.6"/></g><linearGradient id="g20" x1="0" y1="0" x2="1" y2="0"><stop offset="0" stop-color="#e1cfb7"/><stop offset="1" stop-color="#a89174"/></linearGradient></defs><rect width="800" height="1000" fill="url(#g1)"/><circle cx="375" cy="272.4" r="88.5" fill="#ffffff" opacity="0.08"/><circle cx="453.6" cy="68.8" r="54.7" fill="#ffffff" opacity="0.06"/><circle cx="350.1" cy="73.7" r="76.7" fill="#ffffff" opacity="0.06"/><circle cx="794.8" cy="119.3" r="61.7" fill="#ffffff" opacity="0.10"/><circle cx="332.8" cy="639.7" r="86.7" fill="#ffffff" opacity="0.09"/><circle cx="309.5" cy="479.2" r="54.6" fill="#ffffff" opacity="0.06"/><circle cx="585.2" cy="184.9" r="132.9" fill="#ffffff" opacity="0.11"/><rect y="860" width="800" height="140" fill="#d6cab5" opacity="0.4"/><ellipse cx="400" cy="932" rx="253.4" ry="38.5" fill="#3a2f28" opacity="0.16"/><use href="#s2" transform="translate(359.2 587.7) rotate(-156.3) scale(0.817)" opacity="0.93"/><use href="#s3" transform="translate(299.3 561.8) rotate(-165.7) scale(0.648)" opacity="0.95"/><use href="#s2" transform="translate(220.8 545.3) rotate(-133.3) scale(0.702)" opacity="0.85"/><use href="#s3" transform="translate(201.2 499) rotate(-110.9) scale(0.828)" opacity="0.97"/><use href="#s2" transform="translate(168.8 445) rotate(-91) scale(0.763)" opacity="0.96"/><use href="#s3" transform="translate(149.6 401.4) rotate(-73.8) scale(0.772)" opacity="0.87"/><use href="#s2" transform="translate(209.4 324.9) rotate(-66.3) scale(0.914)" opacity="0.90"/><use href="#s3" transform="translate(234.4 263.2) rotate(-49.7) scale(0.677)" opacity="0.91"/><use href="#s2" transform="translate(284.5 243.1) rotate(-40.1) scale(0.746)" opacity="0.89"/><use href="#s3" transform="translate(387.5 232.7) rotate(9.1) scale(0.807)" opacity="0.92"/><use href="#s2" transform="translate(424.1 230.1) rotate(2.5) scale(0.875)" opacity="0.91"/><use href="#s3" transform="translate(484.9 250) rotate(29.2) scale(0.756)" opacity="0.89"/><use href="#s2" transform="translate(574.7 281.3) rotate(45.6) scale(0.793)" opacity="0.88"/><use href="#s3" transform="translate(614.3 317.1) rotate(68.8) scale(0.870)" opacity="0.86"/><use href="#s2" transform="translate(617.2 388.9) rotate(73) scale(0.782)" opacity="0.95"/><use href="#s3" transform="translate(614.6 431.3) rotate(108.6) scale(0.716)" opacity="0.89"/><use href="#s2" transform="translate(601.7 509.3) rotate(110.5) scale(0.648)" opacity="1.00"/><use href="#s3" transform="translate(568.7 537.5) rotate(126.8) scale(0.942)" opacity="0.86"/><use href="#s2" transform="translate(491.1 587.5) rotate(151.8) scale(0.806)" opacity="0.94"/><use href="#s3" transform="translate(449.4 596.8) rotate(164) scale(0.828)" opacity="0.94"/><ellipse cx="400" cy="443" rx="175.7" ry="140" fill="#556639" opacity="0.32" filter="url(#f5)"/><use href="#s3" transform="translate(511.3 505.7) rotate(241.2) scale(0.493)" opacity="0.85"/><use href="#s3" transform="translate(230.8 394.4) rotate(19.2) scale(0.555)" opacity="0.85"/><use href="#s3" transform="translate(197.4 345.2) rotate(242.7) scale(0.491)" opacity="0.85"/><use href="#s3" transform="translate(413.5 425) rotate(334.9) scale(0.577)" opacity="0.85"/><use href="#s3" transform="translate(551.7 511.8) rotate(154.3) scale(0.534)" opacity="0.85"/><use href="#s3" transform="translate(522.5 346.7) rotate(171.7) scale(0.464)" opacity="0.85"/><use href="#s3" transform="translate(340.7 448.2) rotate(304) scale(0.587)" opacity="0.85"/><use href="#s3" transform="translate(441.6 229.1) rotate(301.7) scale(0.566)" opacity="0.85"/><use href="#s3" transform="translate(304.7 470.1) rotate(0.2) scale(0.479)" opacity="0.85"/><use href="#s3" transform="translate(267.7 493.7) rotate(88.2) scale(0.434)" opacity="0.85"/><use href="#s3" transform="translate(268.1 265.5) rotate(347) scale(0.534)" opacity="0.85"/><use href="#s3" transform="translate(400.7 543.3) rotate(226.6) scale(0.563)" opacity="0.85"/><use href="#s3" transform="translate(368.3 429.9) rotate(177) scale(0.603)" opacity="0.85"/><use href="#s3" transform="translate(522.3 462.7) rotate(348.9) scale(0.507)" opacity="0.85"/><use href="#s3" transform="translate(212.3 429) rotate(79.6) scale(0.570)" opacity="0.85"/><use href="#s3" transform="translate(181.8 373.8) rotate(93.1) scale(0.444)" opacity="0.85"/><use href="#s6" transform="translate(441.2 236.6) rotate(12.9) scale(1.176)"/><use href="#s14" transform="translate(462.3 245.1) rotate(67.3) scale(0.930)"/><use href="#s18" transform="translate(455.4 248.7) rotate(180.1) scale(0.503)"/><use href="#s6" transform="translate(352.2 254.1) rotate(52.5) scale(1.227)"/><use href="#s18" transform="translate(394 271.8) rotate(158.9) scale(0.599)"/><use href="#s17" transform="translate(363.9 275.5) rotate(310.4) scale(1.022)"/><use href="#s19" transform="translate(250.3 307.4) rotate(109.8) scale(0.581)"/><use href="#s18" transform="translate(456.5 309.6) rotate(30) scale(0.551)"/><use href="#s19" transform="translate(536.2 310.9) rotate(186.8) scale(0.525)"/><use href="#s14" transform="translate(372.4 322.3) rotate(43.2) scale(0.874)"/><use href="#s6" transform="translate(447.3 327.7) rotate(34.5) scale(1.200)"/><use href="#s13" transform="translate(513.2 330.7) rotate(251.6) scale(1.191)"/><use href="#s19" transform="translate(277.9 342.4) rotate(27.7) scale(0.565)"/><use href="#s14" transform="translate(543.5 344) rotate(71.7) scale(0.884)"/><use href="#s19" transform="translate(317.3 345.4) rotate(130.1) scale(0.627)"/><use href="#s17" transform="translate(264.6 354.5) rotate(173.1) scale(1.063)"/><use href="#s18" transform="translate(543.5 354.8) rotate(150.9) scale(0.581)"/><use href="#s18" transform="translate(398.3 359.8) rotate(59.4) scale(0.567)"/><use href="#s19" transform="translate(487.7 369.2) rotate(337.4) scale(0.638)"/><use href="#s18" transform="translate(320.9 384) rotate(266.5) scale(0.548)"/><use href="#s19" transform="translate(206.8 398.2) rotate(77) scale(0.632)"/><use href="#s18" transform="translate(432.4 408.9) rotate(297.3) scale(0.720)"/><use href="#s17" transform="translate(446.8 409.6) rotate(343.7) scale(1.065)"/><use href="#s13" transform="translate(593.3 416) rotate(191.6) scale(1.084)"/><use href="#s13" transform="translate(446.8 416.7) rotate(117.7) scale(1.380)"/><use href="#s17" transform="translate(590.9 429.3) rotate(105.8) scale(0.896)"/><use href="#s6" transform="translate(263.2 434.5) rotate(338.9) scale(1.094)"/><use href="#s19" transform="translate(532.7 438.6) rotate(79.8) scale(0.529)"/><use href="#s18" transform="translate(357.6 441) rotate(21.1) scale(0.636)"/><use href="#s13" transform="translate(330.9 448.2) rotate(284.8) scale(1.411)"/><use href="#s17" transform="translate(335.7 451.5) rotate(40.4) scale(1.044)"/><use href="#s19" transform="translate(587.8 454.2) rotate(110.2) scale(0.601)"/><use href="#s19" transform="translate(441.1 471.3) rotate(179.8) scale(0.677)"/><use href="#s14" transform="translate(208.4 474.3) rotate(295.9) scale(0.947)"/><use href="#s13" transform="translate(503.7 477.1) rotate(0.9) scale(1.141)"/><use href="#s18" transform="translate(293.4 490.6) rotate(326.2) scale(0.535)"/><use href="#s18" transform="translate(228.5 494.6) rotate(80.7) scale(0.617)"/><use href="#s17" transform="translate(448.4 506.7) rotate(151.9) scale(0.870)"/><use href="#s19" transform="translate(384.7 512.3) rotate(324.8) scale(0.607)"/><use href="#s18" transform="translate(524 518.1) rotate(344.4) scale(0.558)"/><use href="#s6" transform="translate(247.6 519.8) rotate(273.1) scale(1.158)"/><use href="#s19" transform="translate(430.4 525.2) rotate(71.2) scale(0.627)"/><use href="#s18" transform="translate(309.6 538) rotate(242.2) scale(0.543)"/><use href="#s13" transform="translate(361.7 548.8) rotate(359.5) scale(1.225)"/><use href="#s14" transform="translate(410.5 550.2) rotate(29.1) scale(0.828)"/><use href="#s18" transform="translate(399.1 563.3) rotate(97.6) scale(0.555)"/><use href="#s13" transform="translate(402.8 615.1) rotate(224.7) scale(1.282)"/><use href="#s2" transform="translate(246.7 536.3) rotate(-142.1) scale(0.466)" opacity="0.90"/><use href="#s2" transform="translate(204.4 364.8) rotate(-64.7) scale(0.487)" opacity="0.90"/><use href="#s2" transform="translate(322.6 269.1) rotate(-35.7) scale(0.599)" opacity="0.90"/><use href="#s2" transform="translate(512.4 289.7) rotate(47.9) scale(0.558)" opacity="0.90"/><use href="#s2" transform="translate(605 361.5) rotate(73.4) scale(0.436)" opacity="0.90"/><use href="#s2" transform="translate(543.6 555.8) rotate(150) scale(0.485)" opacity="0.90"/><path d="M208 575 L357.8 925 L442.2 925 L592 575 Z" fill="url(#g20)"/><line x1="281" y1="575" x2="373.8" y2="925" stroke="#ac9477" stroke-width="4.6" opacity="0.4"/><line x1="346.2" y1="575" x2="388.2" y2="925" stroke="#ac9477" stroke-width="4.6" opacity="0.4"/><line x1="409.6" y1="575" x2="402.1" y2="925" stroke="#ac9477" stroke-width="4.6" opacity="0.4"/><line x1="473" y1="575" x2="416.1" y2="925" stroke="#ac9477" stroke-width="4.6" opacity="0.4"/><line x1="534.4" y1="575" x2="429.6" y2="925" stroke="#ac9477" stroke-width="4.6" opacity="0.4"/><path d="M208 575 Q400 624 592 575 Q400 554 208 575 Z" fill="#e4d5c0"/><path d="M342.4 732.5 L457.6 732.5 L448.4 781.5 L351.6 781.5 Z" fill="#c2a15e"/><path d="M400 753.5 C323.2 697.5 307.8 802.5 400 753.5 Z" fill="#cdb27b" stroke="#977e49" stroke-width="1"/><path d="M400 760.5 Q361.6 851.5 338.6 907.5" fill="none" stroke="#c5a666" stroke-width="10.8" stroke-linecap="round"/><path d="M400 753.5 C476.8 697.5 492.2 802.5 400 753.5 Z" fill="#cdb27b" stroke="#977e49" stroke-width="1"/><path d="M400 760.5 Q438.4 851.5 461.4 907.5" fill="none" stroke="#c5a666" stroke-width="10.8" stroke-linecap="round"/></svg>