<svg xmlns="http://www.w3.org/2000/svg" xmlns:xlink="http://www.w3.org/1999/xlink" viewBox="0 0 800 1000" width="800" height="1000" role="img" aria-label="Blush Nest — Nested Blooms"><title>Blush Nest — Nested Blooms</title><defs><radialGradient id="g1" cx="50%" cy="38%" r="72%"><stop offset="0" stop-color="#fbf4ee"/><stop offset="1" stop-color="#f0dfd6"/></radialGradient><g id="s2"><path d="M0 0 C5 -30 -5 -60 0 -90" fill="none" stroke="#577255" stroke-width="3.5"/><ellipse cx="-12.8" cy="-15" rx="15" ry="12.3" fill="#6d8f6a" opacity="0.95"/><ellipse cx="12.8" cy="-15" rx="15" ry="12.3" fill="#6d8f6a" opacity="0.95"/><ellipse cx="-11.3" cy="-31" rx="13.2" ry="10.9" fill="#769673" opacity="0.95"/><ellipse cx="11.3" cy="-31" rx="13.2" ry="10.9" fill="#769673" opacity="0.95"/><ellipse cx="-9.8" cy="-47" rx="11.5" ry="9.4" fill="#7f9c7c" opacity="0.95"/><ellipse cx="9.8" cy="-47" rx="11.5" ry="9.4" fill="#7f9c7c" opacity="0.95"/><ellipse cx="-8.3" cy="-63" rx="9.7" ry="8" fill="#87a385" opacity="0.95"/><ellipse cx="8.3" cy="-63" rx="9.7" ry="8" fill="#87a385" opacity="0.95"/><ellipse cx="-6.8" cy="-79" rx="8" ry="6.6" fill="#90aa8e" opacity="0.95"/><ellipse cx="6.8" cy="-79" rx="8" ry="6.6" fill="#90aa8e" opacity="0.95"/></g><linearGradient id="g4" x1="0" y1="0" x2="0" y2="1"><stop offset="0" stop-color="#7d987b"/><stop offset="1" stop-color="#4e674c"/></linearGradient><g id="s3"><path d="M0 0 C-21 -30 -15 -67.5 0 -87.5 C15 -67.5 21 -30 0 0 Z" fill="url(#g4)"/><path d="M0 -4 L0 -80" fill="none" stroke="#465c45" stroke-width="2.2" opacity="0.55"/></g><filter id="f5" x="-30%" y="-30%" width="160%" height="160%"><feGaussianBlur stdDeviation="24"/></filter><radialGradient id="g7" cx="45%" cy="35%" r="72%"><stop offset="0" stop-color="#f3c7cd"/><stop offset="1" stop-color="#d8a6ad"/></radialGradient><path id="p8" d="M0 0 C-23 -11 -25.8 -33 -11.5 -46.5 C-4.1 -53 4.1 -53 11.5 -46.5 C25.8 -33 23 -11 0 0 Z"/><radialGradient id="g9" cx="45%" cy="35%" r="72%"><stop offset="0" stop-color="#ecb2be"/><stop offset="1" stop-color="#d08f9d"/></radialGradient><path id="p10" d="M0 0 C-18.5 -8.4 -20.7 -25.1 -9.2 -35.3 C-3.3 -40.3 3.3 -40.3 9.2 -35.3 C20.7 -25.1 18.5 -8.4 0 0 Z"/><path id="p11" d="M0 0 C-14.5 -6.1 -16.2 -18.2 -7.2 -25.6 C-2.6 -29.2 2.6 -29.2 7.2 -25.6 C16.2 -18.2 14.5 -6.1 0 0 Z"/><path id="p12" d="M0 0 C-11 -4.1 -12.3 -12.2 -5.5 -17.2 C-2 -19.6 2 -19.6 5.5 -17.2 C12.3 -12.2 11 -4.1 0 0 Z"/><g id="s6"><circle r="25" fill="#ebc8c9"/><use href="#p8" fill="url(#g7)" stroke="#f9e0e1" stroke-width="0.6" stroke-opacity="0.5" transform="rotate(16.7)" opacity="0.98"/><use href="#p8" fill="url(#g7)" stroke="#f9e0e1" stroke-width="0.6" stroke-opacity="0.5" transform="rotate(61.7)" opacity="0.98"/><use href="#p8" fill="url(#g7)" stroke="#f9e0e1" stroke-width="0.6" stroke-opacity="0.5" transform="rotate(106.7)" opacity="0.98"/><use href="#p8" fill="url(#g7)" stroke="#f9e0e1" stroke-width="0.6" stroke-opacity="0.5" transform="rotate(151.7)" opacity="0.98"/><use href="#p8" fill="url(#g7)" stroke="#f9e0e1" stroke-width="0.6" stroke-opacity="0.5" transform="rotate(196.7)" opacity="0.98"/><use href="#p8" fill="url(#g7)" stroke="#f9e0e1" stroke-width="0.6" stroke-opacity="0.5" transform="rotate(241.7)" opacity="0.98"/><use href="#p8" fill="url(#g7)" stroke="#f9e0e1" stroke-width="0.6" stroke-opacity="0.5" transform="rotate(286.7)" opacity="0.98"/><use href="#p8" fill="url(#g7)" stroke="#f9e0e1" stroke-width="0.6" stroke-opacity="0.5" transform="rotate(331.7)" opacity="0.98"/><use href="#p10" fill="url(#g9)" stroke="#f9e0e1" stroke-width="0.6" stroke-opacity="0.5" transform="rotate(40.7)" opacity="0.98"/><use href="#p10" fill="url(#g9)" stroke="#f9e0e1" stroke-width="0.6" stroke-opacity="0.5" transform="rotate(92.1)" opacity="0.98"/><use href="#p10" fill="url(#g9)" stroke="#f9e0e1" stroke-width="0.6" stroke-opacity="0.5" transform="rotate(143.6)" opacity="0.98"/><use href="#p10" fill="url(#g9)" stroke="#f9e0e1" stroke-width="0.6" stroke-opacity="0.5" transform="rotate(195)" opacity="0.98"/><use href="#p10" fill="url(#g9)" stroke="#f9e0e1" stroke-width="0.6" stroke-opacity="0.5" transform="rotate(246.4)" opacity="0.98"/><use href="#p10" fill="url(#g9)" stroke="#f9e0e1" stroke-width="0.6" stroke-opacity="0.5" transform="rotate(297.8)" opacity="0.98"/><use href="#p10" fill="url(#g9)" stroke="#f9e0e1" stroke-width="0.6" stroke-opacity="0.5" transform="rotate(349.3)" opacity="0.98"/><use href="#p11" fill="url(#g7)" stroke="#f9e0e1" stroke-width="0.6" stroke-opacity="0.5" transform="rotate(64.7)" opacity="0.98"/><use href="#p11" fill="url(#g7)" stroke="#f9e0e1" stroke-width="0.6" stroke-opacity="0.5" transform="rotate(124.7)" opacity="0.98"/><use href="#p11" fill="url(#g7)" stroke="#f9e0e1" stroke-width="0.6" stroke-opacity="0.5" transform="rotate(184.7)" opacity="0.98"/><use href="#p11" fill="url(#g7)" stroke="#f9e0e1" stroke-width="0.6" stroke-opacity="0.5" transform="rotate(244.7)" opacity="0.98"/><use href="#p11" fill="url(#g7)" stroke="#f9e0e1" stroke-width="0.6" stroke-opacity="0.5" transform="rotate(304.7)" opacity="0.98"/><use href="#p11" fill="url(#g7)" stroke="#f9e0e1" stroke-width="0.6" stroke-opacity="0.5" transform="rotate(364.7)" opacity="0.98"/><use href="#p12" fill="url(#g9)" stroke="#f9e0e1" stroke-width="0.6" stroke-opacity="0.5" transform="rotate(88.7)" opacity="0.98"/><use href="#p12" fill="url(#g9)" stroke="#f9e0e1" stroke-width="0.6" stroke-opacity="0.5" transform="rotate(160.7)" opacity="0.98"/><use href="#p12" fill="url(#g9)" stroke="#f9e0e1" stroke-width="0.6" stroke-opacity="0.5" transform="rotate(232.7)" opacity="0.98"/><use href="#p12" fill="url(#g9)" stroke="#f9e0e1" stroke-width="0.6" stroke-opacity="0.5" transform="rotate(304.7)" opacity="0.98"/><use href="#p12" fill="url(#g9)" stroke="#f9e0e1" stroke-width="0.6" stroke-opacity="0.5" transform="rotate(376.7)" opacity="0.98"/><circle r="11" fill="none" stroke="#f8d9db" stroke-width="3.5" opacity="0.9"/><circle r="7" fill="none" stroke="#f9dedf" stroke-width="3.5" opacity="0.9"/><circle r="3.5" fill="none" stroke="#fae2e3" stroke-width="3.5" opacity="0.9"/><circle r="2.2" fill="#c6a8aa"/></g><g id="s13"><circle r="25" fill="#ebc8c9"/><use href="#p8" fill="url(#g7)" stroke="#f9e0e1" stroke-width="0.6" stroke-opacity="0.5" transform="rotate(32.4)" opacity="0.98"/><use href="#p8" fill="url(#g7)" stroke="#f9e0e1" stroke-width="0.6" stroke-opacity="0.5" transform="rotate(77.4)" opacity="0.98"/><use href="#p8" fill="url(#g7)" stroke="#f9e0e1" stroke-width="0.6" stroke-opacity="0.5" transform="rotate(122.4)" opacity="0.98"/><use href="#p8" fill="url(#g7)" stroke="#f9e0e1" stroke-width="0.6" stroke-opacity="0.5" transform="rotate(167.4)" opacity="0.98"/><use href="#p8" fill="url(#g7)" stroke="#f9e0e1" stroke-width="0.6" stroke-opacity="0.5" transform="rotate(212.4)" opacity="0.98"/><use href="#p8" fill="url(#g7)" stroke="#f9e0e1" stroke-width="0.6" stroke-opacity="0.5" transform="rotate(257.4)" opacity="0.98"/><use href="#p8" fill="url(#g7)" stroke="#f9e0e1" stroke-width="0.6" stroke-opacity="0.5" transform="rotate(302.4)" opacity="0.98"/><use href="#p8" fill="url(#g7)" stroke="#f9e0e1" stroke-width="0.6" stroke-opacity="0.5" transform="rotate(347.4)" opacity="0.98"/><use href="#p10" fill="url(#g9)" stroke="#f9e0e1" stroke-width="0.6" stroke-opacity="0.5" transform="rotate(56.4)" opacity="0.98"/><use href="#p10" fill="url(#g9)" stroke="#f9e0e1" stroke-width="0.6" stroke-opacity="0.5" transform="rotate(107.8)" opacity="0.98"/><use href="#p10" fill="url(#g9)" stroke="#f9e0e1" stroke-width="0.6" stroke-opacity="0.5" transform="rotate(159.3)" opacity="0.98"/><use href="#p10" fill="url(#g9)" stroke="#f9e0e1" stroke-width="0.6" stroke-opacity="0.5" transform="rotate(210.7)" opacity="0.98"/><use href="#p10" fill="url(#g9)" stroke="#f9e0e1" stroke-width="0.6" stroke-opacity="0.5" transform="rotate(262.1)" opacity="0.98"/><use href="#p10" fill="url(#g9)" stroke="#f9e0e1" stroke-width="0.6" stroke-opacity="0.5" transform="rotate(313.5)" opacity="0.98"/><use href="#p10" fill="url(#g9)" stroke="#f9e0e1" stroke-width="0.6" stroke-opacity="0.5" transform="rotate(365)" opacity="0.98"/><use href="#p11" fill="url(#g7)" stroke="#f9e0e1" stroke-width="0.6" stroke-opacity="0.5" transform="rotate(80.4)" opacity="0.98"/><use href="#p11" fill="url(#g7)" stroke="#f9e0e1" stroke-width="0.6" stroke-opacity="0.5" transform="rotate(140.4)" opacity="0.98"/><use href="#p11" fill="url(#g7)" stroke="#f9e0e1" stroke-width="0.6" stroke-opacity="0.5" transform="rotate(200.4)" opacity="0.98"/><use href="#p11" fill="url(#g7)" stroke="#f9e0e1" stroke-width="0.6" stroke-opacity="0.5" transform="rotate(260.4)" opacity="0.98"/><use href="#p11" fill="url(#g7)" stroke="#f9e0e1" stroke-width="0.6" stroke-opacity="0.5" transform="rotate(320.4)" opacity="0.98"/><use href="#p11" fill="url(#g7)" stroke="#f9e0e1" stroke-width="0.6" stroke-opacity="0.5" transform="rotate(380.4)" opacity="0.98"/><use href="#p12" fill="url(#g9)" stroke="#f9e0e1" stroke-width="0.6" stroke-opacity="0.5" transform="rotate(104.4)" opacity="0.98"/><use href="#p12" fill="url(#g9)" stroke="#f9e0e1" stroke-width="0.6" stroke-opacity="0.5" transform="rotate(176.4)" opacity="0.98"/><use href="#p12" fill="url(#g9)" stroke="#f9e0e1" stroke-width="0.6" stroke-opacity="0.5" transform="rotate(248.4)" opacity="0.98"/><use href="#p12" fill="url(#g9)" stroke="#f9e0e1" stroke-width="0.6" stroke-opacity="0.5" transform="rotate(320.4)" opacity="0.98"/><use href="#p12" fill="url(#g9)" stroke="#f9e0e1" stroke-width="0.6" stroke-opacity="0.5" transform="rotate(392.4)" opacity="0.98"/><circle r="11" fill="none" stroke="#f8d9db" stroke-width="3.5" opacity="0.9"/><circle r="7" fill="none" stroke="#f9dedf" stroke-width="3.5" opacity="0.9"/><circle r="3.5" fill="none" stroke="#fae2e3" stroke-width="3.5" opacity="0.9"/><circle r="2.2" fill="#c6a8aa"/></g><radialGradient id="g15" cx="45%" cy="35%" r="72%"><stop offset="0" stop-color="#fdf8f5"/><stop offset="1" stop-color="#e4ddda"/></radialGradient><path id="p16" d="M0 0 C-18 -11 -20.2 -33 -9 -46.5 C-3.2 -53 3.2 -53 9 -46.5 C20.2 -33 18 -11 0 0 Z"/><radialGradient id="g17" cx="45%" cy="35%" r="72%"><stop offset="0" stop-color="#f5e9e3"/><stop offset="1" stop-color="#dbccc6"/></radialGradient><path id="p18" d="M0 0 C-15.5 -9 -17.4 -27.1 -7.8 -38.1 C-2.8 -43.5 2.8 -43.5 7.8 -38.1 C17.4 -27.1 15.5 -9 0 0 Z"/><path id="p19" d="M0 0 C-13 -7.3 -14.6 -21.8 -6.5 -30.7 C-2.3 -35 2.3 -35 6.5 -30.7 C14.6 -21.8 13 -7.3 0 0 Z"/><path id="p20" d="M0 0 C-11 -5.5 -12.3 -16.5 -5.5 -23.2 C-2 -26.5 2 -26.5 5.5 -23.2 C12.3 -16.5 11 -5.5 0 0 Z"/><path id="p21" d="M0 0 C-9 -4 -10.1 -11.9 -4.5 -16.7 C-1.6 -19.1 1.6 -19.1 4.5 -16.7 C10.1 -11.9 9 -4 0 0 Z"/><path id="p22" d="M0 0 C-7 -2.6 -7.8 -7.9 -3.5 -11.2 C-1.3 -12.7 1.3 -12.7 3.5 -11.2 C7.8 -7.9 7 -2.6 0 0 Z"/><g id="s14"><circle r="27.5" fill="#aca09b"/><use href="#p16" fill="url(#g15)" stroke="#c5bdb9" stroke-width="0.6" stroke-opacity="0.5" transform="rotate(8.5)" opacity="0.97"/><use href="#p16" fill="url(#g15)" stroke="#c5bdb9" stroke-width="0.6" stroke-opacity="0.5" transform="rotate(44.5)" opacity="0.97"/><use href="#p16" fill="url(#g15)" stroke="#c5bdb9" stroke-width="0.6" stroke-opacity="0.5" transform="rotate(80.5)" opacity="0.97"/><use href="#p16" fill="url(#g15)" stroke="#c5bdb9" stroke-width="0.6" stroke-opacity="0.5" transform="rotate(116.5)" opacity="0.97"/><use href="#p16" fill="url(#g15)" stroke="#c5bdb9" stroke-width="0.6" stroke-opacity="0.5" transform="rotate(152.5)" opacity="0.97"/><use href="#p16" fill="url(#g15)" stroke="#c5bdb9" stroke-width="0.6" stroke-opacity="0.5" transform="rotate(188.5)" opacity="0.97"/><use href="#p16" fill="url(#g15)" stroke="#c5bdb9" stroke-width="0.6" stroke-opacity="0.5" transform="rotate(224.5)" opacity="0.97"/><use href="#p16" fill="url(#g15)" stroke="#c5bdb9" stroke-width="0.6" stroke-opacity="0.5" transform="rotate(260.5)" opacity="0.97"/><use href="#p16" fill="url(#g15)" stroke="#c5bdb9" stroke-width="0.6" stroke-opacity="0.5" transform="rotate(296.5)" opacity="0.97"/><use href="#p16" fill="url(#g15)" stroke="#c5bdb9" stroke-width="0.6" stroke-opacity="0.5" transform="rotate(332.5)" opacity="0.97"/><use href="#p18" fill="url(#g17)" stroke="#c5bdb9" stroke-width="0.6" stroke-opacity="0.5" transform="rotate(30.3)" opacity="0.97"/><use href="#p18" fill="url(#g17)" stroke="#c5bdb9" stroke-width="0.6" stroke-opacity="0.5" transform="rotate(66.3)" opacity="0.97"/><use href="#p18" fill="url(#g17)" stroke="#c5bdb9" stroke-width="0.6" stroke-opacity="0.5" transform="rotate(102.3)" opacity="0.97"/><use href="#p18" fill="url(#g17)" stroke="#c5bdb9" stroke-width="0.6" stroke-opacity="0.5" transform="rotate(138.3)" opacity="0.97"/><use href="#p18" fill="url(#g17)" stroke="#c5bdb9" stroke-width="0.6" stroke-opacity="0.5" transform="rotate(174.3)" opacity="0.97"/><use href="#p18" fill="url(#g17)" stroke="#c5bdb9" stroke-width="0.6" stroke-opacity="0.5" transform="rotate(210.3)" opacity="0.97"/><use href="#p18" fill="url(#g17)" stroke="#c5bdb9" stroke-width="0.6" stroke-opacity="0.5" transform="rotate(246.3)" opacity="0.97"/><use href="#p18" fill="url(#g17)" stroke="#c5bdb9" stroke-width="0.6" stroke-opacity="0.5" transform="rotate(282.3)" opacity="0.97"/><use href="#p18" fill="url(#g17)" stroke="#c5bdb9" stroke-width="0.6" stroke-opacity="0.5" transform="rotate(318.3)" opacity="0.97"/><use href="#p18" fill="url(#g17)" stroke="#c5bdb9" stroke-width="0.6" stroke-opacity="0.5" transform="rotate(354.3)" opacity="0.97"/><use href="#p19" fill="url(#g15)" stroke="#c5bdb9" stroke-width="0.6" stroke-opacity="0.5" transform="rotate(46.5)" opacity="0.97"/><use href="#p19" fill="url(#g15)" stroke="#c5bdb9" stroke-width="0.6" stroke-opacity="0.5" transform="rotate(86.5)" opacity="0.97"/><use href="#p19" fill="url(#g15)" stroke="#c5bdb9" stroke-width="0.6" stroke-opacity="0.5" transform="rotate(126.5)" opacity="0.97"/><use href="#p19" fill="url(#g15)" stroke="#c5bdb9" stroke-width="0.6" stroke-opacity="0.5" transform="rotate(166.5)" opacity="0.97"/><use href="#p19" fill="url(#g15)" stroke="#c5bdb9" stroke-width="0.6" stroke-opacity="0.5" transform="rotate(206.5)" opacity="0.97"/><use href="#p19" fill="url(#g15)" stroke="#c5bdb9" stroke-width="0.6" stroke-opacity="0.5" transform="rotate(246.5)" opacity="0.97"/><use href="#p19" fill="url(#g15)" stroke="#c5bdb9" stroke-width="0.6" stroke-opacity="0.5" transform="rotate(286.5)" opacity="0.97"/><use href="#p19" fill="url(#g15)" stroke="#c5bdb9" stroke-width="0.6" stroke-opacity="0.5" transform="rotate(326.5)" opacity="0.97"/><use href="#p19" fill="url(#g15)" stroke="#c5bdb9" stroke-width="0.6" stroke-opacity="0.5" transform="rotate(366.5)" opacity="0.97"/><use href="#p20" fill="url(#g17)" stroke="#c5bdb9" stroke-width="0.6" stroke-opacity="0.5" transform="rotate(65)" opacity="0.97"/><use href="#p20" fill="url(#g17)" stroke="#c5bdb9" stroke-width="0.6" stroke-opacity="0.5" transform="rotate(110)" opacity="0.97"/><use href="#p20" fill="url(#g17)" stroke="#c5bdb9" stroke-width="0.6" stroke-opacity="0.5" transform="rotate(155)" opacity="0.97"/><use href="#p20" fill="url(#g17)" stroke="#c5bdb9" stroke-width="0.6" stroke-opacity="0.5" transform="rotate(200)" opacity="0.97"/><use href="#p20" fill="url(#g17)" stroke="#c5bdb9" stroke-width="0.6" stroke-opacity="0.5" transform="rotate(245)" opacity="0.97"/><use href="#p20" fill="url(#g17)" stroke="#c5bdb9" stroke-width="0.6" stroke-opacity="0.5" transform="rotate(290)" opacity="0.97"/><use href="#p20" fill="url(#g17)" stroke="#c5bdb9" stroke-width="0.6" stroke-opacity="0.5" transform="rotate(335)" opacity="0.97"/><use href="#p20" fill="url(#g17)" stroke="#c5bdb9" stroke-width="0.6" stroke-opacity="0.5" transform="rotate(380)" opacity="0.97"/><use href="#p21" fill="url(#g15)" stroke="#c5bdb9" stroke-width="0.6" stroke-opacity="0.5" transform="rotate(85.6)" opacity="0.97"/><use href="#p21" fill="url(#g15)" stroke="#c5bdb9" stroke-width="0.6" stroke-opacity="0.5" transform="rotate(137)" opacity="0.97"/><use href="#p21" fill="url(#g15)" stroke="#c5bdb9" stroke-width="0.6" stroke-opacity="0.5" transform="rotate(188.4)" opacity="0.97"/><use href="#p21" fill="url(#g15)" stroke="#c5bdb9" stroke-width="0.6" stroke-opacity="0.5" transform="rotate(239.8)" opacity="0.97"/><use href="#p21" fill="url(#g15)" stroke="#c5bdb9" stroke-width="0.6" stroke-opacity="0.5" transform="rotate(291.3)" opacity="0.97"/><use href="#p21" fill="url(#g15)" stroke="#c5bdb9" stroke-width="0.6" stroke-opacity="0.5" transform="rotate(342.7)" opacity="0.97"/><use href="#p21" fill="url(#g15)" stroke="#c5bdb9" stroke-width="0.6" stroke-opacity="0.5" transform="rotate(394.1)" opacity="0.97"/><use href="#p22" fill="url(#g17)" stroke="#c5bdb9" stroke-width="0.6" stroke-opacity="0.5" transform="rotate(101.8)" opacity="0.97"/><use href="#p22" fill="url(#g17)" stroke="#c5bdb9" stroke-width="0.6" stroke-opacity="0.5" transform="rotate(173.8)" opacity="0.97"/><use href="#p22" fill="url(#g17)" stroke="#c5bdb9" stroke-width="0.6" stroke-opacity="0.5" transform="rotate(245.8)" opacity="0.97"/><use href="#p22" fill="url(#g17)" stroke="#c5bdb9" stroke-width="0.6" stroke-opacity="0.5" transform="rotate(317.8)" opacity="0.97"/><use href="#p22" fill="url(#g17)" stroke="#c5bdb9" stroke-width="0.6" stroke-opacity="0.5" transform="rotate(389.8)" opacity="0.97"/><circle r="4" fill="#9e938e"/></g><g id="s23"><circle r="27.5" fill="#aca09b"/><use href="#p16" fill="url(#g15)" stroke="#c5bdb9" stroke-width="0.6" stroke-opacity="0.5" transform="rotate(7.6)" opacity="0.97"/><use href="#p16" fill="url(#g15)" stroke="#c5bdb9" stroke-width="0.6" stroke-opacity="0.5" transform="rotate(43.6)" opacity="0.97"/><use href="#p16" fill="url(#g15)" stroke="#c5bdb9" stroke-width="0.6" stroke-opacity="0.5" transform="rotate(79.6)" opacity="0.97"/><use href="#p16" fill="url(#g15)" stroke="#c5bdb9" stroke-width="0.6" stroke-opacity="0.5" transform="rotate(115.6)" opacity="0.97"/><use href="#p16" fill="url(#g15)" stroke="#c5bdb9" stroke-width="0.6" stroke-opacity="0.5" transform="rotate(151.6)" opacity="0.97"/><use href="#p16" fill="url(#g15)" stroke="#c5bdb9" stroke-width="0.6" stroke-opacity="0.5" transform="rotate(187.6)" opacity="0.97"/><use href="#p16" fill="url(#g15)" stroke="#c5bdb9" stroke-width="0.6" stroke-opacity="0.5" transform="rotate(223.6)" opacity="0.97"/><use href="#p16" fill="url(#g15)" stroke="#c5bdb9" stroke-width="0.6" stroke-opacity="0.5" transform="rotate(259.6)" opacity="0.97"/><use href="#p16" fill="url(#g15)" stroke="#c5bdb9" stroke-width="0.6" stroke-opacity="0.5" transform="rotate(295.6)" opacity="0.97"/><use href="#p16" fill="url(#g15)" stroke="#c5bdb9" stroke-width="0.6" stroke-opacity="0.5" transform="rotate(331.6)" opacity="0.97"/><use href="#p18" fill="url(#g17)" stroke="#c5bdb9" stroke-width="0.6" stroke-opacity="0.5" transform="rotate(29.1)" opacity="0.97"/><use href="#p18" fill="url(#g17)" stroke="#c5bdb9" stroke-width="0.6" stroke-opacity="0.5" transform="rotate(65.1)" opacity="0.97"/><use href="#p18" fill="url(#g17)" stroke="#c5bdb9" stroke-width="0.6" stroke-opacity="0.5" transform="rotate(101.1)" opacity="0.97"/><use href="#p18" fill="url(#g17)" stroke="#c5bdb9" stroke-width="0.6" stroke-opacity="0.5" transform="rotate(137.1)" opacity="0.97"/><use href="#p18" fill="url(#g17)" stroke="#c5bdb9" stroke-width="0.6" stroke-opacity="0.5" transform="rotate(173.1)" opacity="0.97"/><use href="#p18" fill="url(#g17)" stroke="#c5bdb9" stroke-width="0.6" stroke-opacity="0.5" transform="rotate(209.1)" opacity="0.97"/><use href="#p18" fill="url(#g17)" stroke="#c5bdb9" stroke-width="0.6" stroke-opacity="0.5" transform="rotate(245.1)" opacity="0.97"/><use href="#p18" fill="url(#g17)" stroke="#c5bdb9" stroke-width="0.6" stroke-opacity="0.5" transform="rotate(281.1)" opacity="0.97"/><use href="#p18" fill="url(#g17)" stroke="#c5bdb9" stroke-width="0.6" stroke-opacity="0.5" transform="rotate(317.1)" opacity="0.97"/><use href="#p18" fill="url(#g17)" stroke="#c5bdb9" stroke-width="0.6" stroke-opacity="0.5" transform="rotate(353.1)" opacity="0.97"/><use href="#p19" fill="url(#g15)" stroke="#c5bdb9" stroke-width="0.6" stroke-opacity="0.5" transform="rotate(47.1)" opacity="0.97"/><use href="#p19" fill="url(#g15)" stroke="#c5bdb9" stroke-width="0.6" stroke-opacity="0.5" transform="rotate(87.1)" opacity="0.97"/><use href="#p19" fill="url(#g15)" stroke="#c5bdb9" stroke-width="0.6" stroke-opacity="0.5" transform="rotate(127.1)" opacity="0.97"/><use href="#p19" fill="url(#g15)" stroke="#c5bdb9" stroke-width="0.6" stroke-opacity="0.5" transform="rotate(167.1)" opacity="0.97"/><use href="#p19" fill="url(#g15)" stroke="#c5bdb9" stroke-width="0.6" stroke-opacity="0.5" transform="rotate(207.1)" opacity="0.97"/><use href="#p19" fill="url(#g15)" stroke="#c5bdb9" stroke-width="0.6" stroke-opacity="0.5" transform="rotate(247.1)" opacity="0.97"/><use href="#p19" fill="url(#g15)" stroke="#c5bdb9" stroke-width="0.6" stroke-opacity="0.5" transform="rotate(287.1)" opacity="0.97"/><use href="#p19" fill="url(#g15)" stroke="#c5bdb9" stroke-width="0.6" stroke-opacity="0.5" transform="rotate(327.1)" opacity="0.97"/><use href="#p19" fill="url(#g15)" stroke="#c5bdb9" stroke-width="0.6" stroke-opacity="0.5" transform="rotate(367.1)" opacity="0.97"/><use href="#p20" fill="url(#g17)" stroke="#c5bdb9" stroke-width="0.6" stroke-opacity="0.5" transform="rotate(66.4)" opacity="0.97"/><use href="#p20" fill="url(#g17)" stroke="#c5bdb9" stroke-width="0.6" stroke-opacity="0.5" transform="rotate(111.4)" opacity="0.97"/><use href="#p20" fill="url(#g17)" stroke="#c5bdb9" stroke-width="0.6" stroke-opacity="0.5" transform="rotate(156.4)" opacity="0.97"/><use href="#p20" fill="url(#g17)" stroke="#c5bdb9" stroke-width="0.6" stroke-opacity="0.5" transform="rotate(201.4)" opacity="0.97"/><use href="#p20" fill="url(#g17)" stroke="#c5bdb9" stroke-width="0.6" stroke-opacity="0.5" transform="rotate(246.4)" opacity="0.97"/><use href="#p20" fill="url(#g17)" stroke="#c5bdb9" stroke-width="0.6" stroke-opacity="0.5" transform="rotate(291.4)" opacity="0.97"/><use href="#p20" fill="url(#g17)" stroke="#c5bdb9" stroke-width="0.6" stroke-opacity="0.5" transform="rotate(336.4)" opacity="0.97"/><use href="#p20" fill="url(#g17)" stroke="#c5bdb9" stroke-width="0.6" stroke-opacity="0.5" transform="rotate(381.4)" opacity="0.97"/><use href="#p21" fill="url(#g15)" stroke="#c5bdb9" stroke-width="0.6" stroke-opacity="0.5" transform="rotate(86.3)" opacity="0.97"/><use href="#p21" fill="url(#g15)" stroke="#c5bdb9" stroke-width="0.6" stroke-opacity="0.5" transform="rotate(137.8)" opacity="0.97"/><use href="#p21" fill="url(#g15)" stroke="#c5bdb9" stroke-width="0.6" stroke-opacity="0.5" transform="rotate(189.2)" opacity="0.97"/><use href="#p21" fill="url(#g15)" stroke="#c5bdb9" stroke-width="0.6" stroke-opacity="0.5" transform="rotate(240.6)" opacity="0.97"/><use href="#p21" fill="url(#g15)" stroke="#c5bdb9" stroke-width="0.6" stroke-opacity="0.5" transform="rotate(292)" opacity="0.97"/><use href="#p21" fill="url(#g15)" stroke="#c5bdb9" stroke-width="0.6" stroke-opacity="0.5" transform="rotate(343.5)" opacity="0.97"/><use href="#p21" fill="url(#g15)" stroke="#c5bdb9" stroke-width="0.6" stroke-opacity="0.5" transform="rotate(394.9)" opacity="0.97"/><use href="#p22" fill="url(#g17)" stroke="#c5bdb9" stroke-width="0.6" stroke-opacity="0.5" transform="rotate(102.4)" opacity="0.97"/><use href="#p22" fill="url(#g17)" stroke="#c5bdb9" stroke-width="0.6" stroke-opacity="0.5" transform="rotate(174.4)" opacity="0.97"/><use href="#p22" fill="url(#g17)" stroke="#c5bdb9" stroke-width="0.6" stroke-opacity="0.5" transform="rotate(246.4)" opacity="0.97"/><use href="#p22" fill="url(#g17)" stroke="#c5bdb9" stroke-width="0.6" stroke-opacity="0.5" transform="rotate(318.4)" opacity="0.97"/><use href="#p22" fill="url(#g17)" stroke="#c5bdb9" stroke-width="0.6" stroke-opacity="0.5" transform="rotate(390.4)" opacity="0.97"/><circle r="4" fill="#9e938e"/></g><g id="s24"><circle cx="-16.3" cy="36.1" r="12.4" fill="#ffffff" opacity="0.95"/><circle cx="-16.3" cy="36.1" r="4.4" fill="#c1c1c1" opacity="0.6"/><circle cx="-18.6" cy="-14.4" r="14.3" fill="#ffffff" opacity="0.95"/><circle cx="-18.6" cy="-14.4" r="5" fill="#c1c1c1" opacity="0.6"/><circle cx="38.6" cy="11.8" r="9.4" fill="#ffffff" opacity="0.95"/><circle cx="38.6" cy="11.8" r="3.3" fill="#c1c1c1" opacity="0.6"/><circle cx="-5.2" cy="-5.9" r="14" fill="#ffffff" opacity="0.95"/><circle cx="-5.2" cy="-5.9" r="4.9" fill="#c1c1c1" opacity="0.6"/><circle cx="-11.5" cy="-23" r="8.2" fill="#ffffff" opacity="0.95"/><circle cx="-11.5" cy="-23" r="2.9" fill="#c1c1c1" opacity="0.6"/><circle cx="-24.7" cy="28" r="11.6" fill="#ffffff" opacity="0.95"/><circle cx="-24.7" cy="28" r="4.1" fill="#c1c1c1" opacity="0.6"/><circle cx="-3.7" cy="-12.4" r="11.3" fill="#ffffff" opacity="0.95"/><circle cx="-3.7" cy="-12.4" r="4" fill="#c1c1c1" opacity="0.6"/></g><g id="s25"><circle cx="27.7" cy="30.7" r="12.5" fill="#ffffff" opacity="0.95"/><circle cx="27.7" cy="30.7" r="4.4" fill="#c1c1c1" opacity="0.6"/><circle cx="-24.5" cy="14.3" r="8.2" fill="#ffffff" opacity="0.95"/><circle cx="-24.5" cy="14.3" r="2.9" fill="#c1c1c1" opacity="0.6"/><circle cx="28.7" cy="24.1" r="8.2" fill="#ffffff" opacity="0.95"/><circle cx="28.7" cy="24.1" r="2.9" fill="#c1c1c1" opacity="0.6"/><circle cx="26.1" cy="-34.4" r="13.2" fill="#ffffff" opacity="0.95"/><circle cx="26.1" cy="-34.4" r="4.6" fill="#c1c1c1" opacity="0.6"/><circle cx="-6.9" cy="-10.7" r="10" fill="#ffffff" opacity="0.95"/><circle cx="-6.9" cy="-10.7" r="3.5" fill="#c1c1c1" opacity="0.6"/><circle cx="-10.6" cy="3" r="13.3" fill="#ffffff" opacity="0.95"/><circle cx="-10.6" cy="3" r="4.7" fill="#c1c1c1" opacity="0.6"/><circle cx="26.9" cy="-19" r="15" fill="#ffffff" opacity="0.95"/><circle cx="26.9" cy="-19" r="5.2" fill="#c1c1c1" opacity="0.6"/></g><linearGradient id="g26" x1="0" y1="0" x2="1" y2="0"><stop offset="0" stop-color="#f5eae1"/><stop offset="1" stop-color="#d2c1b3"/></linearGradient></defs><rect width="800" height="1000" fill="url(#g1)"/><circle cx="159.6" cy="356.2" r="123.3" fill="#ffffff" opacity="0.12"/><circle cx="9.6" cy="457.1" r="157.7" fill="#ffffff" opacity="0.13"/><circle cx="443.1" cy="431.9" r="86.6" fill="#ffffff" opacity="0.08"/><circle cx="1.6" cy="727.5" r="130.6" fill="#ffffff" opacity="0.06"/><circle cx="483.3" cy="517.4" r="150" fill="#ffffff" opacity="0.13"/><circle cx="46.4" cy="521.9" r="119.3" fill="#ffffff" opacity="0.08"/><circle cx="628.5" cy="721.7" r="134.4" fill="#ffffff" opacity="0.13"/><rect y="860" width="800" height="140" fill="#d8c9c1" opacity="0.4"/><ellipse cx="400" cy="900.6" rx="264" ry="30.8" fill="#3a2f28" opacity="0.16"/><use href="#s2" transform="translate(363 642.5) rotate(-172.8) scale(0.907)" opacity="0.91"/><use href="#s3" transform="translate(301.2 600.3) rotate(-162) scale(0.824)" opacity="0.94"/><use href="#s2" transform="translate(207.3 575.6) rotate(-141.2) scale(0.677)" opacity="0.85"/><use href="#s3" transform="translate(184.7 557.9) rotate(-108.2) scale(0.624)" opacity="0.95"/><use href="#s2" transform="translate(156.3 508.7) rotate(-102.2) scale(0.640)" opacity="0.98"/><use href="#s3" transform="translate(170.9 450.4) rotate(-71.2) scale(0.746)" opacity="0.91"/><use href="#s2" transform="translate(186.8 374.5) rotate(-48.7) scale(0.780)" opacity="0.89"/><use href="#s3" transform="translate(251 350.8) rotate(-38.9) scale(0.687)" opacity="0.90"/><use href="#s2" transform="translate(278.9 312.1) rotate(-21.9) scale(0.723)" opacity="0.90"/><use href="#s3" transform="translate(374.2 304.2) rotate(-7.1) scale(0.815)" opacity="0.89"/><use href="#s2" transform="translate(419.7 291.4) rotate(3.4) scale(0.765)" opacity="0.94"/><use href="#s3" transform="translate(497.6 335.6) rotate(17.4) scale(0.763)" opacity="0.96"/><use href="#s2" transform="translate(584.5 363.6) rotate(60.9) scale(0.714)" opacity="0.97"/><use href="#s3" transform="translate(595.9 400.9) rotate(59.9) scale(0.702)" opacity="0.97"/><use href="#s2" transform="translate(629.4 438.4) rotate(65.6) scale(0.647)" opacity="0.86"/><use href="#s3" transform="translate(655.7 509.7) rotate(96.6) scale(0.662)" opacity="0.90"/><use href="#s2" transform="translate(632.9 541.2) rotate(111.2) scale(0.903)" opacity="0.90"/><use href="#s3" transform="translate(569.1 605.3) rotate(131.2) scale(0.754)" opacity="1.00"/><use href="#s2" transform="translate(493.5 615.2) rotate(160.4) scale(0.643)" opacity="0.93"/><use href="#s3" transform="translate(451.7 626.1) rotate(156.5) scale(0.901)" opacity="0.90"/><ellipse cx="400" cy="494.5" rx="172.8" ry="122.5" fill="#4c644a" opacity="0.32" filter="url(#f5)"/><use href="#s3" transform="translate(435.4 430) rotate(291) scale(0.469)" opacity="0.85"/><use href="#s3" transform="translate(458.7 349.9) rotate(224.9) scale(0.440)" opacity="0.85"/><use href="#s3" transform="translate(200.2 455.3) rotate(181.7) scale(0.551)" opacity="0.85"/><use href="#s3" transform="translate(399.1 625.4) rotate(78.8) scale(0.609)" opacity="0.85"/><use href="#s3" transform="translate(215.7 546.8) rotate(266.8) scale(0.486)" opacity="0.85"/><use href="#s3" transform="translate(524.4 441.6) rotate(56.7) scale(0.583)" opacity="0.85"/><use href="#s3" transform="translate(602.1 453.7) rotate(117.3) scale(0.403)" opacity="0.85"/><use href="#s3" transform="translate(397.4 353.7) rotate(10.3) scale(0.462)" opacity="0.85"/><use href="#s3" transform="translate(308.9 489.8) rotate(255.5) scale(0.585)" opacity="0.85"/><use href="#s3" transform="translate(419 624.6) rotate(201.3) scale(0.592)" opacity="0.85"/><use href="#s3" transform="translate(287.2 399.8) rotate(35) scale(0.457)" opacity="0.85"/><use href="#s3" transform="translate(194 502.6) rotate(307.2) scale(0.428)" opacity="0.85"/><use href="#s3" transform="translate(388.2 338.8) rotate(234.3) scale(0.583)" opacity="0.85"/><use href="#s3" transform="translate(517.8 544.2) rotate(186.7) scale(0.493)" opacity="0.85"/><use href="#s3" transform="translate(203.7 472.2) rotate(293) scale(0.402)" opacity="0.85"/><use href="#s3" transform="translate(492.5 503.7) rotate(10.5) scale(0.527)" opacity="0.85"/><use href="#s23" transform="translate(326 320) rotate(71.5) scale(0.914)"/><use href="#s25" transform="translate(382.5 321.9) rotate(104.9) scale(0.518)"/><use href="#s24" transform="translate(373.7 352.8) rotate(311.1) scale(0.511)"/><use href="#s24" transform="translate(490.2 352.8) rotate(286.4) scale(0.530)"/><use href="#s6" transform="translate(549 353.9) rotate(241.8) scale(0.929)"/><use href="#s13" transform="translate(316 360.2) rotate(289.1) scale(0.917)"/><use href="#s23" transform="translate(518.9 364.2) rotate(39.3) scale(0.945)"/><use href="#s24" transform="translate(270.4 373.7) rotate(171.1) scale(0.446)"/><use href="#s24" transform="translate(426.5 375.3) rotate(62.5) scale(0.445)"/><use href="#s23" transform="translate(433.9 376.6) rotate(16.5) scale(0.880)"/><use href="#s6" transform="translate(493.6 384.2) rotate(188.7) scale(0.980)"/><use href="#s25" transform="translate(340.6 396.6) rotate(110.3) scale(0.496)"/><use href="#s6" transform="translate(437.7 399.8) rotate(126.7) scale(0.986)"/><use href="#s24" transform="translate(290 403.2) rotate(118.9) scale(0.444)"/><use href="#s6" transform="translate(170.1 414.4) rotate(297.4) scale(0.930)"/><use href="#s25" transform="translate(203.7 418.5) rotate(37.8) scale(0.412)"/><use href="#s25" transform="translate(415.8 421.3) rotate(52.5) scale(0.524)"/><use href="#s23" transform="translate(229.5 442) rotate(249.9) scale(0.891)"/><use href="#s24" transform="translate(549.4 443.7) rotate(157.6) scale(0.471)"/><use href="#s25" transform="translate(490 448.3) rotate(302) scale(0.465)"/><use href="#s25" transform="translate(318.5 462.1) rotate(272.9) scale(0.573)"/><use href="#s25" transform="translate(428.5 473.1) rotate(167.1) scale(0.546)"/><use href="#s6" transform="translate(442.1 474.4) rotate(184.6) scale(1.060)"/><use href="#s23" transform="translate(457 477.7) rotate(5.8) scale(1.066)"/><use href="#s6" transform="translate(263.2 486.8) rotate(225.1) scale(1.170)"/><use href="#s24" transform="translate(363.1 494) rotate(135) scale(0.544)"/><use href="#s13" transform="translate(598.8 499.7) rotate(124.7) scale(1.029)"/><use href="#s13" transform="translate(331.9 502.1) rotate(10.3) scale(1.115)"/><use href="#s23" transform="translate(317.3 505.5) rotate(40) scale(0.945)"/><use href="#s25" transform="translate(457.8 507.2) rotate(299.6) scale(0.510)"/><use href="#s25" transform="translate(229.8 510) rotate(77.7) scale(0.521)"/><use href="#s25" transform="translate(591.2 513.7) rotate(234.2) scale(0.443)"/><use href="#s24" transform="translate(499.1 518.4) rotate(2.5) scale(0.468)"/><use href="#s25" transform="translate(557.2 528.8) rotate(207.1) scale(0.450)"/><use href="#s25" transform="translate(228.3 531.8) rotate(207.4) scale(0.493)"/><use href="#s14" transform="translate(517.4 533.1) rotate(189.7) scale(0.884)"/><use href="#s25" transform="translate(305.3 534.4) rotate(98.3) scale(0.491)"/><use href="#s24" transform="translate(376.7 546) rotate(172.7) scale(0.470)"/><use href="#s6" transform="translate(455.8 549.3) rotate(85.4) scale(1.042)"/><use href="#s6" transform="translate(258.8 558.7) rotate(119.2) scale(0.980)"/><use href="#s25" transform="translate(423.6 568.5) rotate(177) scale(0.476)"/><use href="#s13" transform="translate(393.5 582.7) rotate(151.4) scale(1.074)"/><use href="#s24" transform="translate(351.3 586.8) rotate(229.7) scale(0.452)"/><use href="#s24" transform="translate(512.9 590.1) rotate(155.6) scale(0.507)"/><use href="#s13" transform="translate(515.5 596.4) rotate(324.6) scale(1.029)"/><use href="#s24" transform="translate(395.3 607.4) rotate(177.7) scale(0.452)"/><use href="#s23" transform="translate(382.4 627.9) rotate(69.2) scale(0.888)"/><use href="#s2" transform="translate(226.2 552.4) rotate(-140) scale(0.512)" opacity="0.90"/><use href="#s2" transform="translate(184.2 432.9) rotate(-89.6) scale(0.515)" opacity="0.90"/><use href="#s2" transform="translate(282.1 344) rotate(-51.1) scale(0.512)" opacity="0.90"/><use href="#s2" transform="translate(456.9 347.5) rotate(29.2) scale(0.570)" opacity="0.90"/><use href="#s2" transform="translate(592.1 436.3) rotate(92.8) scale(0.442)" opacity="0.90"/><use href="#s2" transform="translate(566.4 546.2) rotate(132.3) scale(0.546)" opacity="0.90"/><path d="M200 659.8 L220 895 Q400 925.8 580 895 L600 659.8 Z" fill="url(#g26)"/><ellipse cx="400" cy="659.8" rx="200" ry="38.5" fill="#f5ece3"/><ellipse cx="400" cy="659.8" rx="180" ry="31.4" fill="#c2b3a5"/><path d="M209 788.6 L591 788.6 L588 833.4 L212 833.4 Z" fill="#c9a08f" opacity="0.95"/><path d="M400 811 C320 766.2 296 844.6 400 811 Z" fill="#d2afa1" stroke="#a18072" stroke-width="1"/><path d="M400 811 C480 766.2 504 844.6 400 811 Z" fill="#d2afa1" stroke="#a18072" stroke-width="1"/><circle cx="400" cy="811" r="14" fill="#b18d7e"/></svg>