<svg xmlns="http://www.w3.org/2000/svg" xmlns:xlink="http://www.w3.org/1999/xlink" viewBox="0 0 800 1000" width="800" height="1000" role="img" aria-label="Golden Hour — Nested Blooms"><title>Golden Hour — Nested Blooms</title><defs><radialGradient id="g1" cx="50%" cy="38%" r="72%"><stop offset="0" stop-color="#fdf6e4"/><stop offset="1" stop-color="#f3e3bd"/></radialGradient><g id="s2"><path d="M0 0 C5 -30 -5 -60 0 -90" fill="none" stroke="#586f31" stroke-width="3.5"/><ellipse cx="-12.8" cy="-15" rx="15" ry="12.3" fill="#6e8b3d" opacity="0.95"/><ellipse cx="12.8" cy="-15" rx="15" ry="12.3" fill="#6e8b3d" opacity="0.95"/><ellipse cx="-11.3" cy="-31" rx="13.2" ry="10.9" fill="#779249" opacity="0.95"/><ellipse cx="11.3" cy="-31" rx="13.2" ry="10.9" fill="#779249" opacity="0.95"/><ellipse cx="-9.8" cy="-47" rx="11.5" ry="9.4" fill="#7f9954" opacity="0.95"/><ellipse cx="9.8" cy="-47" rx="11.5" ry="9.4" fill="#7f9954" opacity="0.95"/><ellipse cx="-8.3" cy="-63" rx="9.7" ry="8" fill="#88a060" opacity="0.95"/><ellipse cx="8.3" cy="-63" rx="9.7" ry="8" fill="#88a060" opacity="0.95"/><ellipse cx="-6.8" cy="-79" rx="8" ry="6.6" fill="#91a76c" opacity="0.95"/><ellipse cx="6.8" cy="-79" rx="8" ry="6.6" fill="#91a76c" opacity="0.95"/></g><linearGradient id="g4" x1="0" y1="0" x2="0" y2="1"><stop offset="0" stop-color="#7e9458"/><stop offset="1" stop-color="#4f642c"/></linearGradient><g id="s3"><path d="M0 0 C-21 -30 -15 -67.5 0 -87.5 C15 -67.5 21 -30 0 0 Z" fill="url(#g4)"/><path d="M0 -4 L0 -80" fill="none" stroke="#475a27" stroke-width="2.2" opacity="0.55"/></g><filter id="f5" x="-30%" y="-30%" width="160%" height="160%"><feGaussianBlur stdDeviation="24.4"/></filter><path id="p7" d="M0 0 C-8.5 -12.5 -8.5 -36 -1.5 -50 C8.5 -36 8.5 -12.5 0 0 Z"/><path id="p8" d="M0 0 C-7 -9.5 -7 -27.4 -1.5 -38 C7 -27.4 7 -9.5 0 0 Z"/><radialGradient id="g9" cx="45%" cy="35%" r="72%"><stop offset="0" stop-color="#6b4a22"/><stop offset="1" stop-color="#33210f"/></radialGradient><g id="s6"><use href="#p7" fill="#f3bc38" stroke="#996d0d" stroke-width="0.5" transform="rotate(0)"/><use href="#p7" fill="#f3bc38" stroke="#996d0d" stroke-width="0.5" transform="rotate(22.5)"/><use href="#p7" fill="#f3bc38" stroke="#996d0d" stroke-width="0.5" transform="rotate(45)"/><use href="#p7" fill="#f3bc38" stroke="#996d0d" stroke-width="0.5" transform="rotate(67.5)"/><use href="#p7" fill="#f3bc38" stroke="#996d0d" stroke-width="0.5" transform="rotate(90)"/><use href="#p7" fill="#f3bc38" stroke="#996d0d" stroke-width="0.5" transform="rotate(112.5)"/><use href="#p7" fill="#f3bc38" stroke="#996d0d" stroke-width="0.5" transform="rotate(135)"/><use href="#p7" fill="#f3bc38" stroke="#996d0d" stroke-width="0.5" transform="rotate(157.5)"/><use href="#p7" fill="#f3bc38" stroke="#996d0d" stroke-width="0.5" transform="rotate(180)"/><use href="#p7" fill="#f3bc38" stroke="#996d0d" stroke-width="0.5" transform="rotate(202.5)"/><use href="#p7" fill="#f3bc38" stroke="#996d0d" stroke-width="0.5" transform="rotate(225)"/><use href="#p7" fill="#f3bc38" stroke="#996d0d" stroke-width="0.5" transform="rotate(247.5)"/><use href="#p7" fill="#f3bc38" stroke="#996d0d" stroke-width="0.5" transform="rotate(270)"/><use href="#p7" fill="#f3bc38" stroke="#996d0d" stroke-width="0.5" transform="rotate(292.5)"/><use href="#p7" fill="#f3bc38" stroke="#996d0d" stroke-width="0.5" transform="rotate(315)"/><use href="#p7" fill="#f3bc38" stroke="#996d0d" stroke-width="0.5" transform="rotate(337.5)"/><use href="#p8" fill="#e8ad21" stroke="#996d0d" stroke-width="0.5" transform="rotate(12)"/><use href="#p8" fill="#e8ad21" stroke="#996d0d" stroke-width="0.5" transform="rotate(37.7)"/><use href="#p8" fill="#e8ad21" stroke="#996d0d" stroke-width="0.5" transform="rotate(63.4)"/><use href="#p8" fill="#e8ad21" stroke="#996d0d" stroke-width="0.5" transform="rotate(89.1)"/><use href="#p8" fill="#e8ad21" stroke="#996d0d" stroke-width="0.5" transform="rotate(114.9)"/><use href="#p8" fill="#e8ad21" stroke="#996d0d" stroke-width="0.5" transform="rotate(140.6)"/><use href="#p8" fill="#e8ad21" stroke="#996d0d" stroke-width="0.5" transform="rotate(166.3)"/><use href="#p8" fill="#e8ad21" stroke="#996d0d" stroke-width="0.5" transform="rotate(192)"/><use href="#p8" fill="#e8ad21" stroke="#996d0d" stroke-width="0.5" transform="rotate(217.7)"/><use href="#p8" fill="#e8ad21" stroke="#996d0d" stroke-width="0.5" transform="rotate(243.4)"/><use href="#p8" fill="#e8ad21" stroke="#996d0d" stroke-width="0.5" transform="rotate(269.1)"/><use href="#p8" fill="#e8ad21" stroke="#996d0d" stroke-width="0.5" transform="rotate(294.9)"/><use href="#p8" fill="#e8ad21" stroke="#996d0d" stroke-width="0.5" transform="rotate(320.6)"/><use href="#p8" fill="#e8ad21" stroke="#996d0d" stroke-width="0.5" transform="rotate(346.3)"/><circle r="21" fill="url(#g9)"/><circle cx="2.4" cy="0" r="2.2" fill="#8a6330" opacity="0.75"/><circle cx="-3.1" cy="2.8" r="2.2" fill="#8a6330" opacity="0.75"/><circle cx="0.5" cy="-5.4" r="2.2" fill="#8a6330" opacity="0.75"/><circle cx="3.9" cy="5.1" r="2.2" fill="#8a6330" opacity="0.75"/><circle cx="-7.2" cy="-1.3" r="2.2" fill="#8a6330" opacity="0.75"/><circle cx="6.8" cy="-4.3" r="2.2" fill="#8a6330" opacity="0.75"/><circle cx="-2.3" cy="8.4" r="2.2" fill="#8a6330" opacity="0.75"/><circle cx="-4.3" cy="-8.3" r="2.2" fill="#8a6330" opacity="0.75"/><circle cx="9.4" cy="3.4" r="2.2" fill="#8a6330" opacity="0.75"/><circle cx="-9.8" cy="4" r="2.2" fill="#8a6330" opacity="0.75"/><circle cx="4.7" cy="-10.1" r="2.2" fill="#8a6330" opacity="0.75"/><circle cx="3.5" cy="11.1" r="2.2" fill="#8a6330" opacity="0.75"/><circle cx="-10.5" cy="-6.1" r="2.2" fill="#8a6330" opacity="0.75"/><circle cx="12.3" cy="-2.7" r="2.2" fill="#8a6330" opacity="0.75"/><circle cx="-7.5" cy="10.7" r="2.2" fill="#8a6330" opacity="0.75"/><circle cx="-1.8" cy="-13.4" r="2.2" fill="#8a6330" opacity="0.75"/><circle cx="10.7" cy="9" r="2.2" fill="#8a6330" opacity="0.75"/><circle cx="-14.3" cy="0.6" r="2.2" fill="#8a6330" opacity="0.75"/><circle cx="10.4" cy="-10.4" r="2.2" fill="#8a6330" opacity="0.75"/><circle cx="-0.7" cy="15.1" r="2.2" fill="#8a6330" opacity="0.75"/><circle cx="-10" cy="-11.9" r="2.2" fill="#8a6330" opacity="0.75"/><circle cx="15.8" cy="2.1" r="2.2" fill="#8a6330" opacity="0.75"/><circle cx="-13.3" cy="9.3" r="2.2" fill="#8a6330" opacity="0.75"/><circle cx="3.6" cy="-16.2" r="2.2" fill="#8a6330" opacity="0.75"/><circle cx="8.5" cy="14.7" r="2.2" fill="#8a6330" opacity="0.75"/><circle cx="-16.5" cy="-5.2" r="2.2" fill="#8a6330" opacity="0.75"/><circle cx="16" cy="-7.5" r="2.2" fill="#8a6330" opacity="0.75"/><circle cx="-6.9" cy="16.6" r="2.2" fill="#8a6330" opacity="0.75"/><circle cx="-6.3" cy="-17.2" r="2.2" fill="#8a6330" opacity="0.75"/><circle cx="16.5" cy="8.6" r="2.2" fill="#8a6330" opacity="0.75"/><circle cx="-18.3" cy="4.9" r="2.2" fill="#8a6330" opacity="0.75"/><circle cx="10.3" cy="-16.2" r="2.2" fill="#8a6330" opacity="0.75"/><circle cx="3.4" cy="19.3" r="2.2" fill="#8a6330" opacity="0.75"/><circle cx="-15.7" cy="-12.1" r="2.2" fill="#8a6330" opacity="0.75"/></g><g id="s10"><use href="#p7" fill="#f3bc38" stroke="#996d0d" stroke-width="0.5" transform="rotate(0)"/><use href="#p7" fill="#f3bc38" stroke="#996d0d" stroke-width="0.5" transform="rotate(22.5)"/><use href="#p7" fill="#f3bc38" stroke="#996d0d" stroke-width="0.5" transform="rotate(45)"/><use href="#p7" fill="#f3bc38" stroke="#996d0d" stroke-width="0.5" transform="rotate(67.5)"/><use href="#p7" fill="#f3bc38" stroke="#996d0d" stroke-width="0.5" transform="rotate(90)"/><use href="#p7" fill="#f3bc38" stroke="#996d0d" stroke-width="0.5" transform="rotate(112.5)"/><use href="#p7" fill="#f3bc38" stroke="#996d0d" stroke-width="0.5" transform="rotate(135)"/><use href="#p7" fill="#f3bc38" stroke="#996d0d" stroke-width="0.5" transform="rotate(157.5)"/><use href="#p7" fill="#f3bc38" stroke="#996d0d" stroke-width="0.5" transform="rotate(180)"/><use href="#p7" fill="#f3bc38" stroke="#996d0d" stroke-width="0.5" transform="rotate(202.5)"/><use href="#p7" fill="#f3bc38" stroke="#996d0d" stroke-width="0.5" transform="rotate(225)"/><use href="#p7" fill="#f3bc38" stroke="#996d0d" stroke-width="0.5" transform="rotate(247.5)"/><use href="#p7" fill="#f3bc38" stroke="#996d0d" stroke-width="0.5" transform="rotate(270)"/><use href="#p7" fill="#f3bc38" stroke="#996d0d" stroke-width="0.5" transform="rotate(292.5)"/><use href="#p7" fill="#f3bc38" stroke="#996d0d" stroke-width="0.5" transform="rotate(315)"/><use href="#p7" fill="#f3bc38" stroke="#996d0d" stroke-width="0.5" transform="rotate(337.5)"/><use href="#p8" fill="#e8ad21" stroke="#996d0d" stroke-width="0.5" transform="rotate(12)"/><use href="#p8" fill="#e8ad21" stroke="#996d0d" stroke-width="0.5" transform="rotate(37.7)"/><use href="#p8" fill="#e8ad21" stroke="#996d0d" stroke-width="0.5" transform="rotate(63.4)"/><use href="#p8" fill="#e8ad21" stroke="#996d0d" stroke-width="0.5" transform="rotate(89.1)"/><use href="#p8" fill="#e8ad21" stroke="#996d0d" stroke-width="0.5" transform="rotate(114.9)"/><use href="#p8" fill="#e8ad21" stroke="#996d0d" stroke-width="0.5" transform="rotate(140.6)"/><use href="#p8" fill="#e8ad21" stroke="#996d0d" stroke-width="0.5" transform="rotate(166.3)"/><use href="#p8" fill="#e8ad21" stroke="#996d0d" stroke-width="0.5" transform="rotate(192)"/><use href="#p8" fill="#e8ad21" stroke="#996d0d" stroke-width="0.5" transform="rotate(217.7)"/><use href="#p8" fill="#e8ad21" stroke="#996d0d" stroke-width="0.5" transform="rotate(243.4)"/><use href="#p8" fill="#e8ad21" stroke="#996d0d" stroke-width="0.5" transform="rotate(269.1)"/><use href="#p8" fill="#e8ad21" stroke="#996d0d" stroke-width="0.5" transform="rotate(294.9)"/><use href="#p8" fill="#e8ad21" stroke="#996d0d" stroke-width="0.5" transform="rotate(320.6)"/><use href="#p8" fill="#e8ad21" stroke="#996d0d" stroke-width="0.5" transform="rotate(346.3)"/><circle r="21" fill="url(#g9)"/><circle cx="2.4" cy="0" r="2.2" fill="#8a6330" opacity="0.75"/><circle cx="-3.1" cy="2.8" r="2.2" fill="#8a6330" opacity="0.75"/><circle cx="0.5" cy="-5.4" r="2.2" fill="#8a6330" opacity="0.75"/><circle cx="3.9" cy="5.1" r="2.2" fill="#8a6330" opacity="0.75"/><circle cx="-7.2" cy="-1.3" r="2.2" fill="#8a6330" opacity="0.75"/><circle cx="6.8" cy="-4.3" r="2.2" fill="#8a6330" opacity="0.75"/><circle cx="-2.3" cy="8.4" r="2.2" fill="#8a6330" opacity="0.75"/><circle cx="-4.3" cy="-8.3" r="2.2" fill="#8a6330" opacity="0.75"/><circle cx="9.4" cy="3.4" r="2.2" fill="#8a6330" opacity="0.75"/><circle cx="-9.8" cy="4" r="2.2" fill="#8a6330" opacity="0.75"/><circle cx="4.7" cy="-10.1" r="2.2" fill="#8a6330" opacity="0.75"/><circle cx="3.5" cy="11.1" r="2.2" fill="#8a6330" opacity="0.75"/><circle cx="-10.5" cy="-6.1" r="2.2" fill="#8a6330" opacity="0.75"/><circle cx="12.3" cy="-2.7" r="2.2" fill="#8a6330" opacity="0.75"/><circle cx="-7.5" cy="10.7" r="2.2" fill="#8a6330" opacity="0.75"/><circle cx="-1.8" cy="-13.4" r="2.2" fill="#8a6330" opacity="0.75"/><circle cx="10.7" cy="9" r="2.2" fill="#8a6330" opacity="0.75"/><circle cx="-14.3" cy="0.6" r="2.2" fill="#8a6330" opacity="0.75"/><circle cx="10.4" cy="-10.4" r="2.2" fill="#8a6330" opacity="0.75"/><circle cx="-0.7" cy="15.1" r="2.2" fill="#8a6330" opacity="0.75"/><circle cx="-10" cy="-11.9" r="2.2" fill="#8a6330" opacity="0.75"/><circle cx="15.8" cy="2.1" r="2.2" fill="#8a6330" opacity="0.75"/><circle cx="-13.3" cy="9.3" r="2.2" fill="#8a6330" opacity="0.75"/><circle cx="3.6" cy="-16.2" r="2.2" fill="#8a6330" opacity="0.75"/><circle cx="8.5" cy="14.7" r="2.2" fill="#8a6330" opacity="0.75"/><circle cx="-16.5" cy="-5.2" r="2.2" fill="#8a6330" opacity="0.75"/><circle cx="16" cy="-7.5" r="2.2" fill="#8a6330" opacity="0.75"/><circle cx="-6.9" cy="16.6" r="2.2" fill="#8a6330" opacity="0.75"/><circle cx="-6.3" cy="-17.2" r="2.2" fill="#8a6330" opacity="0.75"/><circle cx="16.5" cy="8.6" r="2.2" fill="#8a6330" opacity="0.75"/><circle cx="-18.3" cy="4.9" r="2.2" fill="#8a6330" opacity="0.75"/><circle cx="10.3" cy="-16.2" r="2.2" fill="#8a6330" opacity="0.75"/><circle cx="3.4" cy="19.3" r="2.2" fill="#8a6330" opacity="0.75"/><circle cx="-15.7" cy="-12.1" r="2.2" fill="#8a6330" opacity="0.75"/></g><radialGradient id="g12" cx="45%" cy="35%" r="72%"><stop offset="0" stop-color="#eeae63"/><stop offset="1" stop-color="#d38b36"/></radialGradient><path id="p13" d="M0 0 C-23 -11 -25.8 -33 -11.5 -46.5 C-4.1 -53 4.1 -53 11.5 -46.5 C25.8 -33 23 -11 0 0 Z"/><radialGradient id="g14" cx="45%" cy="35%" r="72%"><stop offset="0" stop-color="#e19e56"/><stop offset="1" stop-color="#c37928"/></radialGradient><path id="p15" d="M0 0 C-18.5 -8.4 -20.7 -25.1 -9.2 -35.3 C-3.3 -40.3 3.3 -40.3 9.2 -35.3 C20.7 -25.1 18.5 -8.4 0 0 Z"/><path id="p16" d="M0 0 C-14.5 -6.1 -16.2 -18.2 -7.2 -25.6 C-2.6 -29.2 2.6 -29.2 7.2 -25.6 C16.2 -18.2 14.5 -6.1 0 0 Z"/><path id="p17" d="M0 0 C-11 -4.1 -12.3 -12.2 -5.5 -17.2 C-2 -19.6 2 -19.6 5.5 -17.2 C12.3 -12.2 11 -4.1 0 0 Z"/><g id="s11"><circle r="25" fill="#945b1e"/><use href="#p13" fill="url(#g12)" stroke="#ba9063" stroke-width="0.6" stroke-opacity="0.5" transform="rotate(16.7)" opacity="0.98"/><use href="#p13" fill="url(#g12)" stroke="#ba9063" stroke-width="0.6" stroke-opacity="0.5" transform="rotate(61.7)" opacity="0.98"/><use href="#p13" fill="url(#g12)" stroke="#ba9063" stroke-width="0.6" stroke-opacity="0.5" transform="rotate(106.7)" opacity="0.98"/><use href="#p13" fill="url(#g12)" stroke="#ba9063" stroke-width="0.6" stroke-opacity="0.5" transform="rotate(151.7)" opacity="0.98"/><use href="#p13" fill="url(#g12)" stroke="#ba9063" stroke-width="0.6" stroke-opacity="0.5" transform="rotate(196.7)" opacity="0.98"/><use href="#p13" fill="url(#g12)" stroke="#ba9063" stroke-width="0.6" stroke-opacity="0.5" transform="rotate(241.7)" opacity="0.98"/><use href="#p13" fill="url(#g12)" stroke="#ba9063" stroke-width="0.6" stroke-opacity="0.5" transform="rotate(286.7)" opacity="0.98"/><use href="#p13" fill="url(#g12)" stroke="#ba9063" stroke-width="0.6" stroke-opacity="0.5" transform="rotate(331.7)" opacity="0.98"/><use href="#p15" fill="url(#g14)" stroke="#ba9063" stroke-width="0.6" stroke-opacity="0.5" transform="rotate(40.7)" opacity="0.98"/><use href="#p15" fill="url(#g14)" stroke="#ba9063" stroke-width="0.6" stroke-opacity="0.5" transform="rotate(92.1)" opacity="0.98"/><use href="#p15" fill="url(#g14)" stroke="#ba9063" stroke-width="0.6" stroke-opacity="0.5" transform="rotate(143.6)" opacity="0.98"/><use href="#p15" fill="url(#g14)" stroke="#ba9063" stroke-width="0.6" stroke-opacity="0.5" transform="rotate(195)" opacity="0.98"/><use href="#p15" fill="url(#g14)" stroke="#ba9063" stroke-width="0.6" stroke-opacity="0.5" transform="rotate(246.4)" opacity="0.98"/><use href="#p15" fill="url(#g14)" stroke="#ba9063" stroke-width="0.6" stroke-opacity="0.5" transform="rotate(297.8)" opacity="0.98"/><use href="#p15" fill="url(#g14)" stroke="#ba9063" stroke-width="0.6" stroke-opacity="0.5" transform="rotate(349.3)" opacity="0.98"/><use href="#p16" fill="url(#g12)" stroke="#ba9063" stroke-width="0.6" stroke-opacity="0.5" transform="rotate(64.7)" opacity="0.98"/><use href="#p16" fill="url(#g12)" stroke="#ba9063" stroke-width="0.6" stroke-opacity="0.5" transform="rotate(124.7)" opacity="0.98"/><use href="#p16" fill="url(#g12)" stroke="#ba9063" stroke-width="0.6" stroke-opacity="0.5" transform="rotate(184.7)" opacity="0.98"/><use href="#p16" fill="url(#g12)" stroke="#ba9063" stroke-width="0.6" stroke-opacity="0.5" transform="rotate(244.7)" opacity="0.98"/><use href="#p16" fill="url(#g12)" stroke="#ba9063" stroke-width="0.6" stroke-opacity="0.5" transform="rotate(304.7)" opacity="0.98"/><use href="#p16" fill="url(#g12)" stroke="#ba9063" stroke-width="0.6" stroke-opacity="0.5" transform="rotate(364.7)" opacity="0.98"/><use href="#p17" fill="url(#g14)" stroke="#ba9063" stroke-width="0.6" stroke-opacity="0.5" transform="rotate(88.7)" opacity="0.98"/><use href="#p17" fill="url(#g14)" stroke="#ba9063" stroke-width="0.6" stroke-opacity="0.5" transform="rotate(160.7)" opacity="0.98"/><use href="#p17" fill="url(#g14)" stroke="#ba9063" stroke-width="0.6" stroke-opacity="0.5" transform="rotate(232.7)" opacity="0.98"/><use href="#p17" fill="url(#g14)" stroke="#ba9063" stroke-width="0.6" stroke-opacity="0.5" transform="rotate(304.7)" opacity="0.98"/><use href="#p17" fill="url(#g14)" stroke="#ba9063" stroke-width="0.6" stroke-opacity="0.5" transform="rotate(376.7)" opacity="0.98"/><circle r="11" fill="none" stroke="#ac7944" stroke-width="3.5" opacity="0.9"/><circle r="7" fill="none" stroke="#b6895a" stroke-width="3.5" opacity="0.9"/><circle r="3.5" fill="none" stroke="#c09970" stroke-width="3.5" opacity="0.9"/><circle r="2.2" fill="#7d4d1a"/></g><g id="s18"><circle r="25" fill="#945b1e"/><use href="#p13" fill="url(#g12)" stroke="#ba9063" stroke-width="0.6" stroke-opacity="0.5" transform="rotate(32.4)" opacity="0.98"/><use href="#p13" fill="url(#g12)" stroke="#ba9063" stroke-width="0.6" stroke-opacity="0.5" transform="rotate(77.4)" opacity="0.98"/><use href="#p13" fill="url(#g12)" stroke="#ba9063" stroke-width="0.6" stroke-opacity="0.5" transform="rotate(122.4)" opacity="0.98"/><use href="#p13" fill="url(#g12)" stroke="#ba9063" stroke-width="0.6" stroke-opacity="0.5" transform="rotate(167.4)" opacity="0.98"/><use href="#p13" fill="url(#g12)" stroke="#ba9063" stroke-width="0.6" stroke-opacity="0.5" transform="rotate(212.4)" opacity="0.98"/><use href="#p13" fill="url(#g12)" stroke="#ba9063" stroke-width="0.6" stroke-opacity="0.5" transform="rotate(257.4)" opacity="0.98"/><use href="#p13" fill="url(#g12)" stroke="#ba9063" stroke-width="0.6" stroke-opacity="0.5" transform="rotate(302.4)" opacity="0.98"/><use href="#p13" fill="url(#g12)" stroke="#ba9063" stroke-width="0.6" stroke-opacity="0.5" transform="rotate(347.4)" opacity="0.98"/><use href="#p15" fill="url(#g14)" stroke="#ba9063" stroke-width="0.6" stroke-opacity="0.5" transform="rotate(56.4)" opacity="0.98"/><use href="#p15" fill="url(#g14)" stroke="#ba9063" stroke-width="0.6" stroke-opacity="0.5" transform="rotate(107.8)" opacity="0.98"/><use href="#p15" fill="url(#g14)" stroke="#ba9063" stroke-width="0.6" stroke-opacity="0.5" transform="rotate(159.3)" opacity="0.98"/><use href="#p15" fill="url(#g14)" stroke="#ba9063" stroke-width="0.6" stroke-opacity="0.5" transform="rotate(210.7)" opacity="0.98"/><use href="#p15" fill="url(#g14)" stroke="#ba9063" stroke-width="0.6" stroke-opacity="0.5" transform="rotate(262.1)" opacity="0.98"/><use href="#p15" fill="url(#g14)" stroke="#ba9063" stroke-width="0.6" stroke-opacity="0.5" transform="rotate(313.5)" opacity="0.98"/><use href="#p15" fill="url(#g14)" stroke="#ba9063" stroke-width="0.6" stroke-opacity="0.5" transform="rotate(365)" opacity="0.98"/><use href="#p16" fill="url(#g12)" stroke="#ba9063" stroke-width="0.6" stroke-opacity="0.5" transform="rotate(80.4)" opacity="0.98"/><use href="#p16" fill="url(#g12)" stroke="#ba9063" stroke-width="0.6" stroke-opacity="0.5" transform="rotate(140.4)" opacity="0.98"/><use href="#p16" fill="url(#g12)" stroke="#ba9063" stroke-width="0.6" stroke-opacity="0.5" transform="rotate(200.4)" opacity="0.98"/><use href="#p16" fill="url(#g12)" stroke="#ba9063" stroke-width="0.6" stroke-opacity="0.5" transform="rotate(260.4)" opacity="0.98"/><use href="#p16" fill="url(#g12)" stroke="#ba9063" stroke-width="0.6" stroke-opacity="0.5" transform="rotate(320.4)" opacity="0.98"/><use href="#p16" fill="url(#g12)" stroke="#ba9063" stroke-width="0.6" stroke-opacity="0.5" transform="rotate(380.4)" opacity="0.98"/><use href="#p17" fill="url(#g14)" stroke="#ba9063" stroke-width="0.6" stroke-opacity="0.5" transform="rotate(104.4)" opacity="0.98"/><use href="#p17" fill="url(#g14)" stroke="#ba9063" stroke-width="0.6" stroke-opacity="0.5" transform="rotate(176.4)" opacity="0.98"/><use href="#p17" fill="url(#g14)" stroke="#ba9063" stroke-width="0.6" stroke-opacity="0.5" transform="rotate(248.4)" opacity="0.98"/><use href="#p17" fill="url(#g14)" stroke="#ba9063" stroke-width="0.6" stroke-opacity="0.5" transform="rotate(320.4)" opacity="0.98"/><use href="#p17" fill="url(#g14)" stroke="#ba9063" stroke-width="0.6" stroke-opacity="0.5" transform="rotate(392.4)" opacity="0.98"/><circle r="11" fill="none" stroke="#ac7944" stroke-width="3.5" opacity="0.9"/><circle r="7" fill="none" stroke="#b6895a" stroke-width="3.5" opacity="0.9"/><circle r="3.5" fill="none" stroke="#c09970" stroke-width="3.5" opacity="0.9"/><circle r="2.2" fill="#7d4d1a"/></g><g id="s19"><circle cx="-16.3" cy="36.1" r="12.4" fill="#f8e59a" opacity="0.95"/><circle cx="-16.3" cy="36.1" r="4.4" fill="#bbad75" opacity="0.6"/><circle cx="-18.6" cy="-14.4" r="14.3" fill="#f8e59a" opacity="0.95"/><circle cx="-18.6" cy="-14.4" r="5" fill="#bbad75" opacity="0.6"/><circle cx="38.6" cy="11.8" r="9.4" fill="#f8e59a" opacity="0.95"/><circle cx="38.6" cy="11.8" r="3.3" fill="#bbad75" opacity="0.6"/><circle cx="-5.2" cy="-5.9" r="14" fill="#f8e59a" opacity="0.95"/><circle cx="-5.2" cy="-5.9" r="4.9" fill="#bbad75" opacity="0.6"/><circle cx="-11.5" cy="-23" r="8.2" fill="#f8e59a" opacity="0.95"/><circle cx="-11.5" cy="-23" r="2.9" fill="#bbad75" opacity="0.6"/><circle cx="-24.7" cy="28" r="11.6" fill="#f8e59a" opacity="0.95"/><circle cx="-24.7" cy="28" r="4.1" fill="#bbad75" opacity="0.6"/><circle cx="-3.7" cy="-12.4" r="11.3" fill="#f8e59a" opacity="0.95"/><circle cx="-3.7" cy="-12.4" r="4" fill="#bbad75" opacity="0.6"/></g><g id="s20"><circle cx="27.7" cy="30.7" r="12.5" fill="#f8e59a" opacity="0.95"/><circle cx="27.7" cy="30.7" r="4.4" fill="#bbad75" opacity="0.6"/><circle cx="-24.5" cy="14.3" r="8.2" fill="#f8e59a" opacity="0.95"/><circle cx="-24.5" cy="14.3" r="2.9" fill="#bbad75" opacity="0.6"/><circle cx="28.7" cy="24.1" r="8.2" fill="#f8e59a" opacity="0.95"/><circle cx="28.7" cy="24.1" r="2.9" fill="#bbad75" opacity="0.6"/><circle cx="26.1" cy="-34.4" r="13.2" fill="#f8e59a" opacity="0.95"/><circle cx="26.1" cy="-34.4" r="4.6" fill="#bbad75" opacity="0.6"/><circle cx="-6.9" cy="-10.7" r="10" fill="#f8e59a" opacity="0.95"/><circle cx="-6.9" cy="-10.7" r="3.5" fill="#bbad75" opacity="0.6"/><circle cx="-10.6" cy="3" r="13.3" fill="#f8e59a" opacity="0.95"/><circle cx="-10.6" cy="3" r="4.7" fill="#bbad75" opacity="0.6"/><circle cx="26.9" cy="-19" r="15" fill="#f8e59a" opacity="0.95"/><circle cx="26.9" cy="-19" r="5.2" fill="#bbad75" opacity="0.6"/></g><linearGradient id="g21" x1="0" y1="0" x2="1" y2="0"><stop offset="0" stop-color="#e0caa8"/><stop offset="1" stop-color="#a68e65"/></linearGradient></defs><rect width="800" height="1000" fill="url(#g1)"/><circle cx="383.9" cy="521.6" r="108" fill="#ffffff" opacity="0.11"/><circle cx="793.3" cy="143.1" r="132.1" fill="#ffffff" opacity="0.06"/><circle cx="570" cy="624.2" r="70.1" fill="#ffffff" opacity="0.12"/><circle cx="547.3" cy="468.6" r="77.8" fill="#ffffff" opacity="0.10"/><circle cx="267.5" cy="471.7" r="121" fill="#ffffff" opacity="0.07"/><circle cx="183.3" cy="311.6" r="74.9" fill="#ffffff" opacity="0.09"/><circle cx="704.6" cy="418" r="145" fill="#ffffff" opacity="0.11"/><rect y="860" width="800" height="140" fill="#dbccaa" opacity="0.4"/><ellipse cx="400" cy="932" rx="253.4" ry="38.5" fill="#3a2f28" opacity="0.16"/><use href="#s2" transform="translate(362.9 614.9) rotate(-162.6) scale(0.915)" opacity="0.89"/><use href="#s3" transform="translate(284.1 569.9) rotate(-161.7) scale(0.896)" opacity="0.92"/><use href="#s2" transform="translate(210.7 539.1) rotate(-119.4) scale(0.844)" opacity="0.96"/><use href="#s3" transform="translate(165.6 494.9) rotate(-114) scale(0.805)" opacity="0.89"/><use href="#s2" transform="translate(175.8 441.2) rotate(-96.4) scale(0.935)" opacity="0.92"/><use href="#s3" transform="translate(185.9 381.3) rotate(-73) scale(0.680)" opacity="0.98"/><use href="#s2" transform="translate(180.6 318.5) rotate(-69.9) scale(0.641)" opacity="0.89"/><use href="#s3" transform="translate(230.7 279.4) rotate(-29.9) scale(0.932)" opacity="0.95"/><use href="#s2" transform="translate(296.9 244) rotate(-16.5) scale(0.797)" opacity="0.88"/><use href="#s3" transform="translate(369.5 245.4) rotate(-15.9) scale(0.778)" opacity="0.94"/><use href="#s2" transform="translate(428.5 219.4) rotate(12.3) scale(0.791)" opacity="0.90"/><use href="#s3" transform="translate(519.5 242.7) rotate(15) scale(0.665)" opacity="0.99"/><use href="#s2" transform="translate(574.1 286.6) rotate(55.5) scale(0.916)" opacity="0.93"/><use href="#s3" transform="translate(620.3 318.4) rotate(70.7) scale(0.748)" opacity="0.94"/><use href="#s2" transform="translate(626.9 395.6) rotate(77.4) scale(0.837)" opacity="0.95"/><use href="#s3" transform="translate(664.7 449) rotate(105.5) scale(0.753)" opacity="0.90"/><use href="#s2" transform="translate(615.2 481.7) rotate(119.6) scale(0.840)" opacity="0.98"/><use href="#s3" transform="translate(601.7 540.8) rotate(132.4) scale(0.814)" opacity="0.88"/><use href="#s2" transform="translate(516.7 585.8) rotate(139.9) scale(0.837)" opacity="0.91"/><use href="#s3" transform="translate(438.5 598.5) rotate(178.9) scale(0.909)" opacity="0.93"/><ellipse cx="400" cy="443" rx="175.7" ry="140" fill="#4d612b" opacity="0.32" filter="url(#f5)"/><use href="#s3" transform="translate(573.9 347.7) rotate(317.7) scale(0.597)" opacity="0.85"/><use href="#s3" transform="translate(572.9 531.3) rotate(170.6) scale(0.566)" opacity="0.85"/><use href="#s3" transform="translate(274.6 286.3) rotate(243.6) scale(0.408)" opacity="0.85"/><use href="#s3" transform="translate(197.3 327.9) rotate(167.4) scale(0.442)" opacity="0.85"/><use href="#s3" transform="translate(554.9 511.3) rotate(96.2) scale(0.463)" opacity="0.85"/><use href="#s3" transform="translate(414.1 479.8) rotate(169.4) scale(0.552)" opacity="0.85"/><use href="#s3" transform="translate(287.1 427) rotate(276.7) scale(0.535)" opacity="0.85"/><use href="#s3" transform="translate(372.5 583.4) rotate(350.9) scale(0.409)" opacity="0.85"/><use href="#s3" transform="translate(528.8 564.7) rotate(145.6) scale(0.533)" opacity="0.85"/><use href="#s3" transform="translate(295 469.7) rotate(296.5) scale(0.557)" opacity="0.85"/><use href="#s3" transform="translate(394 296.3) rotate(143.7) scale(0.541)" opacity="0.85"/><use href="#s3" transform="translate(312.3 443.2) rotate(227.9) scale(0.461)" opacity="0.85"/><use href="#s3" transform="translate(384.3 365.5) rotate(193.4) scale(0.464)" opacity="0.85"/><use href="#s3" transform="translate(405.9 522.5) rotate(353.9) scale(0.577)" opacity="0.85"/><use href="#s3" transform="translate(436.8 370.9) rotate(347.2) scale(0.486)" opacity="0.85"/><use href="#s3" transform="translate(358.1 228.1) rotate(328.8) scale(0.506)" opacity="0.85"/><use href="#s19" transform="translate(365.4 249.4) rotate(56.7) scale(0.575)"/><use href="#s10" transform="translate(368 280.8) rotate(-13.5) scale(1.617)"/><use href="#s18" transform="translate(297.8 284.9) rotate(338.5) scale(1.120)"/><use href="#s20" transform="translate(561.4 303.1) rotate(79.6) scale(0.492)"/><use href="#s19" transform="translate(366.7 304.6) rotate(317.1) scale(0.626)"/><use href="#s19" transform="translate(491.3 307.5) rotate(307.5) scale(0.550)"/><use href="#s11" transform="translate(431.2 319.3) rotate(210.6) scale(1.313)"/><use href="#s19" transform="translate(543.7 331.7) rotate(109.8) scale(0.506)"/><use href="#s11" transform="translate(546.1 335.6) rotate(261.2) scale(1.258)"/><use href="#s20" transform="translate(242.5 344.5) rotate(154.7) scale(0.609)"/><use href="#s19" transform="translate(399.4 347.6) rotate(178.6) scale(0.595)"/><use href="#s10" transform="translate(194.2 352.2) rotate(15.9) scale(1.640)"/><use href="#s20" transform="translate(501.3 365.5) rotate(62.9) scale(0.618)"/><use href="#s19" transform="translate(304.2 382.3) rotate(353.1) scale(0.609)"/><use href="#s19" transform="translate(433.4 410.2) rotate(160.1) scale(0.589)"/><use href="#s11" transform="translate(448.2 420.1) rotate(106.2) scale(1.335)"/><use href="#s6" transform="translate(478.2 421.6) rotate(-21.2) scale(1.772)"/><use href="#s20" transform="translate(534.4 425) rotate(5.4) scale(0.596)"/><use href="#s11" transform="translate(259.6 434) rotate(285.7) scale(1.148)"/><use href="#s19" transform="translate(347.9 442.7) rotate(107.1) scale(0.686)"/><use href="#s20" transform="translate(188.2 450.6) rotate(125) scale(0.520)"/><use href="#s18" transform="translate(328.7 453.6) rotate(166.2) scale(1.328)"/><use href="#s10" transform="translate(295.3 471.9) rotate(1.9) scale(1.728)"/><use href="#s20" transform="translate(460 473.5) rotate(304.7) scale(0.652)"/><use href="#s19" transform="translate(264.8 475.5) rotate(116.2) scale(0.578)"/><use href="#s11" transform="translate(584.8 495.1) rotate(325.3) scale(1.134)"/><use href="#s19" transform="translate(363.2 506.2) rotate(78.3) scale(0.530)"/><use href="#s11" transform="translate(469 511.5) rotate(228.3) scale(1.154)"/><use href="#s19" transform="translate(538.2 528.5) rotate(199) scale(0.615)"/><use href="#s11" transform="translate(235.5 529.9) rotate(9.6) scale(1.104)"/><use href="#s19" transform="translate(294.1 536) rotate(166.6) scale(0.626)"/><use href="#s10" transform="translate(528.7 538.2) rotate(-19.9) scale(1.547)"/><use href="#s19" transform="translate(469.5 543.6) rotate(350.5) scale(0.598)"/><use href="#s11" transform="translate(348.7 560.6) rotate(70.4) scale(1.177)"/><use href="#s2" transform="translate(262.6 535.5) rotate(-146.4) scale(0.503)" opacity="0.90"/><use href="#s2" transform="translate(184.5 377.7) rotate(-60.2) scale(0.557)" opacity="0.90"/><use href="#s2" transform="translate(272.8 275.1) rotate(-52.7) scale(0.422)" opacity="0.90"/><use href="#s2" transform="translate(525.6 297.7) rotate(42.7) scale(0.596)" opacity="0.90"/><use href="#s2" transform="translate(631.2 363.7) rotate(84.9) scale(0.455)" opacity="0.90"/><use href="#s2" transform="translate(524.9 572.8) rotate(138.5) scale(0.470)" opacity="0.90"/><path d="M208 575 L357.8 925 L442.2 925 L592 575 Z" fill="url(#g21)"/><line x1="281" y1="575" x2="373.8" y2="925" stroke="#aa9168" stroke-width="4.6" opacity="0.4"/><line x1="346.2" y1="575" x2="388.2" y2="925" stroke="#aa9168" stroke-width="4.6" opacity="0.4"/><line x1="409.6" y1="575" x2="402.1" y2="925" stroke="#aa9168" stroke-width="4.6" opacity="0.4"/><line x1="473" y1="575" x2="416.1" y2="925" stroke="#aa9168" stroke-width="4.6" opacity="0.4"/><line x1="534.4" y1="575" x2="429.6" y2="925" stroke="#aa9168" stroke-width="4.6" opacity="0.4"/><path d="M208 575 Q400 624 592 575 Q400 554 208 575 Z" fill="#e4d1b3"/><path d="M342.4 732.5 L457.6 732.5 L448.4 781.5 L351.6 781.5 Z" fill="#7f8f4c"/><path d="M400 753.5 C323.2 697.5 307.8 802.5 400 753.5 Z" fill="#96a36c" stroke="#63703b" stroke-width="1"/><path d="M400 760.5 Q361.6 851.5 338.6 907.5" fill="none" stroke="#859555" stroke-width="10.8" stroke-linecap="round"/><path d="M400 753.5 C476.8 697.5 492.2 802.5 400 753.5 Z" fill="#96a36c" stroke="#63703b" stroke-width="1"/><path d="M400 760.5 Q438.4 851.5 461.4 907.5" fill="none" stroke="#859555" stroke-width="10.8" stroke-linecap="round"/></svg>