<svg xmlns="http://www.w3.org/2000/svg" xmlns:xlink="http://www.w3.org/1999/xlink" viewBox="0 0 800 1000" width="800" height="1000" role="img" aria-label="Pamper &amp; Petals — Nested Blooms"><title>Pamper &amp; Petals — Nested Blooms</title><defs><radialGradient id="g1" cx="50%" cy="38%" r="72%"><stop offset="0" stop-color="#f8f4f0"/><stop offset="1" stop-color="#e9e0d8"/></radialGradient><g id="s2"><path d="M0 0 C5 -30 -5 -60 0 -90" fill="none" stroke="#576e5a" stroke-width="3.5"/><ellipse cx="-12.8" cy="-15" rx="15" ry="12.3" fill="#6d8a70" opacity="0.95"/><ellipse cx="12.8" cy="-15" rx="15" ry="12.3" fill="#6d8a70" opacity="0.95"/><ellipse cx="-11.3" cy="-31" rx="13.2" ry="10.9" fill="#769179" opacity="0.95"/><ellipse cx="11.3" cy="-31" rx="13.2" ry="10.9" fill="#769179" opacity="0.95"/><ellipse cx="-9.8" cy="-47" rx="11.5" ry="9.4" fill="#7f9881" opacity="0.95"/><ellipse cx="9.8" cy="-47" rx="11.5" ry="9.4" fill="#7f9881" opacity="0.95"/><ellipse cx="-8.3" cy="-63" rx="9.7" ry="8" fill="#879f8a" opacity="0.95"/><ellipse cx="8.3" cy="-63" rx="9.7" ry="8" fill="#879f8a" opacity="0.95"/><ellipse cx="-6.8" cy="-79" rx="8" ry="6.6" fill="#90a692" opacity="0.95"/><ellipse cx="6.8" cy="-79" rx="8" ry="6.6" fill="#90a692" opacity="0.95"/></g><linearGradient id="g4" x1="0" y1="0" x2="0" y2="1"><stop offset="0" stop-color="#7d937f"/><stop offset="1" stop-color="#4e6350"/></linearGradient><g id="s3"><path d="M0 0 C-21 -30 -15 -67.5 0 -87.5 C15 -67.5 21 -30 0 0 Z" fill="url(#g4)"/><path d="M0 -4 L0 -80" fill="none" stroke="#465948" stroke-width="2.2" opacity="0.55"/></g><filter id="f5" x="-30%" y="-30%" width="160%" height="160%"><feGaussianBlur stdDeviation="24.4"/></filter><radialGradient id="g7" cx="45%" cy="35%" r="72%"><stop offset="0" stop-color="#e6bebb"/><stop offset="1" stop-color="#ca9d99"/></radialGradient><path id="p8" d="M0 0 C-23 -11 -25.8 -33 -11.5 -46.5 C-4.1 -53 4.1 -53 11.5 -46.5 C25.8 -33 23 -11 0 0 Z"/><radialGradient id="g9" cx="45%" cy="35%" r="72%"><stop offset="0" stop-color="#d9abaa"/><stop offset="1" stop-color="#ba8786"/></radialGradient><path id="p10" d="M0 0 C-18.5 -8.4 -20.7 -25.1 -9.2 -35.3 C-3.3 -40.3 3.3 -40.3 9.2 -35.3 C20.7 -25.1 18.5 -8.4 0 0 Z"/><path id="p11" d="M0 0 C-14.5 -6.1 -16.2 -18.2 -7.2 -25.6 C-2.6 -29.2 2.6 -29.2 7.2 -25.6 C16.2 -18.2 14.5 -6.1 0 0 Z"/><path id="p12" d="M0 0 C-11 -4.1 -12.3 -12.2 -5.5 -17.2 C-2 -19.6 2 -19.6 5.5 -17.2 C12.3 -12.2 11 -4.1 0 0 Z"/><g id="s6"><circle r="25" fill="#8e6766"/><use href="#p8" fill="url(#g7)" stroke="#b59897" stroke-width="0.6" stroke-opacity="0.5" transform="rotate(16.7)" opacity="0.98"/><use href="#p8" fill="url(#g7)" stroke="#b59897" stroke-width="0.6" stroke-opacity="0.5" transform="rotate(61.7)" opacity="0.98"/><use href="#p8" fill="url(#g7)" stroke="#b59897" stroke-width="0.6" stroke-opacity="0.5" transform="rotate(106.7)" opacity="0.98"/><use href="#p8" fill="url(#g7)" stroke="#b59897" stroke-width="0.6" stroke-opacity="0.5" transform="rotate(151.7)" opacity="0.98"/><use href="#p8" fill="url(#g7)" stroke="#b59897" stroke-width="0.6" stroke-opacity="0.5" transform="rotate(196.7)" opacity="0.98"/><use href="#p8" fill="url(#g7)" stroke="#b59897" stroke-width="0.6" stroke-opacity="0.5" transform="rotate(241.7)" opacity="0.98"/><use href="#p8" fill="url(#g7)" stroke="#b59897" stroke-width="0.6" stroke-opacity="0.5" transform="rotate(286.7)" opacity="0.98"/><use href="#p8" fill="url(#g7)" stroke="#b59897" stroke-width="0.6" stroke-opacity="0.5" transform="rotate(331.7)" opacity="0.98"/><use href="#p10" fill="url(#g9)" stroke="#b59897" stroke-width="0.6" stroke-opacity="0.5" transform="rotate(40.7)" opacity="0.98"/><use href="#p10" fill="url(#g9)" stroke="#b59897" stroke-width="0.6" stroke-opacity="0.5" transform="rotate(92.1)" opacity="0.98"/><use href="#p10" fill="url(#g9)" stroke="#b59897" stroke-width="0.6" stroke-opacity="0.5" transform="rotate(143.6)" opacity="0.98"/><use href="#p10" fill="url(#g9)" stroke="#b59897" stroke-width="0.6" stroke-opacity="0.5" transform="rotate(195)" opacity="0.98"/><use href="#p10" fill="url(#g9)" stroke="#b59897" stroke-width="0.6" stroke-opacity="0.5" transform="rotate(246.4)" opacity="0.98"/><use href="#p10" fill="url(#g9)" stroke="#b59897" stroke-width="0.6" stroke-opacity="0.5" transform="rotate(297.8)" opacity="0.98"/><use href="#p10" fill="url(#g9)" stroke="#b59897" stroke-width="0.6" stroke-opacity="0.5" transform="rotate(349.3)" opacity="0.98"/><use href="#p11" fill="url(#g7)" stroke="#b59897" stroke-width="0.6" stroke-opacity="0.5" transform="rotate(64.7)" opacity="0.98"/><use href="#p11" fill="url(#g7)" stroke="#b59897" stroke-width="0.6" stroke-opacity="0.5" transform="rotate(124.7)" opacity="0.98"/><use href="#p11" fill="url(#g7)" stroke="#b59897" stroke-width="0.6" stroke-opacity="0.5" transform="rotate(184.7)" opacity="0.98"/><use href="#p11" fill="url(#g7)" stroke="#b59897" stroke-width="0.6" stroke-opacity="0.5" transform="rotate(244.7)" opacity="0.98"/><use href="#p11" fill="url(#g7)" stroke="#b59897" stroke-width="0.6" stroke-opacity="0.5" transform="rotate(304.7)" opacity="0.98"/><use href="#p11" fill="url(#g7)" stroke="#b59897" stroke-width="0.6" stroke-opacity="0.5" transform="rotate(364.7)" opacity="0.98"/><use href="#p12" fill="url(#g9)" stroke="#b59897" stroke-width="0.6" stroke-opacity="0.5" transform="rotate(88.7)" opacity="0.98"/><use href="#p12" fill="url(#g9)" stroke="#b59897" stroke-width="0.6" stroke-opacity="0.5" transform="rotate(160.7)" opacity="0.98"/><use href="#p12" fill="url(#g9)" stroke="#b59897" stroke-width="0.6" stroke-opacity="0.5" transform="rotate(232.7)" opacity="0.98"/><use href="#p12" fill="url(#g9)" stroke="#b59897" stroke-width="0.6" stroke-opacity="0.5" transform="rotate(304.7)" opacity="0.98"/><use href="#p12" fill="url(#g9)" stroke="#b59897" stroke-width="0.6" stroke-opacity="0.5" transform="rotate(376.7)" opacity="0.98"/><circle r="11" fill="none" stroke="#a68483" stroke-width="3.5" opacity="0.9"/><circle r="7" fill="none" stroke="#b19291" stroke-width="3.5" opacity="0.9"/><circle r="3.5" fill="none" stroke="#bba1a0" stroke-width="3.5" opacity="0.9"/><circle r="2.2" fill="#775656"/></g><g id="s13"><circle r="25" fill="#8e6766"/><use href="#p8" fill="url(#g7)" stroke="#b59897" stroke-width="0.6" stroke-opacity="0.5" transform="rotate(32.4)" opacity="0.98"/><use href="#p8" fill="url(#g7)" stroke="#b59897" stroke-width="0.6" stroke-opacity="0.5" transform="rotate(77.4)" opacity="0.98"/><use href="#p8" fill="url(#g7)" stroke="#b59897" stroke-width="0.6" stroke-opacity="0.5" transform="rotate(122.4)" opacity="0.98"/><use href="#p8" fill="url(#g7)" stroke="#b59897" stroke-width="0.6" stroke-opacity="0.5" transform="rotate(167.4)" opacity="0.98"/><use href="#p8" fill="url(#g7)" stroke="#b59897" stroke-width="0.6" stroke-opacity="0.5" transform="rotate(212.4)" opacity="0.98"/><use href="#p8" fill="url(#g7)" stroke="#b59897" stroke-width="0.6" stroke-opacity="0.5" transform="rotate(257.4)" opacity="0.98"/><use href="#p8" fill="url(#g7)" stroke="#b59897" stroke-width="0.6" stroke-opacity="0.5" transform="rotate(302.4)" opacity="0.98"/><use href="#p8" fill="url(#g7)" stroke="#b59897" stroke-width="0.6" stroke-opacity="0.5" transform="rotate(347.4)" opacity="0.98"/><use href="#p10" fill="url(#g9)" stroke="#b59897" stroke-width="0.6" stroke-opacity="0.5" transform="rotate(56.4)" opacity="0.98"/><use href="#p10" fill="url(#g9)" stroke="#b59897" stroke-width="0.6" stroke-opacity="0.5" transform="rotate(107.8)" opacity="0.98"/><use href="#p10" fill="url(#g9)" stroke="#b59897" stroke-width="0.6" stroke-opacity="0.5" transform="rotate(159.3)" opacity="0.98"/><use href="#p10" fill="url(#g9)" stroke="#b59897" stroke-width="0.6" stroke-opacity="0.5" transform="rotate(210.7)" opacity="0.98"/><use href="#p10" fill="url(#g9)" stroke="#b59897" stroke-width="0.6" stroke-opacity="0.5" transform="rotate(262.1)" opacity="0.98"/><use href="#p10" fill="url(#g9)" stroke="#b59897" stroke-width="0.6" stroke-opacity="0.5" transform="rotate(313.5)" opacity="0.98"/><use href="#p10" fill="url(#g9)" stroke="#b59897" stroke-width="0.6" stroke-opacity="0.5" transform="rotate(365)" opacity="0.98"/><use href="#p11" fill="url(#g7)" stroke="#b59897" stroke-width="0.6" stroke-opacity="0.5" transform="rotate(80.4)" opacity="0.98"/><use href="#p11" fill="url(#g7)" stroke="#b59897" stroke-width="0.6" stroke-opacity="0.5" transform="rotate(140.4)" opacity="0.98"/><use href="#p11" fill="url(#g7)" stroke="#b59897" stroke-width="0.6" stroke-opacity="0.5" transform="rotate(200.4)" opacity="0.98"/><use href="#p11" fill="url(#g7)" stroke="#b59897" stroke-width="0.6" stroke-opacity="0.5" transform="rotate(260.4)" opacity="0.98"/><use href="#p11" fill="url(#g7)" stroke="#b59897" stroke-width="0.6" stroke-opacity="0.5" transform="rotate(320.4)" opacity="0.98"/><use href="#p11" fill="url(#g7)" stroke="#b59897" stroke-width="0.6" stroke-opacity="0.5" transform="rotate(380.4)" opacity="0.98"/><use href="#p12" fill="url(#g9)" stroke="#b59897" stroke-width="0.6" stroke-opacity="0.5" transform="rotate(104.4)" opacity="0.98"/><use href="#p12" fill="url(#g9)" stroke="#b59897" stroke-width="0.6" stroke-opacity="0.5" transform="rotate(176.4)" opacity="0.98"/><use href="#p12" fill="url(#g9)" stroke="#b59897" stroke-width="0.6" stroke-opacity="0.5" transform="rotate(248.4)" opacity="0.98"/><use href="#p12" fill="url(#g9)" stroke="#b59897" stroke-width="0.6" stroke-opacity="0.5" transform="rotate(320.4)" opacity="0.98"/><use href="#p12" fill="url(#g9)" stroke="#b59897" stroke-width="0.6" stroke-opacity="0.5" transform="rotate(392.4)" opacity="0.98"/><circle r="11" fill="none" stroke="#a68483" stroke-width="3.5" opacity="0.9"/><circle r="7" fill="none" stroke="#b19291" stroke-width="3.5" opacity="0.9"/><circle r="3.5" fill="none" stroke="#bba1a0" stroke-width="3.5" opacity="0.9"/><circle r="2.2" fill="#775656"/></g><radialGradient id="g15" cx="45%" cy="35%" r="72%"><stop offset="0" stop-color="#f9f2ed"/><stop offset="1" stop-color="#ded7d1"/></radialGradient><path id="p16" d="M0 0 C-18 -11 -20.2 -33 -9 -46.5 C-3.2 -53 3.2 -53 9 -46.5 C20.2 -33 18 -11 0 0 Z"/><radialGradient id="g17" cx="45%" cy="35%" r="72%"><stop offset="0" stop-color="#e5dfda"/><stop offset="1" stop-color="#c8c2bc"/></radialGradient><path id="p18" d="M0 0 C-15.5 -9 -17.4 -27.1 -7.8 -38.1 C-2.8 -43.5 2.8 -43.5 7.8 -38.1 C17.4 -27.1 15.5 -9 0 0 Z"/><path id="p19" d="M0 0 C-13 -7.3 -14.6 -21.8 -6.5 -30.7 C-2.3 -35 2.3 -35 6.5 -30.7 C14.6 -21.8 13 -7.3 0 0 Z"/><path id="p20" d="M0 0 C-11 -5.5 -12.3 -16.5 -5.5 -23.2 C-2 -26.5 2 -26.5 5.5 -23.2 C12.3 -16.5 11 -5.5 0 0 Z"/><path id="p21" d="M0 0 C-9 -4 -10.1 -11.9 -4.5 -16.7 C-1.6 -19.1 1.6 -19.1 4.5 -16.7 C10.1 -11.9 9 -4 0 0 Z"/><path id="p22" d="M0 0 C-7 -2.6 -7.8 -7.9 -3.5 -11.2 C-1.3 -12.7 1.3 -12.7 3.5 -11.2 C7.8 -7.9 7 -2.6 0 0 Z"/><g id="s14"><circle r="27.5" fill="#9d9893"/><use href="#p16" fill="url(#g15)" stroke="#bbb7b3" stroke-width="0.6" stroke-opacity="0.5" transform="rotate(8.5)" opacity="0.97"/><use href="#p16" fill="url(#g15)" stroke="#bbb7b3" stroke-width="0.6" stroke-opacity="0.5" transform="rotate(44.5)" opacity="0.97"/><use href="#p16" fill="url(#g15)" stroke="#bbb7b3" stroke-width="0.6" stroke-opacity="0.5" transform="rotate(80.5)" opacity="0.97"/><use href="#p16" fill="url(#g15)" stroke="#bbb7b3" stroke-width="0.6" stroke-opacity="0.5" transform="rotate(116.5)" opacity="0.97"/><use href="#p16" fill="url(#g15)" stroke="#bbb7b3" stroke-width="0.6" stroke-opacity="0.5" transform="rotate(152.5)" opacity="0.97"/><use href="#p16" fill="url(#g15)" stroke="#bbb7b3" stroke-width="0.6" stroke-opacity="0.5" transform="rotate(188.5)" opacity="0.97"/><use href="#p16" fill="url(#g15)" stroke="#bbb7b3" stroke-width="0.6" stroke-opacity="0.5" transform="rotate(224.5)" opacity="0.97"/><use href="#p16" fill="url(#g15)" stroke="#bbb7b3" stroke-width="0.6" stroke-opacity="0.5" transform="rotate(260.5)" opacity="0.97"/><use href="#p16" fill="url(#g15)" stroke="#bbb7b3" stroke-width="0.6" stroke-opacity="0.5" transform="rotate(296.5)" opacity="0.97"/><use href="#p16" fill="url(#g15)" stroke="#bbb7b3" stroke-width="0.6" stroke-opacity="0.5" transform="rotate(332.5)" opacity="0.97"/><use href="#p18" fill="url(#g17)" stroke="#bbb7b3" stroke-width="0.6" stroke-opacity="0.5" transform="rotate(30.3)" opacity="0.97"/><use href="#p18" fill="url(#g17)" stroke="#bbb7b3" stroke-width="0.6" stroke-opacity="0.5" transform="rotate(66.3)" opacity="0.97"/><use href="#p18" fill="url(#g17)" stroke="#bbb7b3" stroke-width="0.6" stroke-opacity="0.5" transform="rotate(102.3)" opacity="0.97"/><use href="#p18" fill="url(#g17)" stroke="#bbb7b3" stroke-width="0.6" stroke-opacity="0.5" transform="rotate(138.3)" opacity="0.97"/><use href="#p18" fill="url(#g17)" stroke="#bbb7b3" stroke-width="0.6" stroke-opacity="0.5" transform="rotate(174.3)" opacity="0.97"/><use href="#p18" fill="url(#g17)" stroke="#bbb7b3" stroke-width="0.6" stroke-opacity="0.5" transform="rotate(210.3)" opacity="0.97"/><use href="#p18" fill="url(#g17)" stroke="#bbb7b3" stroke-width="0.6" stroke-opacity="0.5" transform="rotate(246.3)" opacity="0.97"/><use href="#p18" fill="url(#g17)" stroke="#bbb7b3" stroke-width="0.6" stroke-opacity="0.5" transform="rotate(282.3)" opacity="0.97"/><use href="#p18" fill="url(#g17)" stroke="#bbb7b3" stroke-width="0.6" stroke-opacity="0.5" transform="rotate(318.3)" opacity="0.97"/><use href="#p18" fill="url(#g17)" stroke="#bbb7b3" stroke-width="0.6" stroke-opacity="0.5" transform="rotate(354.3)" opacity="0.97"/><use href="#p19" fill="url(#g15)" stroke="#bbb7b3" stroke-width="0.6" stroke-opacity="0.5" transform="rotate(46.5)" opacity="0.97"/><use href="#p19" fill="url(#g15)" stroke="#bbb7b3" stroke-width="0.6" stroke-opacity="0.5" transform="rotate(86.5)" opacity="0.97"/><use href="#p19" fill="url(#g15)" stroke="#bbb7b3" stroke-width="0.6" stroke-opacity="0.5" transform="rotate(126.5)" opacity="0.97"/><use href="#p19" fill="url(#g15)" stroke="#bbb7b3" stroke-width="0.6" stroke-opacity="0.5" transform="rotate(166.5)" opacity="0.97"/><use href="#p19" fill="url(#g15)" stroke="#bbb7b3" stroke-width="0.6" stroke-opacity="0.5" transform="rotate(206.5)" opacity="0.97"/><use href="#p19" fill="url(#g15)" stroke="#bbb7b3" stroke-width="0.6" stroke-opacity="0.5" transform="rotate(246.5)" opacity="0.97"/><use href="#p19" fill="url(#g15)" stroke="#bbb7b3" stroke-width="0.6" stroke-opacity="0.5" transform="rotate(286.5)" opacity="0.97"/><use href="#p19" fill="url(#g15)" stroke="#bbb7b3" stroke-width="0.6" stroke-opacity="0.5" transform="rotate(326.5)" opacity="0.97"/><use href="#p19" fill="url(#g15)" stroke="#bbb7b3" stroke-width="0.6" stroke-opacity="0.5" transform="rotate(366.5)" opacity="0.97"/><use href="#p20" fill="url(#g17)" stroke="#bbb7b3" stroke-width="0.6" stroke-opacity="0.5" transform="rotate(65)" opacity="0.97"/><use href="#p20" fill="url(#g17)" stroke="#bbb7b3" stroke-width="0.6" stroke-opacity="0.5" transform="rotate(110)" opacity="0.97"/><use href="#p20" fill="url(#g17)" stroke="#bbb7b3" stroke-width="0.6" stroke-opacity="0.5" transform="rotate(155)" opacity="0.97"/><use href="#p20" fill="url(#g17)" stroke="#bbb7b3" stroke-width="0.6" stroke-opacity="0.5" transform="rotate(200)" opacity="0.97"/><use href="#p20" fill="url(#g17)" stroke="#bbb7b3" stroke-width="0.6" stroke-opacity="0.5" transform="rotate(245)" opacity="0.97"/><use href="#p20" fill="url(#g17)" stroke="#bbb7b3" stroke-width="0.6" stroke-opacity="0.5" transform="rotate(290)" opacity="0.97"/><use href="#p20" fill="url(#g17)" stroke="#bbb7b3" stroke-width="0.6" stroke-opacity="0.5" transform="rotate(335)" opacity="0.97"/><use href="#p20" fill="url(#g17)" stroke="#bbb7b3" stroke-width="0.6" stroke-opacity="0.5" transform="rotate(380)" opacity="0.97"/><use href="#p21" fill="url(#g15)" stroke="#bbb7b3" stroke-width="0.6" stroke-opacity="0.5" transform="rotate(85.6)" opacity="0.97"/><use href="#p21" fill="url(#g15)" stroke="#bbb7b3" stroke-width="0.6" stroke-opacity="0.5" transform="rotate(137)" opacity="0.97"/><use href="#p21" fill="url(#g15)" stroke="#bbb7b3" stroke-width="0.6" stroke-opacity="0.5" transform="rotate(188.4)" opacity="0.97"/><use href="#p21" fill="url(#g15)" stroke="#bbb7b3" stroke-width="0.6" stroke-opacity="0.5" transform="rotate(239.8)" opacity="0.97"/><use href="#p21" fill="url(#g15)" stroke="#bbb7b3" stroke-width="0.6" stroke-opacity="0.5" transform="rotate(291.3)" opacity="0.97"/><use href="#p21" fill="url(#g15)" stroke="#bbb7b3" stroke-width="0.6" stroke-opacity="0.5" transform="rotate(342.7)" opacity="0.97"/><use href="#p21" fill="url(#g15)" stroke="#bbb7b3" stroke-width="0.6" stroke-opacity="0.5" transform="rotate(394.1)" opacity="0.97"/><use href="#p22" fill="url(#g17)" stroke="#bbb7b3" stroke-width="0.6" stroke-opacity="0.5" transform="rotate(101.8)" opacity="0.97"/><use href="#p22" fill="url(#g17)" stroke="#bbb7b3" stroke-width="0.6" stroke-opacity="0.5" transform="rotate(173.8)" opacity="0.97"/><use href="#p22" fill="url(#g17)" stroke="#bbb7b3" stroke-width="0.6" stroke-opacity="0.5" transform="rotate(245.8)" opacity="0.97"/><use href="#p22" fill="url(#g17)" stroke="#bbb7b3" stroke-width="0.6" stroke-opacity="0.5" transform="rotate(317.8)" opacity="0.97"/><use href="#p22" fill="url(#g17)" stroke="#bbb7b3" stroke-width="0.6" stroke-opacity="0.5" transform="rotate(389.8)" opacity="0.97"/><circle r="4" fill="#908c87"/></g><g id="s23"><circle r="27.5" fill="#9d9893"/><use href="#p16" fill="url(#g15)" stroke="#bbb7b3" stroke-width="0.6" stroke-opacity="0.5" transform="rotate(7.6)" opacity="0.97"/><use href="#p16" fill="url(#g15)" stroke="#bbb7b3" stroke-width="0.6" stroke-opacity="0.5" transform="rotate(43.6)" opacity="0.97"/><use href="#p16" fill="url(#g15)" stroke="#bbb7b3" stroke-width="0.6" stroke-opacity="0.5" transform="rotate(79.6)" opacity="0.97"/><use href="#p16" fill="url(#g15)" stroke="#bbb7b3" stroke-width="0.6" stroke-opacity="0.5" transform="rotate(115.6)" opacity="0.97"/><use href="#p16" fill="url(#g15)" stroke="#bbb7b3" stroke-width="0.6" stroke-opacity="0.5" transform="rotate(151.6)" opacity="0.97"/><use href="#p16" fill="url(#g15)" stroke="#bbb7b3" stroke-width="0.6" stroke-opacity="0.5" transform="rotate(187.6)" opacity="0.97"/><use href="#p16" fill="url(#g15)" stroke="#bbb7b3" stroke-width="0.6" stroke-opacity="0.5" transform="rotate(223.6)" opacity="0.97"/><use href="#p16" fill="url(#g15)" stroke="#bbb7b3" stroke-width="0.6" stroke-opacity="0.5" transform="rotate(259.6)" opacity="0.97"/><use href="#p16" fill="url(#g15)" stroke="#bbb7b3" stroke-width="0.6" stroke-opacity="0.5" transform="rotate(295.6)" opacity="0.97"/><use href="#p16" fill="url(#g15)" stroke="#bbb7b3" stroke-width="0.6" stroke-opacity="0.5" transform="rotate(331.6)" opacity="0.97"/><use href="#p18" fill="url(#g17)" stroke="#bbb7b3" stroke-width="0.6" stroke-opacity="0.5" transform="rotate(29.1)" opacity="0.97"/><use href="#p18" fill="url(#g17)" stroke="#bbb7b3" stroke-width="0.6" stroke-opacity="0.5" transform="rotate(65.1)" opacity="0.97"/><use href="#p18" fill="url(#g17)" stroke="#bbb7b3" stroke-width="0.6" stroke-opacity="0.5" transform="rotate(101.1)" opacity="0.97"/><use href="#p18" fill="url(#g17)" stroke="#bbb7b3" stroke-width="0.6" stroke-opacity="0.5" transform="rotate(137.1)" opacity="0.97"/><use href="#p18" fill="url(#g17)" stroke="#bbb7b3" stroke-width="0.6" stroke-opacity="0.5" transform="rotate(173.1)" opacity="0.97"/><use href="#p18" fill="url(#g17)" stroke="#bbb7b3" stroke-width="0.6" stroke-opacity="0.5" transform="rotate(209.1)" opacity="0.97"/><use href="#p18" fill="url(#g17)" stroke="#bbb7b3" stroke-width="0.6" stroke-opacity="0.5" transform="rotate(245.1)" opacity="0.97"/><use href="#p18" fill="url(#g17)" stroke="#bbb7b3" stroke-width="0.6" stroke-opacity="0.5" transform="rotate(281.1)" opacity="0.97"/><use href="#p18" fill="url(#g17)" stroke="#bbb7b3" stroke-width="0.6" stroke-opacity="0.5" transform="rotate(317.1)" opacity="0.97"/><use href="#p18" fill="url(#g17)" stroke="#bbb7b3" stroke-width="0.6" stroke-opacity="0.5" transform="rotate(353.1)" opacity="0.97"/><use href="#p19" fill="url(#g15)" stroke="#bbb7b3" stroke-width="0.6" stroke-opacity="0.5" transform="rotate(47.1)" opacity="0.97"/><use href="#p19" fill="url(#g15)" stroke="#bbb7b3" stroke-width="0.6" stroke-opacity="0.5" transform="rotate(87.1)" opacity="0.97"/><use href="#p19" fill="url(#g15)" stroke="#bbb7b3" stroke-width="0.6" stroke-opacity="0.5" transform="rotate(127.1)" opacity="0.97"/><use href="#p19" fill="url(#g15)" stroke="#bbb7b3" stroke-width="0.6" stroke-opacity="0.5" transform="rotate(167.1)" opacity="0.97"/><use href="#p19" fill="url(#g15)" stroke="#bbb7b3" stroke-width="0.6" stroke-opacity="0.5" transform="rotate(207.1)" opacity="0.97"/><use href="#p19" fill="url(#g15)" stroke="#bbb7b3" stroke-width="0.6" stroke-opacity="0.5" transform="rotate(247.1)" opacity="0.97"/><use href="#p19" fill="url(#g15)" stroke="#bbb7b3" stroke-width="0.6" stroke-opacity="0.5" transform="rotate(287.1)" opacity="0.97"/><use href="#p19" fill="url(#g15)" stroke="#bbb7b3" stroke-width="0.6" stroke-opacity="0.5" transform="rotate(327.1)" opacity="0.97"/><use href="#p19" fill="url(#g15)" stroke="#bbb7b3" stroke-width="0.6" stroke-opacity="0.5" transform="rotate(367.1)" opacity="0.97"/><use href="#p20" fill="url(#g17)" stroke="#bbb7b3" stroke-width="0.6" stroke-opacity="0.5" transform="rotate(66.4)" opacity="0.97"/><use href="#p20" fill="url(#g17)" stroke="#bbb7b3" stroke-width="0.6" stroke-opacity="0.5" transform="rotate(111.4)" opacity="0.97"/><use href="#p20" fill="url(#g17)" stroke="#bbb7b3" stroke-width="0.6" stroke-opacity="0.5" transform="rotate(156.4)" opacity="0.97"/><use href="#p20" fill="url(#g17)" stroke="#bbb7b3" stroke-width="0.6" stroke-opacity="0.5" transform="rotate(201.4)" opacity="0.97"/><use href="#p20" fill="url(#g17)" stroke="#bbb7b3" stroke-width="0.6" stroke-opacity="0.5" transform="rotate(246.4)" opacity="0.97"/><use href="#p20" fill="url(#g17)" stroke="#bbb7b3" stroke-width="0.6" stroke-opacity="0.5" transform="rotate(291.4)" opacity="0.97"/><use href="#p20" fill="url(#g17)" stroke="#bbb7b3" stroke-width="0.6" stroke-opacity="0.5" transform="rotate(336.4)" opacity="0.97"/><use href="#p20" fill="url(#g17)" stroke="#bbb7b3" stroke-width="0.6" stroke-opacity="0.5" transform="rotate(381.4)" opacity="0.97"/><use href="#p21" fill="url(#g15)" stroke="#bbb7b3" stroke-width="0.6" stroke-opacity="0.5" transform="rotate(86.3)" opacity="0.97"/><use href="#p21" fill="url(#g15)" stroke="#bbb7b3" stroke-width="0.6" stroke-opacity="0.5" transform="rotate(137.8)" opacity="0.97"/><use href="#p21" fill="url(#g15)" stroke="#bbb7b3" stroke-width="0.6" stroke-opacity="0.5" transform="rotate(189.2)" opacity="0.97"/><use href="#p21" fill="url(#g15)" stroke="#bbb7b3" stroke-width="0.6" stroke-opacity="0.5" transform="rotate(240.6)" opacity="0.97"/><use href="#p21" fill="url(#g15)" stroke="#bbb7b3" stroke-width="0.6" stroke-opacity="0.5" transform="rotate(292)" opacity="0.97"/><use href="#p21" fill="url(#g15)" stroke="#bbb7b3" stroke-width="0.6" stroke-opacity="0.5" transform="rotate(343.5)" opacity="0.97"/><use href="#p21" fill="url(#g15)" stroke="#bbb7b3" stroke-width="0.6" stroke-opacity="0.5" transform="rotate(394.9)" opacity="0.97"/><use href="#p22" fill="url(#g17)" stroke="#bbb7b3" stroke-width="0.6" stroke-opacity="0.5" transform="rotate(102.4)" opacity="0.97"/><use href="#p22" fill="url(#g17)" stroke="#bbb7b3" stroke-width="0.6" stroke-opacity="0.5" transform="rotate(174.4)" opacity="0.97"/><use href="#p22" fill="url(#g17)" stroke="#bbb7b3" stroke-width="0.6" stroke-opacity="0.5" transform="rotate(246.4)" opacity="0.97"/><use href="#p22" fill="url(#g17)" stroke="#bbb7b3" stroke-width="0.6" stroke-opacity="0.5" transform="rotate(318.4)" opacity="0.97"/><use href="#p22" fill="url(#g17)" stroke="#bbb7b3" stroke-width="0.6" stroke-opacity="0.5" transform="rotate(390.4)" opacity="0.97"/><circle r="4" fill="#908c87"/></g><g id="s24"><circle cx="-16.3" cy="36.1" r="12.4" fill="#fdf8f4" opacity="0.95"/><circle cx="-16.3" cy="36.1" r="4.4" fill="#c0bbb9" opacity="0.6"/><circle cx="-18.6" cy="-14.4" r="14.3" fill="#fdf8f4" opacity="0.95"/><circle cx="-18.6" cy="-14.4" r="5" fill="#c0bbb9" opacity="0.6"/><circle cx="38.6" cy="11.8" r="9.4" fill="#fdf8f4" opacity="0.95"/><circle cx="38.6" cy="11.8" r="3.3" fill="#c0bbb9" opacity="0.6"/><circle cx="-5.2" cy="-5.9" r="14" fill="#fdf8f4" opacity="0.95"/><circle cx="-5.2" cy="-5.9" r="4.9" fill="#c0bbb9" opacity="0.6"/><circle cx="-11.5" cy="-23" r="8.2" fill="#fdf8f4" opacity="0.95"/><circle cx="-11.5" cy="-23" r="2.9" fill="#c0bbb9" opacity="0.6"/><circle cx="-24.7" cy="28" r="11.6" fill="#fdf8f4" opacity="0.95"/><circle cx="-24.7" cy="28" r="4.1" fill="#c0bbb9" opacity="0.6"/><circle cx="-3.7" cy="-12.4" r="11.3" fill="#fdf8f4" opacity="0.95"/><circle cx="-3.7" cy="-12.4" r="4" fill="#c0bbb9" opacity="0.6"/></g><g id="s25"><circle cx="27.7" cy="30.7" r="12.5" fill="#fdf8f4" opacity="0.95"/><circle cx="27.7" cy="30.7" r="4.4" fill="#c0bbb9" opacity="0.6"/><circle cx="-24.5" cy="14.3" r="8.2" fill="#fdf8f4" opacity="0.95"/><circle cx="-24.5" cy="14.3" r="2.9" fill="#c0bbb9" opacity="0.6"/><circle cx="28.7" cy="24.1" r="8.2" fill="#fdf8f4" opacity="0.95"/><circle cx="28.7" cy="24.1" r="2.9" fill="#c0bbb9" opacity="0.6"/><circle cx="26.1" cy="-34.4" r="13.2" fill="#fdf8f4" opacity="0.95"/><circle cx="26.1" cy="-34.4" r="4.6" fill="#c0bbb9" opacity="0.6"/><circle cx="-6.9" cy="-10.7" r="10" fill="#fdf8f4" opacity="0.95"/><circle cx="-6.9" cy="-10.7" r="3.5" fill="#c0bbb9" opacity="0.6"/><circle cx="-10.6" cy="3" r="13.3" fill="#fdf8f4" opacity="0.95"/><circle cx="-10.6" cy="3" r="4.7" fill="#c0bbb9" opacity="0.6"/><circle cx="26.9" cy="-19" r="15" fill="#fdf8f4" opacity="0.95"/><circle cx="26.9" cy="-19" r="5.2" fill="#c0bbb9" opacity="0.6"/></g><linearGradient id="g26" x1="0" y1="0" x2="1" y2="0"><stop offset="0" stop-color="#ece5db"/><stop offset="1" stop-color="#b4ab9e"/></linearGradient></defs><rect width="800" height="1000" fill="url(#g1)"/><circle cx="687.6" cy="414" r="52.4" fill="#ffffff" opacity="0.11"/><circle cx="569.6" cy="59.9" r="159.5" fill="#ffffff" opacity="0.06"/><circle cx="180.5" cy="396.7" r="124.9" fill="#ffffff" opacity="0.11"/><circle cx="268.1" cy="71" r="103.6" fill="#ffffff" opacity="0.11"/><circle cx="358.1" cy="690.4" r="71.9" fill="#ffffff" opacity="0.11"/><circle cx="207.3" cy="165.6" r="125.1" fill="#ffffff" opacity="0.09"/><circle cx="188.3" cy="470.6" r="142.2" fill="#ffffff" opacity="0.06"/><rect y="860" width="800" height="140" fill="#d2cac2" opacity="0.4"/><ellipse cx="400" cy="932" rx="253.4" ry="38.5" fill="#3a2f28" opacity="0.16"/><use href="#s2" transform="translate(376.3 601.2) rotate(-164.9) scale(0.917)" opacity="0.88"/><use href="#s3" transform="translate(269.3 593.8) rotate(-145.3) scale(0.719)" opacity="0.88"/><use href="#s2" transform="translate(228.6 539.8) rotate(-141.2) scale(0.730)" opacity="0.90"/><use href="#s3" transform="translate(192.3 499.3) rotate(-110.1) scale(0.788)" opacity="0.95"/><use href="#s2" transform="translate(183.3 452.3) rotate(-111.1) scale(0.853)" opacity="0.93"/><use href="#s3" transform="translate(177.8 390.7) rotate(-95.8) scale(0.696)" opacity="0.90"/><use href="#s2" transform="translate(163.4 332.1) rotate(-72) scale(0.848)" opacity="0.96"/><use href="#s3" transform="translate(235.6 267.7) rotate(-49.8) scale(0.681)" opacity="0.90"/><use href="#s2" transform="translate(319.4 256.3) rotate(-20.3) scale(0.767)" opacity="0.90"/><use href="#s3" transform="translate(338.9 223.9) rotate(-3.7) scale(0.854)" opacity="0.91"/><use href="#s2" transform="translate(437.8 214.4) rotate(16.6) scale(0.910)" opacity="0.96"/><use href="#s3" transform="translate(495.7 260) rotate(27.8) scale(0.689)" opacity="0.92"/><use href="#s2" transform="translate(564.9 295.2) rotate(58.8) scale(0.668)" opacity="0.87"/><use href="#s3" transform="translate(610 322.7) rotate(67.2) scale(0.642)" opacity="0.94"/><use href="#s2" transform="translate(651.9 364.3) rotate(78.8) scale(0.695)" opacity="0.94"/><use href="#s3" transform="translate(646.4 434.5) rotate(101.8) scale(0.893)" opacity="0.88"/><use href="#s2" transform="translate(607.4 482.7) rotate(114.5) scale(0.919)" opacity="0.99"/><use href="#s3" transform="translate(553.1 532.3) rotate(131) scale(0.873)" opacity="0.87"/><use href="#s2" transform="translate(488.6 566.4) rotate(165.9) scale(0.811)" opacity="0.93"/><use href="#s3" transform="translate(459.2 582.9) rotate(157.2) scale(0.887)" opacity="0.98"/><ellipse cx="400" cy="443" rx="175.7" ry="140" fill="#4c614e" opacity="0.32" filter="url(#f5)"/><use href="#s3" transform="translate(335.4 293.8) rotate(25.6) scale(0.517)" opacity="0.85"/><use href="#s3" transform="translate(517.7 338.9) rotate(208.3) scale(0.461)" opacity="0.85"/><use href="#s3" transform="translate(264.5 558.9) rotate(180) scale(0.516)" opacity="0.85"/><use href="#s3" transform="translate(183.4 384.3) rotate(344.6) scale(0.489)" opacity="0.85"/><use href="#s3" transform="translate(559.3 546.7) rotate(163.1) scale(0.503)" opacity="0.85"/><use href="#s3" transform="translate(260.2 310.6) rotate(308.4) scale(0.579)" opacity="0.85"/><use href="#s3" transform="translate(375.4 464.4) rotate(265.4) scale(0.402)" opacity="0.85"/><use href="#s3" transform="translate(388.4 370.7) rotate(346.2) scale(0.551)" opacity="0.85"/><use href="#s3" transform="translate(174.5 426.1) rotate(301.4) scale(0.431)" opacity="0.85"/><use href="#s3" transform="translate(477.3 562.2) rotate(6.1) scale(0.587)" opacity="0.85"/><use href="#s3" transform="translate(469.2 416.8) rotate(153.1) scale(0.488)" opacity="0.85"/><use href="#s3" transform="translate(212.1 424.7) rotate(14.6) scale(0.471)" opacity="0.85"/><use href="#s3" transform="translate(464.5 328.4) rotate(311.8) scale(0.612)" opacity="0.85"/><use href="#s3" transform="translate(550 423.7) rotate(334.4) scale(0.437)" opacity="0.85"/><use href="#s3" transform="translate(332.2 335.4) rotate(355.2) scale(0.472)" opacity="0.85"/><use href="#s3" transform="translate(245.9 449.9) rotate(275.7) scale(0.589)" opacity="0.85"/><use href="#s23" transform="translate(316.1 242.2) rotate(101.3) scale(0.949)"/><use href="#s24" transform="translate(329.5 257.3) rotate(117.3) scale(0.557)"/><use href="#s13" transform="translate(322.3 262.6) rotate(82.4) scale(1.307)"/><use href="#s25" transform="translate(488.5 297) rotate(51.2) scale(0.609)"/><use href="#s6" transform="translate(422.1 318.7) rotate(200.5) scale(1.363)"/><use href="#s25" transform="translate(327.5 321.6) rotate(346.4) scale(0.590)"/><use href="#s25" transform="translate(245 322.6) rotate(308) scale(0.574)"/><use href="#s14" transform="translate(454.7 326.1) rotate(196.3) scale(1.109)"/><use href="#s14" transform="translate(557.3 344.3) rotate(330.4) scale(0.998)"/><use href="#s24" transform="translate(388.3 351.7) rotate(247.8) scale(0.593)"/><use href="#s24" transform="translate(496.1 364.7) rotate(216.8) scale(0.643)"/><use href="#s14" transform="translate(230.5 367.7) rotate(47) scale(1.094)"/><use href="#s24" transform="translate(570.9 382.1) rotate(158.6) scale(0.556)"/><use href="#s13" transform="translate(579.5 383.6) rotate(205.1) scale(1.304)"/><use href="#s25" transform="translate(187.6 391.3) rotate(104) scale(0.588)"/><use href="#s24" transform="translate(286.9 410.5) rotate(183.4) scale(0.557)"/><use href="#s14" transform="translate(455.7 415.2) rotate(10.5) scale(1.248)"/><use href="#s13" transform="translate(232.7 418.6) rotate(213.2) scale(1.181)"/><use href="#s24" transform="translate(437.9 420.6) rotate(277.3) scale(0.703)"/><use href="#s6" transform="translate(449.9 421.2) rotate(149.3) scale(1.302)"/><use href="#s25" transform="translate(239.2 430.5) rotate(217.1) scale(0.625)"/><use href="#s6" transform="translate(156 433.9) rotate(261.8) scale(1.093)"/><use href="#s6" transform="translate(320.5 449.4) rotate(32.4) scale(1.281)"/><use href="#s25" transform="translate(365.4 455.3) rotate(252.5) scale(0.693)"/><use href="#s25" transform="translate(529.1 462) rotate(317.4) scale(0.531)"/><use href="#s24" transform="translate(457.9 473.4) rotate(285.6) scale(0.565)"/><use href="#s23" transform="translate(353.4 485.3) rotate(282) scale(1.194)"/><use href="#s13" transform="translate(510.2 485.7) rotate(174.2) scale(1.213)"/><use href="#s24" transform="translate(569.2 497.1) rotate(241.1) scale(0.498)"/><use href="#s13" transform="translate(599.1 498.8) rotate(75.9) scale(1.120)"/><use href="#s25" transform="translate(388.2 513.7) rotate(252.1) scale(0.622)"/><use href="#s23" transform="translate(462.9 522.2) rotate(274.4) scale(1.002)"/><use href="#s24" transform="translate(449.7 549.3) rotate(353.5) scale(0.638)"/><use href="#s6" transform="translate(318.6 556.3) rotate(40.2) scale(1.203)"/><use href="#s23" transform="translate(302.1 559.5) rotate(97.9) scale(1.051)"/><use href="#s25" transform="translate(347.6 560.8) rotate(226) scale(0.612)"/><use href="#s2" transform="translate(264.3 559.9) rotate(-156.9) scale(0.491)" opacity="0.90"/><use href="#s2" transform="translate(188.8 359.9) rotate(-78.4) scale(0.572)" opacity="0.90"/><use href="#s2" transform="translate(252.9 275.4) rotate(-25.5) scale(0.489)" opacity="0.90"/><use href="#s2" transform="translate(506.6 269.3) rotate(17.7) scale(0.585)" opacity="0.90"/><use href="#s2" transform="translate(597.1 372) rotate(68.9) scale(0.475)" opacity="0.90"/><use href="#s2" transform="translate(515.4 546) rotate(147.5) scale(0.484)" opacity="0.90"/><path d="M208 575 L357.8 925 L442.2 925 L592 575 Z" fill="url(#g26)"/><line x1="281" y1="575" x2="373.8" y2="925" stroke="#b8afa2" stroke-width="4.6" opacity="0.4"/><line x1="346.2" y1="575" x2="388.2" y2="925" stroke="#b8afa2" stroke-width="4.6" opacity="0.4"/><line x1="409.6" y1="575" x2="402.1" y2="925" stroke="#b8afa2" stroke-width="4.6" opacity="0.4"/><line x1="473" y1="575" x2="416.1" y2="925" stroke="#b8afa2" stroke-width="4.6" opacity="0.4"/><line x1="534.4" y1="575" x2="429.6" y2="925" stroke="#b8afa2" stroke-width="4.6" opacity="0.4"/><path d="M208 575 Q400 624 592 575 Q400 554 208 575 Z" fill="#eee8e0"/><path d="M342.4 732.5 L457.6 732.5 L448.4 781.5 L351.6 781.5 Z" fill="#b09a86"/><path d="M400 753.5 C323.2 697.5 307.8 802.5 400 753.5 Z" fill="#beac9c" stroke="#897869" stroke-width="1"/><path d="M400 760.5 Q361.6 851.5 338.6 907.5" fill="none" stroke="#b49f8c" stroke-width="10.8" stroke-linecap="round"/><path d="M400 753.5 C476.8 697.5 492.2 802.5 400 753.5 Z" fill="#beac9c" stroke="#897869" stroke-width="1"/><path d="M400 760.5 Q438.4 851.5 461.4 907.5" fill="none" stroke="#b49f8c" stroke-width="10.8" stroke-linecap="round"/></svg>