<svg xmlns="http://www.w3.org/2000/svg" xmlns:xlink="http://www.w3.org/1999/xlink" viewBox="0 0 560 560" width="560" height="560" role="img" aria-label="birthday"><title>birthday</title><defs><radialGradient id="g1" cx="50%" cy="38%" r="72%"><stop offset="0" stop-color="#fdf6e4"/><stop offset="1" stop-color="#f3e3bd"/></radialGradient><g id="s2"><path d="M0 0 C5 -30 -5 -60 0 -90" fill="none" stroke="#586f31" stroke-width="3.5"/><ellipse cx="-12.8" cy="-15" rx="15" ry="12.3" fill="#6e8b3d" opacity="0.95"/><ellipse cx="12.8" cy="-15" rx="15" ry="12.3" fill="#6e8b3d" opacity="0.95"/><ellipse cx="-11.3" cy="-31" rx="13.2" ry="10.9" fill="#779249" opacity="0.95"/><ellipse cx="11.3" cy="-31" rx="13.2" ry="10.9" fill="#779249" opacity="0.95"/><ellipse cx="-9.8" cy="-47" rx="11.5" ry="9.4" fill="#7f9954" opacity="0.95"/><ellipse cx="9.8" cy="-47" rx="11.5" ry="9.4" fill="#7f9954" opacity="0.95"/><ellipse cx="-8.3" cy="-63" rx="9.7" ry="8" fill="#88a060" opacity="0.95"/><ellipse cx="8.3" cy="-63" rx="9.7" ry="8" fill="#88a060" opacity="0.95"/><ellipse cx="-6.8" cy="-79" rx="8" ry="6.6" fill="#91a76c" opacity="0.95"/><ellipse cx="6.8" cy="-79" rx="8" ry="6.6" fill="#91a76c" opacity="0.95"/></g><linearGradient id="g4" x1="0" y1="0" x2="0" y2="1"><stop offset="0" stop-color="#7e9458"/><stop offset="1" stop-color="#4f642c"/></linearGradient><g id="s3"><path d="M0 0 C-21 -30 -15 -67.5 0 -87.5 C15 -67.5 21 -30 0 0 Z" fill="url(#g4)"/><path d="M0 -4 L0 -80" fill="none" stroke="#475a27" stroke-width="2.2" opacity="0.55"/></g><filter id="f5" x="-30%" y="-30%" width="160%" height="160%"><feGaussianBlur stdDeviation="17.1"/></filter><path id="p7" d="M0 0 C-8.5 -12.5 -8.5 -36 -1.5 -50 C8.5 -36 8.5 -12.5 0 0 Z"/><path id="p8" d="M0 0 C-7 -9.5 -7 -27.4 -1.5 -38 C7 -27.4 7 -9.5 0 0 Z"/><radialGradient id="g9" cx="45%" cy="35%" r="72%"><stop offset="0" stop-color="#6b4a22"/><stop offset="1" stop-color="#33210f"/></radialGradient><g id="s6"><use href="#p7" fill="#f3bc38" stroke="#996d0d" stroke-width="0.5" transform="rotate(0)"/><use href="#p7" fill="#f3bc38" stroke="#996d0d" stroke-width="0.5" transform="rotate(22.5)"/><use href="#p7" fill="#f3bc38" stroke="#996d0d" stroke-width="0.5" transform="rotate(45)"/><use href="#p7" fill="#f3bc38" stroke="#996d0d" stroke-width="0.5" transform="rotate(67.5)"/><use href="#p7" fill="#f3bc38" stroke="#996d0d" stroke-width="0.5" transform="rotate(90)"/><use href="#p7" fill="#f3bc38" stroke="#996d0d" stroke-width="0.5" transform="rotate(112.5)"/><use href="#p7" fill="#f3bc38" stroke="#996d0d" stroke-width="0.5" transform="rotate(135)"/><use href="#p7" fill="#f3bc38" stroke="#996d0d" stroke-width="0.5" transform="rotate(157.5)"/><use href="#p7" fill="#f3bc38" stroke="#996d0d" stroke-width="0.5" transform="rotate(180)"/><use href="#p7" fill="#f3bc38" stroke="#996d0d" stroke-width="0.5" transform="rotate(202.5)"/><use href="#p7" fill="#f3bc38" stroke="#996d0d" stroke-width="0.5" transform="rotate(225)"/><use href="#p7" fill="#f3bc38" stroke="#996d0d" stroke-width="0.5" transform="rotate(247.5)"/><use href="#p7" fill="#f3bc38" stroke="#996d0d" stroke-width="0.5" transform="rotate(270)"/><use href="#p7" fill="#f3bc38" stroke="#996d0d" stroke-width="0.5" transform="rotate(292.5)"/><use href="#p7" fill="#f3bc38" stroke="#996d0d" stroke-width="0.5" transform="rotate(315)"/><use href="#p7" fill="#f3bc38" stroke="#996d0d" stroke-width="0.5" transform="rotate(337.5)"/><use href="#p8" fill="#e8ad21" stroke="#996d0d" stroke-width="0.5" transform="rotate(12)"/><use href="#p8" fill="#e8ad21" stroke="#996d0d" stroke-width="0.5" transform="rotate(37.7)"/><use href="#p8" fill="#e8ad21" stroke="#996d0d" stroke-width="0.5" transform="rotate(63.4)"/><use href="#p8" fill="#e8ad21" stroke="#996d0d" stroke-width="0.5" transform="rotate(89.1)"/><use href="#p8" fill="#e8ad21" stroke="#996d0d" stroke-width="0.5" transform="rotate(114.9)"/><use href="#p8" fill="#e8ad21" stroke="#996d0d" stroke-width="0.5" transform="rotate(140.6)"/><use href="#p8" fill="#e8ad21" stroke="#996d0d" stroke-width="0.5" transform="rotate(166.3)"/><use href="#p8" fill="#e8ad21" stroke="#996d0d" stroke-width="0.5" transform="rotate(192)"/><use href="#p8" fill="#e8ad21" stroke="#996d0d" stroke-width="0.5" transform="rotate(217.7)"/><use href="#p8" fill="#e8ad21" stroke="#996d0d" stroke-width="0.5" transform="rotate(243.4)"/><use href="#p8" fill="#e8ad21" stroke="#996d0d" stroke-width="0.5" transform="rotate(269.1)"/><use href="#p8" fill="#e8ad21" stroke="#996d0d" stroke-width="0.5" transform="rotate(294.9)"/><use href="#p8" fill="#e8ad21" stroke="#996d0d" stroke-width="0.5" transform="rotate(320.6)"/><use href="#p8" fill="#e8ad21" stroke="#996d0d" stroke-width="0.5" transform="rotate(346.3)"/><circle r="21" fill="url(#g9)"/><circle cx="2.4" cy="0" r="2.2" fill="#8a6330" opacity="0.75"/><circle cx="-3.1" cy="2.8" r="2.2" fill="#8a6330" opacity="0.75"/><circle cx="0.5" cy="-5.4" r="2.2" fill="#8a6330" opacity="0.75"/><circle cx="3.9" cy="5.1" r="2.2" fill="#8a6330" opacity="0.75"/><circle cx="-7.2" cy="-1.3" r="2.2" fill="#8a6330" opacity="0.75"/><circle cx="6.8" cy="-4.3" r="2.2" fill="#8a6330" opacity="0.75"/><circle cx="-2.3" cy="8.4" r="2.2" fill="#8a6330" opacity="0.75"/><circle cx="-4.3" cy="-8.3" r="2.2" fill="#8a6330" opacity="0.75"/><circle cx="9.4" cy="3.4" r="2.2" fill="#8a6330" opacity="0.75"/><circle cx="-9.8" cy="4" r="2.2" fill="#8a6330" opacity="0.75"/><circle cx="4.7" cy="-10.1" r="2.2" fill="#8a6330" opacity="0.75"/><circle cx="3.5" cy="11.1" r="2.2" fill="#8a6330" opacity="0.75"/><circle cx="-10.5" cy="-6.1" r="2.2" fill="#8a6330" opacity="0.75"/><circle cx="12.3" cy="-2.7" r="2.2" fill="#8a6330" opacity="0.75"/><circle cx="-7.5" cy="10.7" r="2.2" fill="#8a6330" opacity="0.75"/><circle cx="-1.8" cy="-13.4" r="2.2" fill="#8a6330" opacity="0.75"/><circle cx="10.7" cy="9" r="2.2" fill="#8a6330" opacity="0.75"/><circle cx="-14.3" cy="0.6" r="2.2" fill="#8a6330" opacity="0.75"/><circle cx="10.4" cy="-10.4" r="2.2" fill="#8a6330" opacity="0.75"/><circle cx="-0.7" cy="15.1" r="2.2" fill="#8a6330" opacity="0.75"/><circle cx="-10" cy="-11.9" r="2.2" fill="#8a6330" opacity="0.75"/><circle cx="15.8" cy="2.1" r="2.2" fill="#8a6330" opacity="0.75"/><circle cx="-13.3" cy="9.3" r="2.2" fill="#8a6330" opacity="0.75"/><circle cx="3.6" cy="-16.2" r="2.2" fill="#8a6330" opacity="0.75"/><circle cx="8.5" cy="14.7" r="2.2" fill="#8a6330" opacity="0.75"/><circle cx="-16.5" cy="-5.2" r="2.2" fill="#8a6330" opacity="0.75"/><circle cx="16" cy="-7.5" r="2.2" fill="#8a6330" opacity="0.75"/><circle cx="-6.9" cy="16.6" r="2.2" fill="#8a6330" opacity="0.75"/><circle cx="-6.3" cy="-17.2" r="2.2" fill="#8a6330" opacity="0.75"/><circle cx="16.5" cy="8.6" r="2.2" fill="#8a6330" opacity="0.75"/><circle cx="-18.3" cy="4.9" r="2.2" fill="#8a6330" opacity="0.75"/><circle cx="10.3" cy="-16.2" r="2.2" fill="#8a6330" opacity="0.75"/><circle cx="3.4" cy="19.3" r="2.2" fill="#8a6330" opacity="0.75"/><circle cx="-15.7" cy="-12.1" r="2.2" fill="#8a6330" opacity="0.75"/></g><g id="s10"><use href="#p7" fill="#f3bc38" stroke="#996d0d" stroke-width="0.5" transform="rotate(0)"/><use href="#p7" fill="#f3bc38" stroke="#996d0d" stroke-width="0.5" transform="rotate(22.5)"/><use href="#p7" fill="#f3bc38" stroke="#996d0d" stroke-width="0.5" transform="rotate(45)"/><use href="#p7" fill="#f3bc38" stroke="#996d0d" stroke-width="0.5" transform="rotate(67.5)"/><use href="#p7" fill="#f3bc38" stroke="#996d0d" stroke-width="0.5" transform="rotate(90)"/><use href="#p7" fill="#f3bc38" stroke="#996d0d" stroke-width="0.5" transform="rotate(112.5)"/><use href="#p7" fill="#f3bc38" stroke="#996d0d" stroke-width="0.5" transform="rotate(135)"/><use href="#p7" fill="#f3bc38" stroke="#996d0d" stroke-width="0.5" transform="rotate(157.5)"/><use href="#p7" fill="#f3bc38" stroke="#996d0d" stroke-width="0.5" transform="rotate(180)"/><use href="#p7" fill="#f3bc38" stroke="#996d0d" stroke-width="0.5" transform="rotate(202.5)"/><use href="#p7" fill="#f3bc38" stroke="#996d0d" stroke-width="0.5" transform="rotate(225)"/><use href="#p7" fill="#f3bc38" stroke="#996d0d" stroke-width="0.5" transform="rotate(247.5)"/><use href="#p7" fill="#f3bc38" stroke="#996d0d" stroke-width="0.5" transform="rotate(270)"/><use href="#p7" fill="#f3bc38" stroke="#996d0d" stroke-width="0.5" transform="rotate(292.5)"/><use href="#p7" fill="#f3bc38" stroke="#996d0d" stroke-width="0.5" transform="rotate(315)"/><use href="#p7" fill="#f3bc38" stroke="#996d0d" stroke-width="0.5" transform="rotate(337.5)"/><use href="#p8" fill="#e8ad21" stroke="#996d0d" stroke-width="0.5" transform="rotate(12)"/><use href="#p8" fill="#e8ad21" stroke="#996d0d" stroke-width="0.5" transform="rotate(37.7)"/><use href="#p8" fill="#e8ad21" stroke="#996d0d" stroke-width="0.5" transform="rotate(63.4)"/><use href="#p8" fill="#e8ad21" stroke="#996d0d" stroke-width="0.5" transform="rotate(89.1)"/><use href="#p8" fill="#e8ad21" stroke="#996d0d" stroke-width="0.5" transform="rotate(114.9)"/><use href="#p8" fill="#e8ad21" stroke="#996d0d" stroke-width="0.5" transform="rotate(140.6)"/><use href="#p8" fill="#e8ad21" stroke="#996d0d" stroke-width="0.5" transform="rotate(166.3)"/><use href="#p8" fill="#e8ad21" stroke="#996d0d" stroke-width="0.5" transform="rotate(192)"/><use href="#p8" fill="#e8ad21" stroke="#996d0d" stroke-width="0.5" transform="rotate(217.7)"/><use href="#p8" fill="#e8ad21" stroke="#996d0d" stroke-width="0.5" transform="rotate(243.4)"/><use href="#p8" fill="#e8ad21" stroke="#996d0d" stroke-width="0.5" transform="rotate(269.1)"/><use href="#p8" fill="#e8ad21" stroke="#996d0d" stroke-width="0.5" transform="rotate(294.9)"/><use href="#p8" fill="#e8ad21" stroke="#996d0d" stroke-width="0.5" transform="rotate(320.6)"/><use href="#p8" fill="#e8ad21" stroke="#996d0d" stroke-width="0.5" transform="rotate(346.3)"/><circle r="21" fill="url(#g9)"/><circle cx="2.4" cy="0" r="2.2" fill="#8a6330" opacity="0.75"/><circle cx="-3.1" cy="2.8" r="2.2" fill="#8a6330" opacity="0.75"/><circle cx="0.5" cy="-5.4" r="2.2" fill="#8a6330" opacity="0.75"/><circle cx="3.9" cy="5.1" r="2.2" fill="#8a6330" opacity="0.75"/><circle cx="-7.2" cy="-1.3" r="2.2" fill="#8a6330" opacity="0.75"/><circle cx="6.8" cy="-4.3" r="2.2" fill="#8a6330" opacity="0.75"/><circle cx="-2.3" cy="8.4" r="2.2" fill="#8a6330" opacity="0.75"/><circle cx="-4.3" cy="-8.3" r="2.2" fill="#8a6330" opacity="0.75"/><circle cx="9.4" cy="3.4" r="2.2" fill="#8a6330" opacity="0.75"/><circle cx="-9.8" cy="4" r="2.2" fill="#8a6330" opacity="0.75"/><circle cx="4.7" cy="-10.1" r="2.2" fill="#8a6330" opacity="0.75"/><circle cx="3.5" cy="11.1" r="2.2" fill="#8a6330" opacity="0.75"/><circle cx="-10.5" cy="-6.1" r="2.2" fill="#8a6330" opacity="0.75"/><circle cx="12.3" cy="-2.7" r="2.2" fill="#8a6330" opacity="0.75"/><circle cx="-7.5" cy="10.7" r="2.2" fill="#8a6330" opacity="0.75"/><circle cx="-1.8" cy="-13.4" r="2.2" fill="#8a6330" opacity="0.75"/><circle cx="10.7" cy="9" r="2.2" fill="#8a6330" opacity="0.75"/><circle cx="-14.3" cy="0.6" r="2.2" fill="#8a6330" opacity="0.75"/><circle cx="10.4" cy="-10.4" r="2.2" fill="#8a6330" opacity="0.75"/><circle cx="-0.7" cy="15.1" r="2.2" fill="#8a6330" opacity="0.75"/><circle cx="-10" cy="-11.9" r="2.2" fill="#8a6330" opacity="0.75"/><circle cx="15.8" cy="2.1" r="2.2" fill="#8a6330" opacity="0.75"/><circle cx="-13.3" cy="9.3" r="2.2" fill="#8a6330" opacity="0.75"/><circle cx="3.6" cy="-16.2" r="2.2" fill="#8a6330" opacity="0.75"/><circle cx="8.5" cy="14.7" r="2.2" fill="#8a6330" opacity="0.75"/><circle cx="-16.5" cy="-5.2" r="2.2" fill="#8a6330" opacity="0.75"/><circle cx="16" cy="-7.5" r="2.2" fill="#8a6330" opacity="0.75"/><circle cx="-6.9" cy="16.6" r="2.2" fill="#8a6330" opacity="0.75"/><circle cx="-6.3" cy="-17.2" r="2.2" fill="#8a6330" opacity="0.75"/><circle cx="16.5" cy="8.6" r="2.2" fill="#8a6330" opacity="0.75"/><circle cx="-18.3" cy="4.9" r="2.2" fill="#8a6330" opacity="0.75"/><circle cx="10.3" cy="-16.2" r="2.2" fill="#8a6330" opacity="0.75"/><circle cx="3.4" cy="19.3" r="2.2" fill="#8a6330" opacity="0.75"/><circle cx="-15.7" cy="-12.1" r="2.2" fill="#8a6330" opacity="0.75"/></g><radialGradient id="g12" cx="45%" cy="35%" r="72%"><stop offset="0" stop-color="#eeae63"/><stop offset="1" stop-color="#d38b36"/></radialGradient><path id="p13" d="M0 0 C-23 -11 -25.8 -33 -11.5 -46.5 C-4.1 -53 4.1 -53 11.5 -46.5 C25.8 -33 23 -11 0 0 Z"/><radialGradient id="g14" cx="45%" cy="35%" r="72%"><stop offset="0" stop-color="#e19e56"/><stop offset="1" stop-color="#c37928"/></radialGradient><path id="p15" d="M0 0 C-18.5 -8.4 -20.7 -25.1 -9.2 -35.3 C-3.3 -40.3 3.3 -40.3 9.2 -35.3 C20.7 -25.1 18.5 -8.4 0 0 Z"/><path id="p16" d="M0 0 C-14.5 -6.1 -16.2 -18.2 -7.2 -25.6 C-2.6 -29.2 2.6 -29.2 7.2 -25.6 C16.2 -18.2 14.5 -6.1 0 0 Z"/><path id="p17" d="M0 0 C-11 -4.1 -12.3 -12.2 -5.5 -17.2 C-2 -19.6 2 -19.6 5.5 -17.2 C12.3 -12.2 11 -4.1 0 0 Z"/><g id="s11"><circle r="25" fill="#945b1e"/><use href="#p13" fill="url(#g12)" stroke="#ba9063" stroke-width="0.6" stroke-opacity="0.5" transform="rotate(16.7)" opacity="0.98"/><use href="#p13" fill="url(#g12)" stroke="#ba9063" stroke-width="0.6" stroke-opacity="0.5" transform="rotate(61.7)" opacity="0.98"/><use href="#p13" fill="url(#g12)" stroke="#ba9063" stroke-width="0.6" stroke-opacity="0.5" transform="rotate(106.7)" opacity="0.98"/><use href="#p13" fill="url(#g12)" stroke="#ba9063" stroke-width="0.6" stroke-opacity="0.5" transform="rotate(151.7)" opacity="0.98"/><use href="#p13" fill="url(#g12)" stroke="#ba9063" stroke-width="0.6" stroke-opacity="0.5" transform="rotate(196.7)" opacity="0.98"/><use href="#p13" fill="url(#g12)" stroke="#ba9063" stroke-width="0.6" stroke-opacity="0.5" transform="rotate(241.7)" opacity="0.98"/><use href="#p13" fill="url(#g12)" stroke="#ba9063" stroke-width="0.6" stroke-opacity="0.5" transform="rotate(286.7)" opacity="0.98"/><use href="#p13" fill="url(#g12)" stroke="#ba9063" stroke-width="0.6" stroke-opacity="0.5" transform="rotate(331.7)" opacity="0.98"/><use href="#p15" fill="url(#g14)" stroke="#ba9063" stroke-width="0.6" stroke-opacity="0.5" transform="rotate(40.7)" opacity="0.98"/><use href="#p15" fill="url(#g14)" stroke="#ba9063" stroke-width="0.6" stroke-opacity="0.5" transform="rotate(92.1)" opacity="0.98"/><use href="#p15" fill="url(#g14)" stroke="#ba9063" stroke-width="0.6" stroke-opacity="0.5" transform="rotate(143.6)" opacity="0.98"/><use href="#p15" fill="url(#g14)" stroke="#ba9063" stroke-width="0.6" stroke-opacity="0.5" transform="rotate(195)" opacity="0.98"/><use href="#p15" fill="url(#g14)" stroke="#ba9063" stroke-width="0.6" stroke-opacity="0.5" transform="rotate(246.4)" opacity="0.98"/><use href="#p15" fill="url(#g14)" stroke="#ba9063" stroke-width="0.6" stroke-opacity="0.5" transform="rotate(297.8)" opacity="0.98"/><use href="#p15" fill="url(#g14)" stroke="#ba9063" stroke-width="0.6" stroke-opacity="0.5" transform="rotate(349.3)" opacity="0.98"/><use href="#p16" fill="url(#g12)" stroke="#ba9063" stroke-width="0.6" stroke-opacity="0.5" transform="rotate(64.7)" opacity="0.98"/><use href="#p16" fill="url(#g12)" stroke="#ba9063" stroke-width="0.6" stroke-opacity="0.5" transform="rotate(124.7)" opacity="0.98"/><use href="#p16" fill="url(#g12)" stroke="#ba9063" stroke-width="0.6" stroke-opacity="0.5" transform="rotate(184.7)" opacity="0.98"/><use href="#p16" fill="url(#g12)" stroke="#ba9063" stroke-width="0.6" stroke-opacity="0.5" transform="rotate(244.7)" opacity="0.98"/><use href="#p16" fill="url(#g12)" stroke="#ba9063" stroke-width="0.6" stroke-opacity="0.5" transform="rotate(304.7)" opacity="0.98"/><use href="#p16" fill="url(#g12)" stroke="#ba9063" stroke-width="0.6" stroke-opacity="0.5" transform="rotate(364.7)" opacity="0.98"/><use href="#p17" fill="url(#g14)" stroke="#ba9063" stroke-width="0.6" stroke-opacity="0.5" transform="rotate(88.7)" opacity="0.98"/><use href="#p17" fill="url(#g14)" stroke="#ba9063" stroke-width="0.6" stroke-opacity="0.5" transform="rotate(160.7)" opacity="0.98"/><use href="#p17" fill="url(#g14)" stroke="#ba9063" stroke-width="0.6" stroke-opacity="0.5" transform="rotate(232.7)" opacity="0.98"/><use href="#p17" fill="url(#g14)" stroke="#ba9063" stroke-width="0.6" stroke-opacity="0.5" transform="rotate(304.7)" opacity="0.98"/><use href="#p17" fill="url(#g14)" stroke="#ba9063" stroke-width="0.6" stroke-opacity="0.5" transform="rotate(376.7)" opacity="0.98"/><circle r="11" fill="none" stroke="#ac7944" stroke-width="3.5" opacity="0.9"/><circle r="7" fill="none" stroke="#b6895a" stroke-width="3.5" opacity="0.9"/><circle r="3.5" fill="none" stroke="#c09970" stroke-width="3.5" opacity="0.9"/><circle r="2.2" fill="#7d4d1a"/></g><g id="s18"><circle r="25" fill="#945b1e"/><use href="#p13" fill="url(#g12)" stroke="#ba9063" stroke-width="0.6" stroke-opacity="0.5" transform="rotate(32.4)" opacity="0.98"/><use href="#p13" fill="url(#g12)" stroke="#ba9063" stroke-width="0.6" stroke-opacity="0.5" transform="rotate(77.4)" opacity="0.98"/><use href="#p13" fill="url(#g12)" stroke="#ba9063" stroke-width="0.6" stroke-opacity="0.5" transform="rotate(122.4)" opacity="0.98"/><use href="#p13" fill="url(#g12)" stroke="#ba9063" stroke-width="0.6" stroke-opacity="0.5" transform="rotate(167.4)" opacity="0.98"/><use href="#p13" fill="url(#g12)" stroke="#ba9063" stroke-width="0.6" stroke-opacity="0.5" transform="rotate(212.4)" opacity="0.98"/><use href="#p13" fill="url(#g12)" stroke="#ba9063" stroke-width="0.6" stroke-opacity="0.5" transform="rotate(257.4)" opacity="0.98"/><use href="#p13" fill="url(#g12)" stroke="#ba9063" stroke-width="0.6" stroke-opacity="0.5" transform="rotate(302.4)" opacity="0.98"/><use href="#p13" fill="url(#g12)" stroke="#ba9063" stroke-width="0.6" stroke-opacity="0.5" transform="rotate(347.4)" opacity="0.98"/><use href="#p15" fill="url(#g14)" stroke="#ba9063" stroke-width="0.6" stroke-opacity="0.5" transform="rotate(56.4)" opacity="0.98"/><use href="#p15" fill="url(#g14)" stroke="#ba9063" stroke-width="0.6" stroke-opacity="0.5" transform="rotate(107.8)" opacity="0.98"/><use href="#p15" fill="url(#g14)" stroke="#ba9063" stroke-width="0.6" stroke-opacity="0.5" transform="rotate(159.3)" opacity="0.98"/><use href="#p15" fill="url(#g14)" stroke="#ba9063" stroke-width="0.6" stroke-opacity="0.5" transform="rotate(210.7)" opacity="0.98"/><use href="#p15" fill="url(#g14)" stroke="#ba9063" stroke-width="0.6" stroke-opacity="0.5" transform="rotate(262.1)" opacity="0.98"/><use href="#p15" fill="url(#g14)" stroke="#ba9063" stroke-width="0.6" stroke-opacity="0.5" transform="rotate(313.5)" opacity="0.98"/><use href="#p15" fill="url(#g14)" stroke="#ba9063" stroke-width="0.6" stroke-opacity="0.5" transform="rotate(365)" opacity="0.98"/><use href="#p16" fill="url(#g12)" stroke="#ba9063" stroke-width="0.6" stroke-opacity="0.5" transform="rotate(80.4)" opacity="0.98"/><use href="#p16" fill="url(#g12)" stroke="#ba9063" stroke-width="0.6" stroke-opacity="0.5" transform="rotate(140.4)" opacity="0.98"/><use href="#p16" fill="url(#g12)" stroke="#ba9063" stroke-width="0.6" stroke-opacity="0.5" transform="rotate(200.4)" opacity="0.98"/><use href="#p16" fill="url(#g12)" stroke="#ba9063" stroke-width="0.6" stroke-opacity="0.5" transform="rotate(260.4)" opacity="0.98"/><use href="#p16" fill="url(#g12)" stroke="#ba9063" stroke-width="0.6" stroke-opacity="0.5" transform="rotate(320.4)" opacity="0.98"/><use href="#p16" fill="url(#g12)" stroke="#ba9063" stroke-width="0.6" stroke-opacity="0.5" transform="rotate(380.4)" opacity="0.98"/><use href="#p17" fill="url(#g14)" stroke="#ba9063" stroke-width="0.6" stroke-opacity="0.5" transform="rotate(104.4)" opacity="0.98"/><use href="#p17" fill="url(#g14)" stroke="#ba9063" stroke-width="0.6" stroke-opacity="0.5" transform="rotate(176.4)" opacity="0.98"/><use href="#p17" fill="url(#g14)" stroke="#ba9063" stroke-width="0.6" stroke-opacity="0.5" transform="rotate(248.4)" opacity="0.98"/><use href="#p17" fill="url(#g14)" stroke="#ba9063" stroke-width="0.6" stroke-opacity="0.5" transform="rotate(320.4)" opacity="0.98"/><use href="#p17" fill="url(#g14)" stroke="#ba9063" stroke-width="0.6" stroke-opacity="0.5" transform="rotate(392.4)" opacity="0.98"/><circle r="11" fill="none" stroke="#ac7944" stroke-width="3.5" opacity="0.9"/><circle r="7" fill="none" stroke="#b6895a" stroke-width="3.5" opacity="0.9"/><circle r="3.5" fill="none" stroke="#c09970" stroke-width="3.5" opacity="0.9"/><circle r="2.2" fill="#7d4d1a"/></g><g id="s19"><circle cx="-16.3" cy="36.1" r="12.4" fill="#f8e59a" opacity="0.95"/><circle cx="-16.3" cy="36.1" r="4.4" fill="#bbad75" opacity="0.6"/><circle cx="-18.6" cy="-14.4" r="14.3" fill="#f8e59a" opacity="0.95"/><circle cx="-18.6" cy="-14.4" r="5" fill="#bbad75" opacity="0.6"/><circle cx="38.6" cy="11.8" r="9.4" fill="#f8e59a" opacity="0.95"/><circle cx="38.6" cy="11.8" r="3.3" fill="#bbad75" opacity="0.6"/><circle cx="-5.2" cy="-5.9" r="14" fill="#f8e59a" opacity="0.95"/><circle cx="-5.2" cy="-5.9" r="4.9" fill="#bbad75" opacity="0.6"/><circle cx="-11.5" cy="-23" r="8.2" fill="#f8e59a" opacity="0.95"/><circle cx="-11.5" cy="-23" r="2.9" fill="#bbad75" opacity="0.6"/><circle cx="-24.7" cy="28" r="11.6" fill="#f8e59a" opacity="0.95"/><circle cx="-24.7" cy="28" r="4.1" fill="#bbad75" opacity="0.6"/><circle cx="-3.7" cy="-12.4" r="11.3" fill="#f8e59a" opacity="0.95"/><circle cx="-3.7" cy="-12.4" r="4" fill="#bbad75" opacity="0.6"/></g><g id="s20"><circle cx="27.7" cy="30.7" r="12.5" fill="#f8e59a" opacity="0.95"/><circle cx="27.7" cy="30.7" r="4.4" fill="#bbad75" opacity="0.6"/><circle cx="-24.5" cy="14.3" r="8.2" fill="#f8e59a" opacity="0.95"/><circle cx="-24.5" cy="14.3" r="2.9" fill="#bbad75" opacity="0.6"/><circle cx="28.7" cy="24.1" r="8.2" fill="#f8e59a" opacity="0.95"/><circle cx="28.7" cy="24.1" r="2.9" fill="#bbad75" opacity="0.6"/><circle cx="26.1" cy="-34.4" r="13.2" fill="#f8e59a" opacity="0.95"/><circle cx="26.1" cy="-34.4" r="4.6" fill="#bbad75" opacity="0.6"/><circle cx="-6.9" cy="-10.7" r="10" fill="#f8e59a" opacity="0.95"/><circle cx="-6.9" cy="-10.7" r="3.5" fill="#bbad75" opacity="0.6"/><circle cx="-10.6" cy="3" r="13.3" fill="#f8e59a" opacity="0.95"/><circle cx="-10.6" cy="3" r="4.7" fill="#bbad75" opacity="0.6"/><circle cx="26.9" cy="-19" r="15" fill="#f8e59a" opacity="0.95"/><circle cx="26.9" cy="-19" r="5.2" fill="#bbad75" opacity="0.6"/></g><linearGradient id="g21" x1="0" y1="0" x2="1" y2="0"><stop offset="0" stop-color="#e0caa8"/><stop offset="1" stop-color="#a68e65"/></linearGradient></defs><rect width="560" height="560" fill="url(#g1)"/><circle cx="132.2" cy="96.2" r="105" fill="#ffffff" opacity="0.11"/><circle cx="365" cy="180.5" r="41.9" fill="#ffffff" opacity="0.07"/><circle cx="472.1" cy="70.9" r="42.8" fill="#ffffff" opacity="0.09"/><circle cx="16.8" cy="234.9" r="75.7" fill="#ffffff" opacity="0.06"/><circle cx="188.5" cy="262.4" r="66" fill="#ffffff" opacity="0.10"/><circle cx="23.1" cy="188.8" r="60.5" fill="#ffffff" opacity="0.06"/><circle cx="261.2" cy="336.4" r="36.6" fill="#ffffff" opacity="0.13"/><rect y="481.6" width="560" height="78.4" fill="#dbccaa" opacity="0.4"/><ellipse cx="280" cy="467.8" rx="177.4" ry="20.5" fill="#3a2f28" opacity="0.16"/><use href="#s2" transform="translate(235.8 292.3) rotate(-173) scale(0.655)" opacity="0.86"/><use href="#s3" transform="translate(206.9 269.9) rotate(-152.2) scale(0.443)" opacity="0.93"/><use href="#s2" transform="translate(176.6 258.2) rotate(-148.8) scale(0.651)" opacity="0.91"/><use href="#s3" transform="translate(131.3 235.7) rotate(-123) scale(0.648)" opacity="0.91"/><use href="#s2" transform="translate(111.1 216.5) rotate(-115.1) scale(0.468)" opacity="0.89"/><use href="#s3" transform="translate(127.1 180.6) rotate(-96.1) scale(0.502)" opacity="0.96"/><use href="#s2" transform="translate(109.8 146.3) rotate(-75.8) scale(0.477)" opacity="0.92"/><use href="#s3" transform="translate(170.4 119.3) rotate(-34.1) scale(0.564)" opacity="1.00"/><use href="#s2" transform="translate(210.7 109.4) rotate(-33.5) scale(0.473)" opacity="0.96"/><use href="#s3" transform="translate(256.3 102.5) rotate(1.4) scale(0.605)" opacity="0.86"/><use href="#s2" transform="translate(296.8 92.5) rotate(4.9) scale(0.490)" opacity="0.86"/><use href="#s3" transform="translate(372.3 99.3) rotate(21.7) scale(0.440)" opacity="0.86"/><use href="#s2" transform="translate(394.5 135.1) rotate(44) scale(0.516)" opacity="0.93"/><use href="#s3" transform="translate(423.7 154.6) rotate(69.5) scale(0.515)" opacity="0.98"/><use href="#s2" transform="translate(442.3 177.5) rotate(84.9) scale(0.642)" opacity="0.87"/><use href="#s3" transform="translate(458.6 214) rotate(96.1) scale(0.491)" opacity="0.85"/><use href="#s2" transform="translate(437.6 239.9) rotate(125.7) scale(0.519)" opacity="0.90"/><use href="#s3" transform="translate(393.5 253.8) rotate(127.4) scale(0.472)" opacity="0.90"/><use href="#s2" transform="translate(366.7 271.4) rotate(158.9) scale(0.459)" opacity="0.97"/><use href="#s3" transform="translate(318.7 287.8) rotate(157.5) scale(0.564)" opacity="0.91"/><ellipse cx="280" cy="207.7" rx="123" ry="74.5" fill="#4d612b" opacity="0.32" filter="url(#f5)"/><use href="#s3" transform="translate(204.8 164.6) rotate(228.2) scale(0.324)" opacity="0.85"/><use href="#s3" transform="translate(362.4 264.1) rotate(128.6) scale(0.432)" opacity="0.85"/><use href="#s3" transform="translate(241.8 132.5) rotate(1.5) scale(0.383)" opacity="0.85"/><use href="#s3" transform="translate(338.8 195.5) rotate(277.3) scale(0.348)" opacity="0.85"/><use href="#s3" transform="translate(356.8 256.6) rotate(59.2) scale(0.428)" opacity="0.85"/><use href="#s3" transform="translate(159.2 216.4) rotate(107.1) scale(0.431)" opacity="0.85"/><use href="#s3" transform="translate(260.6 115.8) rotate(47.7) scale(0.425)" opacity="0.85"/><use href="#s3" transform="translate(393.5 167.2) rotate(145.9) scale(0.311)" opacity="0.85"/><use href="#s3" transform="translate(393.4 253.9) rotate(309.7) scale(0.284)" opacity="0.85"/><use href="#s3" transform="translate(399 199.6) rotate(206.5) scale(0.314)" opacity="0.85"/><use href="#s3" transform="translate(363.8 182.1) rotate(204.8) scale(0.325)" opacity="0.85"/><use href="#s3" transform="translate(152.1 147.2) rotate(140.7) scale(0.319)" opacity="0.85"/><use href="#s3" transform="translate(271.5 288.5) rotate(97.5) scale(0.426)" opacity="0.85"/><use href="#s3" transform="translate(164.6 248.5) rotate(286.4) scale(0.417)" opacity="0.85"/><use href="#s3" transform="translate(164.7 162) rotate(132) scale(0.293)" opacity="0.85"/><use href="#s3" transform="translate(238.5 109.9) rotate(354.3) scale(0.284)" opacity="0.85"/><use href="#s19" transform="translate(280.4 100.2) rotate(45.9) scale(0.312)"/><use href="#s11" transform="translate(236.5 113.6) rotate(210.4) scale(0.659)"/><use href="#s6" transform="translate(332.6 123) rotate(7.9) scale(0.914)"/><use href="#s20" transform="translate(330.9 129.7) rotate(253.2) scale(0.333)"/><use href="#s11" transform="translate(369.5 141.5) rotate(324.5) scale(0.817)"/><use href="#s19" transform="translate(237.3 141.8) rotate(37.3) scale(0.411)"/><use href="#s18" transform="translate(269.5 142.5) rotate(64.3) scale(0.847)"/><use href="#s20" transform="translate(273.9 155.3) rotate(153.9) scale(0.426)"/><use href="#s10" transform="translate(141.1 160.5) rotate(0.3) scale(0.914)"/><use href="#s20" transform="translate(349.5 163.3) rotate(226.3) scale(0.421)"/><use href="#s19" transform="translate(166.3 172.2) rotate(57.6) scale(0.336)"/><use href="#s19" transform="translate(402.9 185.6) rotate(264) scale(0.328)"/><use href="#s19" transform="translate(304.5 187.7) rotate(16.3) scale(0.425)"/><use href="#s11" transform="translate(315.3 189.4) rotate(15.3) scale(0.824)"/><use href="#s19" transform="translate(200.7 190) rotate(293.8) scale(0.376)"/><use href="#s19" transform="translate(128.6 190.4) rotate(212.7) scale(0.318)"/><use href="#s6" transform="translate(329.5 193.1) rotate(-10.4) scale(1.115)"/><use href="#s11" transform="translate(163.8 203.2) rotate(138.5) scale(0.787)"/><use href="#s20" transform="translate(244.9 207.4) rotate(78.4) scale(0.400)"/><use href="#s20" transform="translate(379.9 215.5) rotate(164.9) scale(0.394)"/><use href="#s11" transform="translate(232.6 215.9) rotate(255.6) scale(0.902)"/><use href="#s20" transform="translate(326.3 219.1) rotate(281.9) scale(0.426)"/><use href="#s20" transform="translate(178.4 221) rotate(212.9) scale(0.337)"/><use href="#s6" transform="translate(211.8 234.3) rotate(21.5) scale(1.093)"/><use href="#s11" transform="translate(313.7 246.9) rotate(197.2) scale(0.759)"/><use href="#s20" transform="translate(255.1 247.7) rotate(304.3) scale(0.333)"/><use href="#s11" transform="translate(411.3 248.1) rotate(205.2) scale(0.769)"/><use href="#s19" transform="translate(188.5 251.7) rotate(323) scale(0.310)"/><use href="#s18" transform="translate(198.4 258.7) rotate(147.4) scale(0.695)"/><use href="#s20" transform="translate(349 264.9) rotate(340.8) scale(0.307)"/><use href="#s19" transform="translate(287.1 272.1) rotate(225.1) scale(0.384)"/><use href="#s6" transform="translate(337.6 274.8) rotate(-18.7) scale(0.921)"/><use href="#s2" transform="translate(181.3 271.2) rotate(-151.4) scale(0.303)" opacity="0.90"/><use href="#s2" transform="translate(136.3 169.3) rotate(-78.8) scale(0.408)" opacity="0.90"/><use href="#s2" transform="translate(220.1 119.9) rotate(-18) scale(0.389)" opacity="0.90"/><use href="#s2" transform="translate(366.3 121.5) rotate(47.5) scale(0.419)" opacity="0.90"/><use href="#s2" transform="translate(421.9 179.5) rotate(78.4) scale(0.389)" opacity="0.90"/><use href="#s2" transform="translate(397.6 247.2) rotate(104) scale(0.366)" opacity="0.90"/><path d="M145.6 277.9 L250.4 464.1 L309.6 464.1 L414.4 277.9 Z" fill="url(#g21)"/><line x1="196.7" y1="277.9" x2="261.7" y2="464.1" stroke="#aa9168" stroke-width="3.2" opacity="0.4"/><line x1="242.4" y1="277.9" x2="271.7" y2="464.1" stroke="#aa9168" stroke-width="3.2" opacity="0.4"/><line x1="286.7" y1="277.9" x2="281.5" y2="464.1" stroke="#aa9168" stroke-width="3.2" opacity="0.4"/><line x1="331.1" y1="277.9" x2="291.2" y2="464.1" stroke="#aa9168" stroke-width="3.2" opacity="0.4"/><line x1="374.1" y1="277.9" x2="300.7" y2="464.1" stroke="#aa9168" stroke-width="3.2" opacity="0.4"/><path d="M145.6 277.9 Q280 304 414.4 277.9 Q280 266.7 145.6 277.9 Z" fill="#e4d1b3"/><path d="M239.7 361.7 L320.3 361.7 L313.9 387.8 L246.1 387.8 Z" fill="#7f8f4c"/><path d="M280 372.9 C226.2 343.1 215.5 398.9 280 372.9 Z" fill="#96a36c" stroke="#63703b" stroke-width="1"/><path d="M280 376.6 Q253.1 425 237 454.8" fill="none" stroke="#859555" stroke-width="7.5" stroke-linecap="round"/><path d="M280 372.9 C333.8 343.1 344.5 398.9 280 372.9 Z" fill="#96a36c" stroke="#63703b" stroke-width="1"/><path d="M280 376.6 Q306.9 425 323 454.8" fill="none" stroke="#859555" stroke-width="7.5" stroke-linecap="round"/></svg>