<svg xmlns="http://www.w3.org/2000/svg" xmlns:xlink="http://www.w3.org/1999/xlink" viewBox="0 0 560 560" width="560" height="560" role="img" aria-label="congratulations"><title>congratulations</title><defs><radialGradient id="g1" cx="50%" cy="38%" r="72%"><stop offset="0" stop-color="#eef1f7"/><stop offset="1" stop-color="#d7dde9"/></radialGradient><g id="s2"><path d="M0 0 C5 -30 -5 -60 0 -90" fill="none" stroke="#325044" stroke-width="3.5"/><ellipse cx="-12.8" cy="-15" rx="15" ry="12.3" fill="#3f6455" opacity="0.95"/><ellipse cx="12.8" cy="-15" rx="15" ry="12.3" fill="#3f6455" opacity="0.95"/><ellipse cx="-11.3" cy="-31" rx="13.2" ry="10.9" fill="#4b6d5f" opacity="0.95"/><ellipse cx="11.3" cy="-31" rx="13.2" ry="10.9" fill="#4b6d5f" opacity="0.95"/><ellipse cx="-9.8" cy="-47" rx="11.5" ry="9.4" fill="#567769" opacity="0.95"/><ellipse cx="9.8" cy="-47" rx="11.5" ry="9.4" fill="#567769" opacity="0.95"/><ellipse cx="-8.3" cy="-63" rx="9.7" ry="8" fill="#628074" opacity="0.95"/><ellipse cx="8.3" cy="-63" rx="9.7" ry="8" fill="#628074" opacity="0.95"/><ellipse cx="-6.8" cy="-79" rx="8" ry="6.6" fill="#6d897e" opacity="0.95"/><ellipse cx="6.8" cy="-79" rx="8" ry="6.6" fill="#6d897e" opacity="0.95"/></g><linearGradient id="g4" x1="0" y1="0" x2="0" y2="1"><stop offset="0" stop-color="#5a766a"/><stop offset="1" stop-color="#2d483d"/></linearGradient><g id="s3"><path d="M0 0 C-21 -30 -15 -67.5 0 -87.5 C15 -67.5 21 -30 0 0 Z" fill="url(#g4)"/><path d="M0 -4 L0 -80" fill="none" stroke="#294037" stroke-width="2.2" opacity="0.55"/></g><filter id="f5" x="-30%" y="-30%" width="160%" height="160%"><feGaussianBlur stdDeviation="16.8"/></filter><radialGradient id="g7" cx="45%" cy="35%" r="72%"><stop offset="0" stop-color="#6675b1"/><stop offset="1" stop-color="#8391c6"/></radialGradient><g id="s6"><circle r="49" fill="url(#g7)" opacity="0.55"/><g transform="translate(6 0) rotate(87.7)"><ellipse cx="0" cy="-8.5" rx="6.5" ry="8.5" fill="#5768a9" transform="rotate(0)"/><ellipse cx="0" cy="-8.5" rx="6.5" ry="8.5" fill="#5768a9" transform="rotate(90)"/><ellipse cx="0" cy="-8.5" rx="6.5" ry="8.5" fill="#5768a9" transform="rotate(180)"/><ellipse cx="0" cy="-8.5" rx="6.5" ry="8.5" fill="#5768a9" transform="rotate(270)"/><circle r="2.5" fill="#3d4976"/></g><g transform="translate(-8.3 7.6) rotate(63.7)"><ellipse cx="0" cy="-8.5" rx="6.5" ry="8.5" fill="#6a7ab7" transform="rotate(0)"/><ellipse cx="0" cy="-8.5" rx="6.5" ry="8.5" fill="#6a7ab7" transform="rotate(90)"/><ellipse cx="0" cy="-8.5" rx="6.5" ry="8.5" fill="#6a7ab7" transform="rotate(180)"/><ellipse cx="0" cy="-8.5" rx="6.5" ry="8.5" fill="#6a7ab7" transform="rotate(270)"/><circle r="2.5" fill="#4a5580"/></g><g transform="translate(1.3 -14.6) rotate(78.3)"><ellipse cx="0" cy="-8.5" rx="6.5" ry="8.5" fill="#6a7bb8" transform="rotate(0)"/><ellipse cx="0" cy="-8.5" rx="6.5" ry="8.5" fill="#6a7bb8" transform="rotate(90)"/><ellipse cx="0" cy="-8.5" rx="6.5" ry="8.5" fill="#6a7bb8" transform="rotate(180)"/><ellipse cx="0" cy="-8.5" rx="6.5" ry="8.5" fill="#6a7bb8" transform="rotate(270)"/><circle r="2.5" fill="#4a5681"/></g><g transform="translate(10.6 13.8) rotate(40.3)"><ellipse cx="0" cy="-8.5" rx="6.5" ry="8.5" fill="#6272af" transform="rotate(0)"/><ellipse cx="0" cy="-8.5" rx="6.5" ry="8.5" fill="#6272af" transform="rotate(90)"/><ellipse cx="0" cy="-8.5" rx="6.5" ry="8.5" fill="#6272af" transform="rotate(180)"/><ellipse cx="0" cy="-8.5" rx="6.5" ry="8.5" fill="#6272af" transform="rotate(270)"/><circle r="2.5" fill="#45507a"/></g><g transform="translate(-19.5 -3.4) rotate(45.8)"><ellipse cx="0" cy="-8.5" rx="6.5" ry="8.5" fill="#7888c4" transform="rotate(0)"/><ellipse cx="0" cy="-8.5" rx="6.5" ry="8.5" fill="#7888c4" transform="rotate(90)"/><ellipse cx="0" cy="-8.5" rx="6.5" ry="8.5" fill="#7888c4" transform="rotate(180)"/><ellipse cx="0" cy="-8.5" rx="6.5" ry="8.5" fill="#7888c4" transform="rotate(270)"/><circle r="2.5" fill="#545f89"/></g><g transform="translate(18.5 -11.8) rotate(72.8)"><ellipse cx="0" cy="-8.5" rx="6.5" ry="8.5" fill="#7b8bc5" transform="rotate(0)"/><ellipse cx="0" cy="-8.5" rx="6.5" ry="8.5" fill="#7b8bc5" transform="rotate(90)"/><ellipse cx="0" cy="-8.5" rx="6.5" ry="8.5" fill="#7b8bc5" transform="rotate(180)"/><ellipse cx="0" cy="-8.5" rx="6.5" ry="8.5" fill="#7b8bc5" transform="rotate(270)"/><circle r="2.5" fill="#56618a"/></g><g transform="translate(-6.2 23.1) rotate(1.5)"><ellipse cx="0" cy="-8.5" rx="6.5" ry="8.5" fill="#6877b2" transform="rotate(0)"/><ellipse cx="0" cy="-8.5" rx="6.5" ry="8.5" fill="#6877b2" transform="rotate(90)"/><ellipse cx="0" cy="-8.5" rx="6.5" ry="8.5" fill="#6877b2" transform="rotate(180)"/><ellipse cx="0" cy="-8.5" rx="6.5" ry="8.5" fill="#6877b2" transform="rotate(270)"/><circle r="2.5" fill="#49537d"/></g><g transform="translate(-11.9 -22.8) rotate(72.3)"><ellipse cx="0" cy="-8.5" rx="6.5" ry="8.5" fill="#7787c4" transform="rotate(0)"/><ellipse cx="0" cy="-8.5" rx="6.5" ry="8.5" fill="#7787c4" transform="rotate(90)"/><ellipse cx="0" cy="-8.5" rx="6.5" ry="8.5" fill="#7787c4" transform="rotate(180)"/><ellipse cx="0" cy="-8.5" rx="6.5" ry="8.5" fill="#7787c4" transform="rotate(270)"/><circle r="2.5" fill="#535e89"/></g><g transform="translate(25.8 9.4) rotate(24.9)"><ellipse cx="0" cy="-8.5" rx="6.5" ry="8.5" fill="#6777b2" transform="rotate(0)"/><ellipse cx="0" cy="-8.5" rx="6.5" ry="8.5" fill="#6777b2" transform="rotate(90)"/><ellipse cx="0" cy="-8.5" rx="6.5" ry="8.5" fill="#6777b2" transform="rotate(180)"/><ellipse cx="0" cy="-8.5" rx="6.5" ry="8.5" fill="#6777b2" transform="rotate(270)"/><circle r="2.5" fill="#48537d"/></g><g transform="translate(-26.8 11.1) rotate(53.5)"><ellipse cx="0" cy="-8.5" rx="6.5" ry="8.5" fill="#5c6dac" transform="rotate(0)"/><ellipse cx="0" cy="-8.5" rx="6.5" ry="8.5" fill="#5c6dac" transform="rotate(90)"/><ellipse cx="0" cy="-8.5" rx="6.5" ry="8.5" fill="#5c6dac" transform="rotate(180)"/><ellipse cx="0" cy="-8.5" rx="6.5" ry="8.5" fill="#5c6dac" transform="rotate(270)"/><circle r="2.5" fill="#404c78"/></g><g transform="translate(12.9 -27.6) rotate(71.5)"><ellipse cx="0" cy="-8.5" rx="6.5" ry="8.5" fill="#7a8ac5" transform="rotate(0)"/><ellipse cx="0" cy="-8.5" rx="6.5" ry="8.5" fill="#7a8ac5" transform="rotate(90)"/><ellipse cx="0" cy="-8.5" rx="6.5" ry="8.5" fill="#7a8ac5" transform="rotate(180)"/><ellipse cx="0" cy="-8.5" rx="6.5" ry="8.5" fill="#7a8ac5" transform="rotate(270)"/><circle r="2.5" fill="#55618a"/></g><g transform="translate(9.6 30.5) rotate(15.4)"><ellipse cx="0" cy="-8.5" rx="6.5" ry="8.5" fill="#7b8ac5" transform="rotate(0)"/><ellipse cx="0" cy="-8.5" rx="6.5" ry="8.5" fill="#7b8ac5" transform="rotate(90)"/><ellipse cx="0" cy="-8.5" rx="6.5" ry="8.5" fill="#7b8ac5" transform="rotate(180)"/><ellipse cx="0" cy="-8.5" rx="6.5" ry="8.5" fill="#7b8ac5" transform="rotate(270)"/><circle r="2.5" fill="#56618a"/></g><g transform="translate(-28.8 -16.7) rotate(14.7)"><ellipse cx="0" cy="-8.5" rx="6.5" ry="8.5" fill="#4e5e9b" transform="rotate(0)"/><ellipse cx="0" cy="-8.5" rx="6.5" ry="8.5" fill="#4e5e9b" transform="rotate(90)"/><ellipse cx="0" cy="-8.5" rx="6.5" ry="8.5" fill="#4e5e9b" transform="rotate(180)"/><ellipse cx="0" cy="-8.5" rx="6.5" ry="8.5" fill="#4e5e9b" transform="rotate(270)"/><circle r="2.5" fill="#37426c"/></g><g transform="translate(33.8 -7.5) rotate(11.4)"><ellipse cx="0" cy="-8.5" rx="6.5" ry="8.5" fill="#697ab6" transform="rotate(0)"/><ellipse cx="0" cy="-8.5" rx="6.5" ry="8.5" fill="#697ab6" transform="rotate(90)"/><ellipse cx="0" cy="-8.5" rx="6.5" ry="8.5" fill="#697ab6" transform="rotate(180)"/><ellipse cx="0" cy="-8.5" rx="6.5" ry="8.5" fill="#697ab6" transform="rotate(270)"/><circle r="2.5" fill="#4a557f"/></g><g transform="translate(-20.6 29.4) rotate(57.1)"><ellipse cx="0" cy="-8.5" rx="6.5" ry="8.5" fill="#6877b3" transform="rotate(0)"/><ellipse cx="0" cy="-8.5" rx="6.5" ry="8.5" fill="#6877b3" transform="rotate(90)"/><ellipse cx="0" cy="-8.5" rx="6.5" ry="8.5" fill="#6877b3" transform="rotate(180)"/><ellipse cx="0" cy="-8.5" rx="6.5" ry="8.5" fill="#6877b3" transform="rotate(270)"/><circle r="2.5" fill="#49537d"/></g><g transform="translate(-4.8 -36.8) rotate(9.3)"><ellipse cx="0" cy="-8.5" rx="6.5" ry="8.5" fill="#5566a8" transform="rotate(0)"/><ellipse cx="0" cy="-8.5" rx="6.5" ry="8.5" fill="#5566a8" transform="rotate(90)"/><ellipse cx="0" cy="-8.5" rx="6.5" ry="8.5" fill="#5566a8" transform="rotate(180)"/><ellipse cx="0" cy="-8.5" rx="6.5" ry="8.5" fill="#5566a8" transform="rotate(270)"/><circle r="2.5" fill="#3b4776"/></g><g transform="translate(29.3 24.6) rotate(82.8)"><ellipse cx="0" cy="-8.5" rx="6.5" ry="8.5" fill="#7c8bc5" transform="rotate(0)"/><ellipse cx="0" cy="-8.5" rx="6.5" ry="8.5" fill="#7c8bc5" transform="rotate(90)"/><ellipse cx="0" cy="-8.5" rx="6.5" ry="8.5" fill="#7c8bc5" transform="rotate(180)"/><ellipse cx="0" cy="-8.5" rx="6.5" ry="8.5" fill="#7c8bc5" transform="rotate(270)"/><circle r="2.5" fill="#57618a"/></g></g><g id="s8"><circle r="49" fill="url(#g7)" opacity="0.55"/><g transform="translate(6 0) rotate(43.2)"><ellipse cx="0" cy="-8.5" rx="6.5" ry="8.5" fill="#5566a7" transform="rotate(0)"/><ellipse cx="0" cy="-8.5" rx="6.5" ry="8.5" fill="#5566a7" transform="rotate(90)"/><ellipse cx="0" cy="-8.5" rx="6.5" ry="8.5" fill="#5566a7" transform="rotate(180)"/><ellipse cx="0" cy="-8.5" rx="6.5" ry="8.5" fill="#5566a7" transform="rotate(270)"/><circle r="2.5" fill="#3b4775"/></g><g transform="translate(-8.3 7.6) rotate(37.4)"><ellipse cx="0" cy="-8.5" rx="6.5" ry="8.5" fill="#8593c9" transform="rotate(0)"/><ellipse cx="0" cy="-8.5" rx="6.5" ry="8.5" fill="#8593c9" transform="rotate(90)"/><ellipse cx="0" cy="-8.5" rx="6.5" ry="8.5" fill="#8593c9" transform="rotate(180)"/><ellipse cx="0" cy="-8.5" rx="6.5" ry="8.5" fill="#8593c9" transform="rotate(270)"/><circle r="2.5" fill="#5d678d"/></g><g transform="translate(1.3 -14.6) rotate(25.6)"><ellipse cx="0" cy="-8.5" rx="6.5" ry="8.5" fill="#8290c8" transform="rotate(0)"/><ellipse cx="0" cy="-8.5" rx="6.5" ry="8.5" fill="#8290c8" transform="rotate(90)"/><ellipse cx="0" cy="-8.5" rx="6.5" ry="8.5" fill="#8290c8" transform="rotate(180)"/><ellipse cx="0" cy="-8.5" rx="6.5" ry="8.5" fill="#8290c8" transform="rotate(270)"/><circle r="2.5" fill="#5b658c"/></g><g transform="translate(10.6 13.8) rotate(16.7)"><ellipse cx="0" cy="-8.5" rx="6.5" ry="8.5" fill="#5e6ead" transform="rotate(0)"/><ellipse cx="0" cy="-8.5" rx="6.5" ry="8.5" fill="#5e6ead" transform="rotate(90)"/><ellipse cx="0" cy="-8.5" rx="6.5" ry="8.5" fill="#5e6ead" transform="rotate(180)"/><ellipse cx="0" cy="-8.5" rx="6.5" ry="8.5" fill="#5e6ead" transform="rotate(270)"/><circle r="2.5" fill="#424d79"/></g><g transform="translate(-19.5 -3.4) rotate(15.3)"><ellipse cx="0" cy="-8.5" rx="6.5" ry="8.5" fill="#7b8bc5" transform="rotate(0)"/><ellipse cx="0" cy="-8.5" rx="6.5" ry="8.5" fill="#7b8bc5" transform="rotate(90)"/><ellipse cx="0" cy="-8.5" rx="6.5" ry="8.5" fill="#7b8bc5" transform="rotate(180)"/><ellipse cx="0" cy="-8.5" rx="6.5" ry="8.5" fill="#7b8bc5" transform="rotate(270)"/><circle r="2.5" fill="#56618a"/></g><g transform="translate(18.5 -11.8) rotate(51.6)"><ellipse cx="0" cy="-8.5" rx="6.5" ry="8.5" fill="#6979b6" transform="rotate(0)"/><ellipse cx="0" cy="-8.5" rx="6.5" ry="8.5" fill="#6979b6" transform="rotate(90)"/><ellipse cx="0" cy="-8.5" rx="6.5" ry="8.5" fill="#6979b6" transform="rotate(180)"/><ellipse cx="0" cy="-8.5" rx="6.5" ry="8.5" fill="#6979b6" transform="rotate(270)"/><circle r="2.5" fill="#4a557f"/></g><g transform="translate(-6.2 23.1) rotate(51.4)"><ellipse cx="0" cy="-8.5" rx="6.5" ry="8.5" fill="#5b6bab" transform="rotate(0)"/><ellipse cx="0" cy="-8.5" rx="6.5" ry="8.5" fill="#5b6bab" transform="rotate(90)"/><ellipse cx="0" cy="-8.5" rx="6.5" ry="8.5" fill="#5b6bab" transform="rotate(180)"/><ellipse cx="0" cy="-8.5" rx="6.5" ry="8.5" fill="#5b6bab" transform="rotate(270)"/><circle r="2.5" fill="#404b78"/></g><g transform="translate(-11.9 -22.8) rotate(20.3)"><ellipse cx="0" cy="-8.5" rx="6.5" ry="8.5" fill="#7686c3" transform="rotate(0)"/><ellipse cx="0" cy="-8.5" rx="6.5" ry="8.5" fill="#7686c3" transform="rotate(90)"/><ellipse cx="0" cy="-8.5" rx="6.5" ry="8.5" fill="#7686c3" transform="rotate(180)"/><ellipse cx="0" cy="-8.5" rx="6.5" ry="8.5" fill="#7686c3" transform="rotate(270)"/><circle r="2.5" fill="#535e88"/></g><g transform="translate(25.8 9.4) rotate(81.4)"><ellipse cx="0" cy="-8.5" rx="6.5" ry="8.5" fill="#7b8bc5" transform="rotate(0)"/><ellipse cx="0" cy="-8.5" rx="6.5" ry="8.5" fill="#7b8bc5" transform="rotate(90)"/><ellipse cx="0" cy="-8.5" rx="6.5" ry="8.5" fill="#7b8bc5" transform="rotate(180)"/><ellipse cx="0" cy="-8.5" rx="6.5" ry="8.5" fill="#7b8bc5" transform="rotate(270)"/><circle r="2.5" fill="#56618a"/></g><g transform="translate(-26.8 11.1) rotate(89.3)"><ellipse cx="0" cy="-8.5" rx="6.5" ry="8.5" fill="#5363a3" transform="rotate(0)"/><ellipse cx="0" cy="-8.5" rx="6.5" ry="8.5" fill="#5363a3" transform="rotate(90)"/><ellipse cx="0" cy="-8.5" rx="6.5" ry="8.5" fill="#5363a3" transform="rotate(180)"/><ellipse cx="0" cy="-8.5" rx="6.5" ry="8.5" fill="#5363a3" transform="rotate(270)"/><circle r="2.5" fill="#3a4572"/></g><g transform="translate(12.9 -27.6) rotate(88)"><ellipse cx="0" cy="-8.5" rx="6.5" ry="8.5" fill="#7989c4" transform="rotate(0)"/><ellipse cx="0" cy="-8.5" rx="6.5" ry="8.5" fill="#7989c4" transform="rotate(90)"/><ellipse cx="0" cy="-8.5" rx="6.5" ry="8.5" fill="#7989c4" transform="rotate(180)"/><ellipse cx="0" cy="-8.5" rx="6.5" ry="8.5" fill="#7989c4" transform="rotate(270)"/><circle r="2.5" fill="#556089"/></g><g transform="translate(9.6 30.5) rotate(82.2)"><ellipse cx="0" cy="-8.5" rx="6.5" ry="8.5" fill="#6f80c0" transform="rotate(0)"/><ellipse cx="0" cy="-8.5" rx="6.5" ry="8.5" fill="#6f80c0" transform="rotate(90)"/><ellipse cx="0" cy="-8.5" rx="6.5" ry="8.5" fill="#6f80c0" transform="rotate(180)"/><ellipse cx="0" cy="-8.5" rx="6.5" ry="8.5" fill="#6f80c0" transform="rotate(270)"/><circle r="2.5" fill="#4e5a86"/></g><g transform="translate(-28.8 -16.7) rotate(85.4)"><ellipse cx="0" cy="-8.5" rx="6.5" ry="8.5" fill="#5d6dac" transform="rotate(0)"/><ellipse cx="0" cy="-8.5" rx="6.5" ry="8.5" fill="#5d6dac" transform="rotate(90)"/><ellipse cx="0" cy="-8.5" rx="6.5" ry="8.5" fill="#5d6dac" transform="rotate(180)"/><ellipse cx="0" cy="-8.5" rx="6.5" ry="8.5" fill="#5d6dac" transform="rotate(270)"/><circle r="2.5" fill="#414c78"/></g><g transform="translate(33.8 -7.5) rotate(4.1)"><ellipse cx="0" cy="-8.5" rx="6.5" ry="8.5" fill="#6979b6" transform="rotate(0)"/><ellipse cx="0" cy="-8.5" rx="6.5" ry="8.5" fill="#6979b6" transform="rotate(90)"/><ellipse cx="0" cy="-8.5" rx="6.5" ry="8.5" fill="#6979b6" transform="rotate(180)"/><ellipse cx="0" cy="-8.5" rx="6.5" ry="8.5" fill="#6979b6" transform="rotate(270)"/><circle r="2.5" fill="#4a557f"/></g><g transform="translate(-20.6 29.4) rotate(38.6)"><ellipse cx="0" cy="-8.5" rx="6.5" ry="8.5" fill="#6c7cbb" transform="rotate(0)"/><ellipse cx="0" cy="-8.5" rx="6.5" ry="8.5" fill="#6c7cbb" transform="rotate(90)"/><ellipse cx="0" cy="-8.5" rx="6.5" ry="8.5" fill="#6c7cbb" transform="rotate(180)"/><ellipse cx="0" cy="-8.5" rx="6.5" ry="8.5" fill="#6c7cbb" transform="rotate(270)"/><circle r="2.5" fill="#4c5783"/></g><g transform="translate(-4.8 -36.8) rotate(52.7)"><ellipse cx="0" cy="-8.5" rx="6.5" ry="8.5" fill="#5c6dac" transform="rotate(0)"/><ellipse cx="0" cy="-8.5" rx="6.5" ry="8.5" fill="#5c6dac" transform="rotate(90)"/><ellipse cx="0" cy="-8.5" rx="6.5" ry="8.5" fill="#5c6dac" transform="rotate(180)"/><ellipse cx="0" cy="-8.5" rx="6.5" ry="8.5" fill="#5c6dac" transform="rotate(270)"/><circle r="2.5" fill="#404c78"/></g><g transform="translate(29.3 24.6) rotate(69.2)"><ellipse cx="0" cy="-8.5" rx="6.5" ry="8.5" fill="#6b7bb9" transform="rotate(0)"/><ellipse cx="0" cy="-8.5" rx="6.5" ry="8.5" fill="#6b7bb9" transform="rotate(90)"/><ellipse cx="0" cy="-8.5" rx="6.5" ry="8.5" fill="#6b7bb9" transform="rotate(180)"/><ellipse cx="0" cy="-8.5" rx="6.5" ry="8.5" fill="#6b7bb9" transform="rotate(270)"/><circle r="2.5" fill="#4b5682"/></g></g><radialGradient id="g10" cx="45%" cy="35%" r="72%"><stop offset="0" stop-color="#9782bb"/><stop offset="1" stop-color="#866db1"/></radialGradient><path id="p11" d="M0 0 C-12.5 -12.5 -12.5 -36 -1 -50 C12.5 -36 12.5 -12.5 0 0 Z"/><path id="p12" d="M0 0 C-9 -9.2 -9 -26.6 -1 -37 C9 -26.6 9 -9.2 0 0 Z"/><g id="s9"><use href="#p11" fill="url(#g10)" stroke="#766593" stroke-width="0.6" transform="rotate(0)" opacity="1.0"/><use href="#p11" fill="url(#g10)" stroke="#766593" stroke-width="0.6" transform="rotate(60)" opacity="1.0"/><use href="#p11" fill="url(#g10)" stroke="#766593" stroke-width="0.6" transform="rotate(120)" opacity="1.0"/><use href="#p11" fill="url(#g10)" stroke="#766593" stroke-width="0.6" transform="rotate(180)" opacity="1.0"/><use href="#p11" fill="url(#g10)" stroke="#766593" stroke-width="0.6" transform="rotate(240)" opacity="1.0"/><use href="#p11" fill="url(#g10)" stroke="#766593" stroke-width="0.6" transform="rotate(300)" opacity="1.0"/><use href="#p12" fill="url(#g10)" stroke="#766593" stroke-width="0.6" transform="rotate(30)" opacity="0.9"/><use href="#p12" fill="url(#g10)" stroke="#766593" stroke-width="0.6" transform="rotate(90)" opacity="0.9"/><use href="#p12" fill="url(#g10)" stroke="#766593" stroke-width="0.6" transform="rotate(150)" opacity="0.9"/><use href="#p12" fill="url(#g10)" stroke="#766593" stroke-width="0.6" transform="rotate(210)" opacity="0.9"/><use href="#p12" fill="url(#g10)" stroke="#766593" stroke-width="0.6" transform="rotate(270)" opacity="0.9"/><use href="#p12" fill="url(#g10)" stroke="#766593" stroke-width="0.6" transform="rotate(330)" opacity="0.9"/><line x1="0" y1="0" x2="6.7" y2="-25.1" stroke="#5d4c7a" stroke-width="2.2" opacity="0.75"/><ellipse cx="6.7" cy="-25.1" rx="5" ry="3" fill="#c98b3a" transform="rotate(15 6.7 -25.1)"/><line x1="0" y1="0" x2="25.1" y2="-6.7" stroke="#5d4c7a" stroke-width="2.2" opacity="0.75"/><ellipse cx="25.1" cy="-6.7" rx="5" ry="3" fill="#c98b3a" transform="rotate(75 25.1 -6.7)"/><line x1="0" y1="0" x2="18.4" y2="18.4" stroke="#5d4c7a" stroke-width="2.2" opacity="0.75"/><ellipse cx="18.4" cy="18.4" rx="5" ry="3" fill="#c98b3a" transform="rotate(135 18.4 18.4)"/><line x1="0" y1="0" x2="-6.7" y2="25.1" stroke="#5d4c7a" stroke-width="2.2" opacity="0.75"/><ellipse cx="-6.7" cy="25.1" rx="5" ry="3" fill="#c98b3a" transform="rotate(195 -6.7 25.1)"/><line x1="0" y1="0" x2="-25.1" y2="6.7" stroke="#5d4c7a" stroke-width="2.2" opacity="0.75"/><ellipse cx="-25.1" cy="6.7" rx="5" ry="3" fill="#c98b3a" transform="rotate(255 -25.1 6.7)"/><line x1="0" y1="0" x2="-18.4" y2="-18.4" stroke="#5d4c7a" stroke-width="2.2" opacity="0.75"/><ellipse cx="-18.4" cy="-18.4" rx="5" ry="3" fill="#c98b3a" transform="rotate(315 -18.4 -18.4)"/><circle r="5" fill="#6f5d8d"/></g><g id="s13"><use href="#p11" fill="url(#g10)" stroke="#766593" stroke-width="0.6" transform="rotate(0)" opacity="1.0"/><use href="#p11" fill="url(#g10)" stroke="#766593" stroke-width="0.6" transform="rotate(60)" opacity="1.0"/><use href="#p11" fill="url(#g10)" stroke="#766593" stroke-width="0.6" transform="rotate(120)" opacity="1.0"/><use href="#p11" fill="url(#g10)" stroke="#766593" stroke-width="0.6" transform="rotate(180)" opacity="1.0"/><use href="#p11" fill="url(#g10)" stroke="#766593" stroke-width="0.6" transform="rotate(240)" opacity="1.0"/><use href="#p11" fill="url(#g10)" stroke="#766593" stroke-width="0.6" transform="rotate(300)" opacity="1.0"/><use href="#p12" fill="url(#g10)" stroke="#766593" stroke-width="0.6" transform="rotate(30)" opacity="0.9"/><use href="#p12" fill="url(#g10)" stroke="#766593" stroke-width="0.6" transform="rotate(90)" opacity="0.9"/><use href="#p12" fill="url(#g10)" stroke="#766593" stroke-width="0.6" transform="rotate(150)" opacity="0.9"/><use href="#p12" fill="url(#g10)" stroke="#766593" stroke-width="0.6" transform="rotate(210)" opacity="0.9"/><use href="#p12" fill="url(#g10)" stroke="#766593" stroke-width="0.6" transform="rotate(270)" opacity="0.9"/><use href="#p12" fill="url(#g10)" stroke="#766593" stroke-width="0.6" transform="rotate(330)" opacity="0.9"/><line x1="0" y1="0" x2="6.7" y2="-25.1" stroke="#5d4c7a" stroke-width="2.2" opacity="0.75"/><ellipse cx="6.7" cy="-25.1" rx="5" ry="3" fill="#c98b3a" transform="rotate(15 6.7 -25.1)"/><line x1="0" y1="0" x2="25.1" y2="-6.7" stroke="#5d4c7a" stroke-width="2.2" opacity="0.75"/><ellipse cx="25.1" cy="-6.7" rx="5" ry="3" fill="#c98b3a" transform="rotate(75 25.1 -6.7)"/><line x1="0" y1="0" x2="18.4" y2="18.4" stroke="#5d4c7a" stroke-width="2.2" opacity="0.75"/><ellipse cx="18.4" cy="18.4" rx="5" ry="3" fill="#c98b3a" transform="rotate(135 18.4 18.4)"/><line x1="0" y1="0" x2="-6.7" y2="25.1" stroke="#5d4c7a" stroke-width="2.2" opacity="0.75"/><ellipse cx="-6.7" cy="25.1" rx="5" ry="3" fill="#c98b3a" transform="rotate(195 -6.7 25.1)"/><line x1="0" y1="0" x2="-25.1" y2="6.7" stroke="#5d4c7a" stroke-width="2.2" opacity="0.75"/><ellipse cx="-25.1" cy="6.7" rx="5" ry="3" fill="#c98b3a" transform="rotate(255 -25.1 6.7)"/><line x1="0" y1="0" x2="-18.4" y2="-18.4" stroke="#5d4c7a" stroke-width="2.2" opacity="0.75"/><ellipse cx="-18.4" cy="-18.4" rx="5" ry="3" fill="#c98b3a" transform="rotate(315 -18.4 -18.4)"/><circle r="5" fill="#6f5d8d"/></g><radialGradient id="g15" cx="45%" cy="35%" r="72%"><stop offset="0" stop-color="#7f8cb9"/><stop offset="1" stop-color="#303a5e"/></radialGradient><g id="s14"><path d="M0 0 L-7 -27.5 L0 -50 L7 -27.5 Z" fill="#465589" transform="rotate(0)"/><path d="M0 0 L-7 -27.5 L0 -50 L7 -27.5 Z" fill="#5c6a9b" transform="rotate(25.7)"/><path d="M0 0 L-7 -27.5 L0 -50 L7 -27.5 Z" fill="#465589" transform="rotate(51.4)"/><path d="M0 0 L-7 -27.5 L0 -50 L7 -27.5 Z" fill="#5c6a9b" transform="rotate(77.1)"/><path d="M0 0 L-7 -27.5 L0 -50 L7 -27.5 Z" fill="#465589" transform="rotate(102.9)"/><path d="M0 0 L-7 -27.5 L0 -50 L7 -27.5 Z" fill="#5c6a9b" transform="rotate(128.6)"/><path d="M0 0 L-7 -27.5 L0 -50 L7 -27.5 Z" fill="#465589" transform="rotate(154.3)"/><path d="M0 0 L-7 -27.5 L0 -50 L7 -27.5 Z" fill="#5c6a9b" transform="rotate(180)"/><path d="M0 0 L-7 -27.5 L0 -50 L7 -27.5 Z" fill="#465589" transform="rotate(205.7)"/><path d="M0 0 L-7 -27.5 L0 -50 L7 -27.5 Z" fill="#5c6a9b" transform="rotate(231.4)"/><path d="M0 0 L-7 -27.5 L0 -50 L7 -27.5 Z" fill="#465589" transform="rotate(257.1)"/><path d="M0 0 L-7 -27.5 L0 -50 L7 -27.5 Z" fill="#5c6a9b" transform="rotate(282.9)"/><path d="M0 0 L-7 -27.5 L0 -50 L7 -27.5 Z" fill="#465589" transform="rotate(308.6)"/><path d="M0 0 L-7 -27.5 L0 -50 L7 -27.5 Z" fill="#5c6a9b" transform="rotate(334.3)"/><ellipse rx="20" ry="23" fill="url(#g15)"/><circle cx="2.7" cy="0" r="2.8" fill="#97a1c6" opacity="0.8"/><circle cx="-3.5" cy="3.7" r="2.8" fill="#97a1c6" opacity="0.8"/><circle cx="0.5" cy="-7" r="2.8" fill="#97a1c6" opacity="0.8"/><circle cx="4.4" cy="6.6" r="2.8" fill="#97a1c6" opacity="0.8"/><circle cx="-8" cy="-1.6" r="2.8" fill="#97a1c6" opacity="0.8"/><circle cx="7.6" cy="-5.6" r="2.8" fill="#97a1c6" opacity="0.8"/><circle cx="-2.5" cy="10.9" r="2.8" fill="#97a1c6" opacity="0.8"/><circle cx="-4.9" cy="-10.7" r="2.8" fill="#97a1c6" opacity="0.8"/><circle cx="10.5" cy="4.4" r="2.8" fill="#97a1c6" opacity="0.8"/><circle cx="-10.9" cy="5.2" r="2.8" fill="#97a1c6" opacity="0.8"/><circle cx="5.3" cy="-13" r="2.8" fill="#97a1c6" opacity="0.8"/><circle cx="3.9" cy="14.3" r="2.8" fill="#97a1c6" opacity="0.8"/><circle cx="-11.8" cy="-7.8" r="2.8" fill="#97a1c6" opacity="0.8"/><circle cx="13.8" cy="-3.5" r="2.8" fill="#97a1c6" opacity="0.8"/><circle cx="-8.4" cy="13.8" r="2.8" fill="#97a1c6" opacity="0.8"/><circle cx="-2" cy="-17.2" r="2.8" fill="#97a1c6" opacity="0.8"/><circle cx="11.9" cy="11.5" r="2.8" fill="#97a1c6" opacity="0.8"/><circle cx="-16" cy="0.8" r="2.8" fill="#97a1c6" opacity="0.8"/><circle cx="11.7" cy="-13.4" r="2.8" fill="#97a1c6" opacity="0.8"/><circle cx="-0.7" cy="19.5" r="2.8" fill="#97a1c6" opacity="0.8"/><circle cx="-11.2" cy="-15.3" r="2.8" fill="#97a1c6" opacity="0.8"/><circle cx="17.6" cy="2.7" r="2.8" fill="#97a1c6" opacity="0.8"/></g><g id="s16"><path d="M0 0 L-7 -27.5 L0 -50 L7 -27.5 Z" fill="#465589" transform="rotate(0)"/><path d="M0 0 L-7 -27.5 L0 -50 L7 -27.5 Z" fill="#5c6a9b" transform="rotate(25.7)"/><path d="M0 0 L-7 -27.5 L0 -50 L7 -27.5 Z" fill="#465589" transform="rotate(51.4)"/><path d="M0 0 L-7 -27.5 L0 -50 L7 -27.5 Z" fill="#5c6a9b" transform="rotate(77.1)"/><path d="M0 0 L-7 -27.5 L0 -50 L7 -27.5 Z" fill="#465589" transform="rotate(102.9)"/><path d="M0 0 L-7 -27.5 L0 -50 L7 -27.5 Z" fill="#5c6a9b" transform="rotate(128.6)"/><path d="M0 0 L-7 -27.5 L0 -50 L7 -27.5 Z" fill="#465589" transform="rotate(154.3)"/><path d="M0 0 L-7 -27.5 L0 -50 L7 -27.5 Z" fill="#5c6a9b" transform="rotate(180)"/><path d="M0 0 L-7 -27.5 L0 -50 L7 -27.5 Z" fill="#465589" transform="rotate(205.7)"/><path d="M0 0 L-7 -27.5 L0 -50 L7 -27.5 Z" fill="#5c6a9b" transform="rotate(231.4)"/><path d="M0 0 L-7 -27.5 L0 -50 L7 -27.5 Z" fill="#465589" transform="rotate(257.1)"/><path d="M0 0 L-7 -27.5 L0 -50 L7 -27.5 Z" fill="#5c6a9b" transform="rotate(282.9)"/><path d="M0 0 L-7 -27.5 L0 -50 L7 -27.5 Z" fill="#465589" transform="rotate(308.6)"/><path d="M0 0 L-7 -27.5 L0 -50 L7 -27.5 Z" fill="#5c6a9b" transform="rotate(334.3)"/><ellipse rx="20" ry="23" fill="url(#g15)"/><circle cx="2.7" cy="0" r="2.8" fill="#97a1c6" opacity="0.8"/><circle cx="-3.5" cy="3.7" r="2.8" fill="#97a1c6" opacity="0.8"/><circle cx="0.5" cy="-7" r="2.8" fill="#97a1c6" opacity="0.8"/><circle cx="4.4" cy="6.6" r="2.8" fill="#97a1c6" opacity="0.8"/><circle cx="-8" cy="-1.6" r="2.8" fill="#97a1c6" opacity="0.8"/><circle cx="7.6" cy="-5.6" r="2.8" fill="#97a1c6" opacity="0.8"/><circle cx="-2.5" cy="10.9" r="2.8" fill="#97a1c6" opacity="0.8"/><circle cx="-4.9" cy="-10.7" r="2.8" fill="#97a1c6" opacity="0.8"/><circle cx="10.5" cy="4.4" r="2.8" fill="#97a1c6" opacity="0.8"/><circle cx="-10.9" cy="5.2" r="2.8" fill="#97a1c6" opacity="0.8"/><circle cx="5.3" cy="-13" r="2.8" fill="#97a1c6" opacity="0.8"/><circle cx="3.9" cy="14.3" r="2.8" fill="#97a1c6" opacity="0.8"/><circle cx="-11.8" cy="-7.8" r="2.8" fill="#97a1c6" opacity="0.8"/><circle cx="13.8" cy="-3.5" r="2.8" fill="#97a1c6" opacity="0.8"/><circle cx="-8.4" cy="13.8" r="2.8" fill="#97a1c6" opacity="0.8"/><circle cx="-2" cy="-17.2" r="2.8" fill="#97a1c6" opacity="0.8"/><circle cx="11.9" cy="11.5" r="2.8" fill="#97a1c6" opacity="0.8"/><circle cx="-16" cy="0.8" r="2.8" fill="#97a1c6" opacity="0.8"/><circle cx="11.7" cy="-13.4" r="2.8" fill="#97a1c6" opacity="0.8"/><circle cx="-0.7" cy="19.5" r="2.8" fill="#97a1c6" opacity="0.8"/><circle cx="-11.2" cy="-15.3" r="2.8" fill="#97a1c6" opacity="0.8"/><circle cx="17.6" cy="2.7" r="2.8" fill="#97a1c6" opacity="0.8"/></g><linearGradient id="g17" x1="0" y1="0" x2="1" y2="0"><stop offset="0" stop-color="#3d495e"/><stop offset="1" stop-color="#101a2b"/></linearGradient></defs><rect width="560" height="560" fill="url(#g1)"/><circle cx="286.5" cy="141.6" r="50" fill="#ffffff" opacity="0.11"/><circle cx="334" cy="105.1" r="93.4" fill="#ffffff" opacity="0.08"/><circle cx="521.7" cy="195.5" r="89.6" fill="#ffffff" opacity="0.11"/><circle cx="203.9" cy="45.4" r="81.1" fill="#ffffff" opacity="0.11"/><circle cx="445.1" cy="178.3" r="71.7" fill="#ffffff" opacity="0.11"/><circle cx="505.7" cy="357.7" r="97.6" fill="#ffffff" opacity="0.12"/><circle cx="147.6" cy="356.5" r="41.2" fill="#ffffff" opacity="0.06"/><rect y="481.6" width="560" height="78.4" fill="#c2c7d2" opacity="0.4"/><ellipse cx="280" cy="451.1" rx="184.8" ry="16.4" fill="#3a2f28" opacity="0.16"/><use href="#s2" transform="translate(231.7 310.9) rotate(-157) scale(0.512)" opacity="0.93"/><use href="#s3" transform="translate(211.2 300.5) rotate(-146.1) scale(0.618)" opacity="0.95"/><use href="#s2" transform="translate(147.3 283.9) rotate(-121.9) scale(0.578)" opacity="0.88"/><use href="#s3" transform="translate(114.9 261.2) rotate(-107.7) scale(0.590)" opacity="0.91"/><use href="#s2" transform="translate(120 231.5) rotate(-107) scale(0.502)" opacity="0.88"/><use href="#s3" transform="translate(106.3 213.1) rotate(-91) scale(0.464)" opacity="0.88"/><use href="#s2" transform="translate(148.4 181.7) rotate(-72.7) scale(0.650)" opacity="0.88"/><use href="#s3" transform="translate(185.5 161.7) rotate(-49) scale(0.601)" opacity="0.89"/><use href="#s2" transform="translate(225.4 149.3) rotate(-29.2) scale(0.570)" opacity="0.95"/><use href="#s3" transform="translate(256.1 134.8) rotate(-3.4) scale(0.557)" opacity="0.95"/><use href="#s2" transform="translate(288.8 144.2) rotate(-0.1) scale(0.648)" opacity="0.95"/><use href="#s3" transform="translate(348.6 134.5) rotate(29.6) scale(0.647)" opacity="0.95"/><use href="#s2" transform="translate(400.1 166.7) rotate(46.1) scale(0.664)" opacity="1.00"/><use href="#s3" transform="translate(435.1 176.9) rotate(70.9) scale(0.461)" opacity="0.93"/><use href="#s2" transform="translate(440 214.9) rotate(78.8) scale(0.520)" opacity="0.87"/><use href="#s3" transform="translate(461.4 234.7) rotate(84.2) scale(0.620)" opacity="0.98"/><use href="#s2" transform="translate(423.5 267.3) rotate(116.4) scale(0.555)" opacity="0.99"/><use href="#s3" transform="translate(397.5 271.6) rotate(128.6) scale(0.560)" opacity="0.94"/><use href="#s2" transform="translate(344.2 300) rotate(165.1) scale(0.605)" opacity="1.00"/><use href="#s3" transform="translate(315.7 302.3) rotate(154.2) scale(0.458)" opacity="0.91"/><ellipse cx="280" cy="235.1" rx="121" ry="65.2" fill="#2c463b" opacity="0.32" filter="url(#f5)"/><use href="#s3" transform="translate(279 152.1) rotate(257.6) scale(0.339)" opacity="0.85"/><use href="#s3" transform="translate(435 239.1) rotate(202.1) scale(0.283)" opacity="0.85"/><use href="#s3" transform="translate(331.5 276.5) rotate(112.2) scale(0.322)" opacity="0.85"/><use href="#s3" transform="translate(163.7 186.5) rotate(336.9) scale(0.298)" opacity="0.85"/><use href="#s3" transform="translate(274.2 231.3) rotate(93.4) scale(0.376)" opacity="0.85"/><use href="#s3" transform="translate(312.4 205.7) rotate(30.5) scale(0.302)" opacity="0.85"/><use href="#s3" transform="translate(301.2 222.8) rotate(58.8) scale(0.343)" opacity="0.85"/><use href="#s3" transform="translate(320.9 153.1) rotate(116.6) scale(0.324)" opacity="0.85"/><use href="#s3" transform="translate(403.6 271.3) rotate(303.8) scale(0.407)" opacity="0.85"/><use href="#s3" transform="translate(245.8 281.7) rotate(322.2) scale(0.368)" opacity="0.85"/><use href="#s3" transform="translate(297 218.5) rotate(243.5) scale(0.431)" opacity="0.85"/><use href="#s3" transform="translate(180.8 223.7) rotate(304.3) scale(0.338)" opacity="0.85"/><use href="#s3" transform="translate(216.4 272) rotate(177.6) scale(0.373)" opacity="0.85"/><use href="#s3" transform="translate(124.4 220.3) rotate(191.5) scale(0.388)" opacity="0.85"/><use href="#s3" transform="translate(224.3 235.7) rotate(103.4) scale(0.400)" opacity="0.85"/><use href="#s3" transform="translate(425.7 200.9) rotate(73.8) scale(0.385)" opacity="0.85"/><use href="#s9" transform="translate(263.3 157.4) rotate(13.7) scale(0.898)"/><use href="#s6" transform="translate(404.2 166.5) rotate(151.7) scale(1.039)"/><use href="#s6" transform="translate(260.3 167) rotate(147.6) scale(0.987)"/><use href="#s16" transform="translate(188.1 168.9) rotate(186) scale(0.399)"/><use href="#s16" transform="translate(279.5 182) rotate(169) scale(0.377)"/><use href="#s14" transform="translate(371 188.6) rotate(74.5) scale(0.400)"/><use href="#s9" transform="translate(135.6 197.5) rotate(19.7) scale(0.837)"/><use href="#s14" transform="translate(181.1 207.8) rotate(160.8) scale(0.376)"/><use href="#s9" transform="translate(324 213.1) rotate(-19) scale(0.929)"/><use href="#s16" transform="translate(312 219.5) rotate(160) scale(0.415)"/><use href="#s6" transform="translate(134.4 227.7) rotate(313.2) scale(1.050)"/><use href="#s6" transform="translate(328.7 227.8) rotate(112.1) scale(1.066)"/><use href="#s14" transform="translate(223.9 235.4) rotate(248.6) scale(0.477)"/><use href="#s9" transform="translate(211.5 249.3) rotate(-15.2) scale(0.743)"/><use href="#s16" transform="translate(412.6 258.9) rotate(275.8) scale(0.383)"/><use href="#s16" transform="translate(335.8 260.1) rotate(143) scale(0.407)"/><use href="#s8" transform="translate(239.4 261.7) rotate(240) scale(1.056)"/><use href="#s8" transform="translate(353 281.6) rotate(20.9) scale(1.039)"/><use href="#s9" transform="translate(323.7 288.3) rotate(-18.7) scale(0.702)"/><use href="#s16" transform="translate(276 296) rotate(257.2) scale(0.409)"/><use href="#s2" transform="translate(187.7 281.5) rotate(-135.9) scale(0.339)" opacity="0.90"/><use href="#s2" transform="translate(128.6 194.7) rotate(-49.7) scale(0.380)" opacity="0.90"/><use href="#s2" transform="translate(240.1 153) rotate(-4) scale(0.369)" opacity="0.90"/><use href="#s2" transform="translate(349.2 149.9) rotate(34.7) scale(0.377)" opacity="0.90"/><use href="#s2" transform="translate(419.1 202.4) rotate(77.7) scale(0.369)" opacity="0.90"/><use href="#s2" transform="translate(400.9 266.7) rotate(138.4) scale(0.321)" opacity="0.90"/><path d="M140 323 L154 448.1 Q280 464.5 406 448.1 L420 323 Z" fill="url(#g17)"/><ellipse cx="280" cy="323" rx="140" ry="20.5" fill="#4a5569"/><ellipse cx="280" cy="323" rx="126" ry="16.7" fill="#0f1828"/><path d="M146.3 391.5 L413.7 391.5 L411.6 415.4 L148.4 415.4 Z" fill="#9aa8c4" opacity="0.95"/><path d="M280 403.5 C224 379.6 207.2 421.3 280 403.5 Z" fill="#aab6cd" stroke="#7b869d" stroke-width="1"/><path d="M280 403.5 C336 379.6 352.8 421.3 280 403.5 Z" fill="#aab6cd" stroke="#7b869d" stroke-width="1"/><circle cx="280" cy="403.5" r="9.8" fill="#8894ac"/></svg>