<svg xmlns="http://www.w3.org/2000/svg" xmlns:xlink="http://www.w3.org/1999/xlink" viewBox="0 0 560 560" width="560" height="560" role="img" aria-label="sympathy"><title>sympathy</title><defs><radialGradient id="g1" cx="50%" cy="38%" r="72%"><stop offset="0" stop-color="#f7f7f4"/><stop offset="1" stop-color="#e6e7e2"/></radialGradient><g id="s2"><path d="M0 0 C5 -30 -5 -60 0 -90" fill="none" stroke="#4a6652" stroke-width="3.5"/><ellipse cx="-12.8" cy="-15" rx="15" ry="12.3" fill="#5c7f66" opacity="0.95"/><ellipse cx="12.8" cy="-15" rx="15" ry="12.3" fill="#5c7f66" opacity="0.95"/><ellipse cx="-11.3" cy="-31" rx="13.2" ry="10.9" fill="#66876f" opacity="0.95"/><ellipse cx="11.3" cy="-31" rx="13.2" ry="10.9" fill="#66876f" opacity="0.95"/><ellipse cx="-9.8" cy="-47" rx="11.5" ry="9.4" fill="#708e78" opacity="0.95"/><ellipse cx="9.8" cy="-47" rx="11.5" ry="9.4" fill="#708e78" opacity="0.95"/><ellipse cx="-8.3" cy="-63" rx="9.7" ry="8" fill="#799682" opacity="0.95"/><ellipse cx="8.3" cy="-63" rx="9.7" ry="8" fill="#799682" opacity="0.95"/><ellipse cx="-6.8" cy="-79" rx="8" ry="6.6" fill="#839e8b" opacity="0.95"/><ellipse cx="6.8" cy="-79" rx="8" ry="6.6" fill="#839e8b" opacity="0.95"/></g><linearGradient id="g4" x1="0" y1="0" x2="0" y2="1"><stop offset="0" stop-color="#708b78"/><stop offset="1" stop-color="#425b49"/></linearGradient><g id="s3"><path d="M0 0 C-21 -30 -15 -67.5 0 -87.5 C15 -67.5 21 -30 0 0 Z" fill="url(#g4)"/><path d="M0 -4 L0 -80" fill="none" stroke="#3b5242" stroke-width="2.2" opacity="0.55"/></g><filter id="f5" x="-30%" y="-30%" width="160%" height="160%"><feGaussianBlur stdDeviation="16.8"/></filter><radialGradient id="g7" cx="45%" cy="35%" r="72%"><stop offset="0" stop-color="#fdfdfb"/><stop offset="1" stop-color="#e4e3e1"/></radialGradient><path id="p8" d="M0 0 C-23 -11 -25.8 -33 -11.5 -46.5 C-4.1 -53 4.1 -53 11.5 -46.5 C25.8 -33 23 -11 0 0 Z"/><radialGradient id="g9" cx="45%" cy="35%" r="72%"><stop offset="0" stop-color="#f4f0e9"/><stop offset="1" stop-color="#d9d4cc"/></radialGradient><path id="p10" d="M0 0 C-18.5 -8.4 -20.7 -25.1 -9.2 -35.3 C-3.3 -40.3 3.3 -40.3 9.2 -35.3 C20.7 -25.1 18.5 -8.4 0 0 Z"/><path id="p11" d="M0 0 C-14.5 -6.1 -16.2 -18.2 -7.2 -25.6 C-2.6 -29.2 2.6 -29.2 7.2 -25.6 C16.2 -18.2 14.5 -6.1 0 0 Z"/><path id="p12" d="M0 0 C-11 -4.1 -12.3 -12.2 -5.5 -17.2 C-2 -19.6 2 -19.6 5.5 -17.2 C12.3 -12.2 11 -4.1 0 0 Z"/><g id="s6"><circle r="25" fill="#a5a29b"/><use href="#p8" fill="url(#g7)" stroke="#c6c4bf" stroke-width="0.6" stroke-opacity="0.5" transform="rotate(16.7)" opacity="0.98"/><use href="#p8" fill="url(#g7)" stroke="#c6c4bf" stroke-width="0.6" stroke-opacity="0.5" transform="rotate(61.7)" opacity="0.98"/><use href="#p8" fill="url(#g7)" stroke="#c6c4bf" stroke-width="0.6" stroke-opacity="0.5" transform="rotate(106.7)" opacity="0.98"/><use href="#p8" fill="url(#g7)" stroke="#c6c4bf" stroke-width="0.6" stroke-opacity="0.5" transform="rotate(151.7)" opacity="0.98"/><use href="#p8" fill="url(#g7)" stroke="#c6c4bf" stroke-width="0.6" stroke-opacity="0.5" transform="rotate(196.7)" opacity="0.98"/><use href="#p8" fill="url(#g7)" stroke="#c6c4bf" stroke-width="0.6" stroke-opacity="0.5" transform="rotate(241.7)" opacity="0.98"/><use href="#p8" fill="url(#g7)" stroke="#c6c4bf" stroke-width="0.6" stroke-opacity="0.5" transform="rotate(286.7)" opacity="0.98"/><use href="#p8" fill="url(#g7)" stroke="#c6c4bf" stroke-width="0.6" stroke-opacity="0.5" transform="rotate(331.7)" opacity="0.98"/><use href="#p10" fill="url(#g9)" stroke="#c6c4bf" stroke-width="0.6" stroke-opacity="0.5" transform="rotate(40.7)" opacity="0.98"/><use href="#p10" fill="url(#g9)" stroke="#c6c4bf" stroke-width="0.6" stroke-opacity="0.5" transform="rotate(92.1)" opacity="0.98"/><use href="#p10" fill="url(#g9)" stroke="#c6c4bf" stroke-width="0.6" stroke-opacity="0.5" transform="rotate(143.6)" opacity="0.98"/><use href="#p10" fill="url(#g9)" stroke="#c6c4bf" stroke-width="0.6" stroke-opacity="0.5" transform="rotate(195)" opacity="0.98"/><use href="#p10" fill="url(#g9)" stroke="#c6c4bf" stroke-width="0.6" stroke-opacity="0.5" transform="rotate(246.4)" opacity="0.98"/><use href="#p10" fill="url(#g9)" stroke="#c6c4bf" stroke-width="0.6" stroke-opacity="0.5" transform="rotate(297.8)" opacity="0.98"/><use href="#p10" fill="url(#g9)" stroke="#c6c4bf" stroke-width="0.6" stroke-opacity="0.5" transform="rotate(349.3)" opacity="0.98"/><use href="#p11" fill="url(#g7)" stroke="#c6c4bf" stroke-width="0.6" stroke-opacity="0.5" transform="rotate(64.7)" opacity="0.98"/><use href="#p11" fill="url(#g7)" stroke="#c6c4bf" stroke-width="0.6" stroke-opacity="0.5" transform="rotate(124.7)" opacity="0.98"/><use href="#p11" fill="url(#g7)" stroke="#c6c4bf" stroke-width="0.6" stroke-opacity="0.5" transform="rotate(184.7)" opacity="0.98"/><use href="#p11" fill="url(#g7)" stroke="#c6c4bf" stroke-width="0.6" stroke-opacity="0.5" transform="rotate(244.7)" opacity="0.98"/><use href="#p11" fill="url(#g7)" stroke="#c6c4bf" stroke-width="0.6" stroke-opacity="0.5" transform="rotate(304.7)" opacity="0.98"/><use href="#p11" fill="url(#g7)" stroke="#c6c4bf" stroke-width="0.6" stroke-opacity="0.5" transform="rotate(364.7)" opacity="0.98"/><use href="#p12" fill="url(#g9)" stroke="#c6c4bf" stroke-width="0.6" stroke-opacity="0.5" transform="rotate(88.7)" opacity="0.98"/><use href="#p12" fill="url(#g9)" stroke="#c6c4bf" stroke-width="0.6" stroke-opacity="0.5" transform="rotate(160.7)" opacity="0.98"/><use href="#p12" fill="url(#g9)" stroke="#c6c4bf" stroke-width="0.6" stroke-opacity="0.5" transform="rotate(232.7)" opacity="0.98"/><use href="#p12" fill="url(#g9)" stroke="#c6c4bf" stroke-width="0.6" stroke-opacity="0.5" transform="rotate(304.7)" opacity="0.98"/><use href="#p12" fill="url(#g9)" stroke="#c6c4bf" stroke-width="0.6" stroke-opacity="0.5" transform="rotate(376.7)" opacity="0.98"/><circle r="11" fill="none" stroke="#bbb8b2" stroke-width="3.5" opacity="0.9"/><circle r="7" fill="none" stroke="#c3c0bb" stroke-width="3.5" opacity="0.9"/><circle r="3.5" fill="none" stroke="#cbc9c4" stroke-width="3.5" opacity="0.9"/><circle r="2.2" fill="#8b8882"/></g><g id="s13"><circle r="25" fill="#a5a29b"/><use href="#p8" fill="url(#g7)" stroke="#c6c4bf" stroke-width="0.6" stroke-opacity="0.5" transform="rotate(32.4)" opacity="0.98"/><use href="#p8" fill="url(#g7)" stroke="#c6c4bf" stroke-width="0.6" stroke-opacity="0.5" transform="rotate(77.4)" opacity="0.98"/><use href="#p8" fill="url(#g7)" stroke="#c6c4bf" stroke-width="0.6" stroke-opacity="0.5" transform="rotate(122.4)" opacity="0.98"/><use href="#p8" fill="url(#g7)" stroke="#c6c4bf" stroke-width="0.6" stroke-opacity="0.5" transform="rotate(167.4)" opacity="0.98"/><use href="#p8" fill="url(#g7)" stroke="#c6c4bf" stroke-width="0.6" stroke-opacity="0.5" transform="rotate(212.4)" opacity="0.98"/><use href="#p8" fill="url(#g7)" stroke="#c6c4bf" stroke-width="0.6" stroke-opacity="0.5" transform="rotate(257.4)" opacity="0.98"/><use href="#p8" fill="url(#g7)" stroke="#c6c4bf" stroke-width="0.6" stroke-opacity="0.5" transform="rotate(302.4)" opacity="0.98"/><use href="#p8" fill="url(#g7)" stroke="#c6c4bf" stroke-width="0.6" stroke-opacity="0.5" transform="rotate(347.4)" opacity="0.98"/><use href="#p10" fill="url(#g9)" stroke="#c6c4bf" stroke-width="0.6" stroke-opacity="0.5" transform="rotate(56.4)" opacity="0.98"/><use href="#p10" fill="url(#g9)" stroke="#c6c4bf" stroke-width="0.6" stroke-opacity="0.5" transform="rotate(107.8)" opacity="0.98"/><use href="#p10" fill="url(#g9)" stroke="#c6c4bf" stroke-width="0.6" stroke-opacity="0.5" transform="rotate(159.3)" opacity="0.98"/><use href="#p10" fill="url(#g9)" stroke="#c6c4bf" stroke-width="0.6" stroke-opacity="0.5" transform="rotate(210.7)" opacity="0.98"/><use href="#p10" fill="url(#g9)" stroke="#c6c4bf" stroke-width="0.6" stroke-opacity="0.5" transform="rotate(262.1)" opacity="0.98"/><use href="#p10" fill="url(#g9)" stroke="#c6c4bf" stroke-width="0.6" stroke-opacity="0.5" transform="rotate(313.5)" opacity="0.98"/><use href="#p10" fill="url(#g9)" stroke="#c6c4bf" stroke-width="0.6" stroke-opacity="0.5" transform="rotate(365)" opacity="0.98"/><use href="#p11" fill="url(#g7)" stroke="#c6c4bf" stroke-width="0.6" stroke-opacity="0.5" transform="rotate(80.4)" opacity="0.98"/><use href="#p11" fill="url(#g7)" stroke="#c6c4bf" stroke-width="0.6" stroke-opacity="0.5" transform="rotate(140.4)" opacity="0.98"/><use href="#p11" fill="url(#g7)" stroke="#c6c4bf" stroke-width="0.6" stroke-opacity="0.5" transform="rotate(200.4)" opacity="0.98"/><use href="#p11" fill="url(#g7)" stroke="#c6c4bf" stroke-width="0.6" stroke-opacity="0.5" transform="rotate(260.4)" opacity="0.98"/><use href="#p11" fill="url(#g7)" stroke="#c6c4bf" stroke-width="0.6" stroke-opacity="0.5" transform="rotate(320.4)" opacity="0.98"/><use href="#p11" fill="url(#g7)" stroke="#c6c4bf" stroke-width="0.6" stroke-opacity="0.5" transform="rotate(380.4)" opacity="0.98"/><use href="#p12" fill="url(#g9)" stroke="#c6c4bf" stroke-width="0.6" stroke-opacity="0.5" transform="rotate(104.4)" opacity="0.98"/><use href="#p12" fill="url(#g9)" stroke="#c6c4bf" stroke-width="0.6" stroke-opacity="0.5" transform="rotate(176.4)" opacity="0.98"/><use href="#p12" fill="url(#g9)" stroke="#c6c4bf" stroke-width="0.6" stroke-opacity="0.5" transform="rotate(248.4)" opacity="0.98"/><use href="#p12" fill="url(#g9)" stroke="#c6c4bf" stroke-width="0.6" stroke-opacity="0.5" transform="rotate(320.4)" opacity="0.98"/><use href="#p12" fill="url(#g9)" stroke="#c6c4bf" stroke-width="0.6" stroke-opacity="0.5" transform="rotate(392.4)" opacity="0.98"/><circle r="11" fill="none" stroke="#bbb8b2" stroke-width="3.5" opacity="0.9"/><circle r="7" fill="none" stroke="#c3c0bb" stroke-width="3.5" opacity="0.9"/><circle r="3.5" fill="none" stroke="#cbc9c4" stroke-width="3.5" opacity="0.9"/><circle r="2.2" fill="#8b8882"/></g><radialGradient id="g15" cx="45%" cy="35%" r="72%"><stop offset="0" stop-color="#ffffff"/><stop offset="1" stop-color="#e7e3da"/></radialGradient><path id="p16" d="M0 0 C-12.5 -12.5 -12.5 -36 -1 -50 C12.5 -36 12.5 -12.5 0 0 Z"/><path id="p17" d="M0 0 C-9 -9.2 -9 -26.6 -1 -37 C9 -26.6 9 -9.2 0 0 Z"/><g id="s14"><use href="#p16" fill="url(#g15)" stroke="#b9b6b0" stroke-width="0.6" transform="rotate(0)" opacity="1.0"/><use href="#p16" fill="url(#g15)" stroke="#b9b6b0" stroke-width="0.6" transform="rotate(60)" opacity="1.0"/><use href="#p16" fill="url(#g15)" stroke="#b9b6b0" stroke-width="0.6" transform="rotate(120)" opacity="1.0"/><use href="#p16" fill="url(#g15)" stroke="#b9b6b0" stroke-width="0.6" transform="rotate(180)" opacity="1.0"/><use href="#p16" fill="url(#g15)" stroke="#b9b6b0" stroke-width="0.6" transform="rotate(240)" opacity="1.0"/><use href="#p16" fill="url(#g15)" stroke="#b9b6b0" stroke-width="0.6" transform="rotate(300)" opacity="1.0"/><use href="#p17" fill="url(#g15)" stroke="#b9b6b0" stroke-width="0.6" transform="rotate(30)" opacity="0.9"/><use href="#p17" fill="url(#g15)" stroke="#b9b6b0" stroke-width="0.6" transform="rotate(90)" opacity="0.9"/><use href="#p17" fill="url(#g15)" stroke="#b9b6b0" stroke-width="0.6" transform="rotate(150)" opacity="0.9"/><use href="#p17" fill="url(#g15)" stroke="#b9b6b0" stroke-width="0.6" transform="rotate(210)" opacity="0.9"/><use href="#p17" fill="url(#g15)" stroke="#b9b6b0" stroke-width="0.6" transform="rotate(270)" opacity="0.9"/><use href="#p17" fill="url(#g15)" stroke="#b9b6b0" stroke-width="0.6" transform="rotate(330)" opacity="0.9"/><line x1="0" y1="0" x2="6.7" y2="-25.1" stroke="#9f9d96" stroke-width="2.2" opacity="0.75"/><ellipse cx="6.7" cy="-25.1" rx="5" ry="3" fill="#c98b3a" transform="rotate(15 6.7 -25.1)"/><line x1="0" y1="0" x2="25.1" y2="-6.7" stroke="#9f9d96" stroke-width="2.2" opacity="0.75"/><ellipse cx="25.1" cy="-6.7" rx="5" ry="3" fill="#c98b3a" transform="rotate(75 25.1 -6.7)"/><line x1="0" y1="0" x2="18.4" y2="18.4" stroke="#9f9d96" stroke-width="2.2" opacity="0.75"/><ellipse cx="18.4" cy="18.4" rx="5" ry="3" fill="#c98b3a" transform="rotate(135 18.4 18.4)"/><line x1="0" y1="0" x2="-6.7" y2="25.1" stroke="#9f9d96" stroke-width="2.2" opacity="0.75"/><ellipse cx="-6.7" cy="25.1" rx="5" ry="3" fill="#c98b3a" transform="rotate(195 -6.7 25.1)"/><line x1="0" y1="0" x2="-25.1" y2="6.7" stroke="#9f9d96" stroke-width="2.2" opacity="0.75"/><ellipse cx="-25.1" cy="6.7" rx="5" ry="3" fill="#c98b3a" transform="rotate(255 -25.1 6.7)"/><line x1="0" y1="0" x2="-18.4" y2="-18.4" stroke="#9f9d96" stroke-width="2.2" opacity="0.75"/><ellipse cx="-18.4" cy="-18.4" rx="5" ry="3" fill="#c98b3a" transform="rotate(315 -18.4 -18.4)"/><circle r="5" fill="#b5b2ab"/></g><g id="s18"><use href="#p16" fill="url(#g15)" stroke="#b9b6b0" stroke-width="0.6" transform="rotate(0)" opacity="1.0"/><use href="#p16" fill="url(#g15)" stroke="#b9b6b0" stroke-width="0.6" transform="rotate(60)" opacity="1.0"/><use href="#p16" fill="url(#g15)" stroke="#b9b6b0" stroke-width="0.6" transform="rotate(120)" opacity="1.0"/><use href="#p16" fill="url(#g15)" stroke="#b9b6b0" stroke-width="0.6" transform="rotate(180)" opacity="1.0"/><use href="#p16" fill="url(#g15)" stroke="#b9b6b0" stroke-width="0.6" transform="rotate(240)" opacity="1.0"/><use href="#p16" fill="url(#g15)" stroke="#b9b6b0" stroke-width="0.6" transform="rotate(300)" opacity="1.0"/><use href="#p17" fill="url(#g15)" stroke="#b9b6b0" stroke-width="0.6" transform="rotate(30)" opacity="0.9"/><use href="#p17" fill="url(#g15)" stroke="#b9b6b0" stroke-width="0.6" transform="rotate(90)" opacity="0.9"/><use href="#p17" fill="url(#g15)" stroke="#b9b6b0" stroke-width="0.6" transform="rotate(150)" opacity="0.9"/><use href="#p17" fill="url(#g15)" stroke="#b9b6b0" stroke-width="0.6" transform="rotate(210)" opacity="0.9"/><use href="#p17" fill="url(#g15)" stroke="#b9b6b0" stroke-width="0.6" transform="rotate(270)" opacity="0.9"/><use href="#p17" fill="url(#g15)" stroke="#b9b6b0" stroke-width="0.6" transform="rotate(330)" opacity="0.9"/><line x1="0" y1="0" x2="6.7" y2="-25.1" stroke="#9f9d96" stroke-width="2.2" opacity="0.75"/><ellipse cx="6.7" cy="-25.1" rx="5" ry="3" fill="#c98b3a" transform="rotate(15 6.7 -25.1)"/><line x1="0" y1="0" x2="25.1" y2="-6.7" stroke="#9f9d96" stroke-width="2.2" opacity="0.75"/><ellipse cx="25.1" cy="-6.7" rx="5" ry="3" fill="#c98b3a" transform="rotate(75 25.1 -6.7)"/><line x1="0" y1="0" x2="18.4" y2="18.4" stroke="#9f9d96" stroke-width="2.2" opacity="0.75"/><ellipse cx="18.4" cy="18.4" rx="5" ry="3" fill="#c98b3a" transform="rotate(135 18.4 18.4)"/><line x1="0" y1="0" x2="-6.7" y2="25.1" stroke="#9f9d96" stroke-width="2.2" opacity="0.75"/><ellipse cx="-6.7" cy="25.1" rx="5" ry="3" fill="#c98b3a" transform="rotate(195 -6.7 25.1)"/><line x1="0" y1="0" x2="-25.1" y2="6.7" stroke="#9f9d96" stroke-width="2.2" opacity="0.75"/><ellipse cx="-25.1" cy="6.7" rx="5" ry="3" fill="#c98b3a" transform="rotate(255 -25.1 6.7)"/><line x1="0" y1="0" x2="-18.4" y2="-18.4" stroke="#9f9d96" stroke-width="2.2" opacity="0.75"/><ellipse cx="-18.4" cy="-18.4" rx="5" ry="3" fill="#c98b3a" transform="rotate(315 -18.4 -18.4)"/><circle r="5" fill="#b5b2ab"/></g><radialGradient id="g20" cx="45%" cy="35%" r="72%"><stop offset="0" stop-color="#e8ece5"/><stop offset="1" stop-color="#9ea09b"/></radialGradient><g id="s19"><circle r="49" fill="url(#g20)" opacity="0.55"/><g transform="translate(6 0) rotate(87.7)"><ellipse cx="0" cy="-8.5" rx="6.5" ry="8.5" fill="#e6eae2" transform="rotate(0)"/><ellipse cx="0" cy="-8.5" rx="6.5" ry="8.5" fill="#e6eae2" transform="rotate(90)"/><ellipse cx="0" cy="-8.5" rx="6.5" ry="8.5" fill="#e6eae2" transform="rotate(180)"/><ellipse cx="0" cy="-8.5" rx="6.5" ry="8.5" fill="#e6eae2" transform="rotate(270)"/><circle r="2.5" fill="#a1a49e"/></g><g transform="translate(-8.3 7.6) rotate(63.7)"><ellipse cx="0" cy="-8.5" rx="6.5" ry="8.5" fill="#e7e9e4" transform="rotate(0)"/><ellipse cx="0" cy="-8.5" rx="6.5" ry="8.5" fill="#e7e9e4" transform="rotate(90)"/><ellipse cx="0" cy="-8.5" rx="6.5" ry="8.5" fill="#e7e9e4" transform="rotate(180)"/><ellipse cx="0" cy="-8.5" rx="6.5" ry="8.5" fill="#e7e9e4" transform="rotate(270)"/><circle r="2.5" fill="#a2a3a0"/></g><g transform="translate(1.3 -14.6) rotate(78.3)"><ellipse cx="0" cy="-8.5" rx="6.5" ry="8.5" fill="#e8eae5" transform="rotate(0)"/><ellipse cx="0" cy="-8.5" rx="6.5" ry="8.5" fill="#e8eae5" transform="rotate(90)"/><ellipse cx="0" cy="-8.5" rx="6.5" ry="8.5" fill="#e8eae5" transform="rotate(180)"/><ellipse cx="0" cy="-8.5" rx="6.5" ry="8.5" fill="#e8eae5" transform="rotate(270)"/><circle r="2.5" fill="#a2a4a0"/></g><g transform="translate(10.6 13.8) rotate(40.3)"><ellipse cx="0" cy="-8.5" rx="6.5" ry="8.5" fill="#e8ece4" transform="rotate(0)"/><ellipse cx="0" cy="-8.5" rx="6.5" ry="8.5" fill="#e8ece4" transform="rotate(90)"/><ellipse cx="0" cy="-8.5" rx="6.5" ry="8.5" fill="#e8ece4" transform="rotate(180)"/><ellipse cx="0" cy="-8.5" rx="6.5" ry="8.5" fill="#e8ece4" transform="rotate(270)"/><circle r="2.5" fill="#a2a5a0"/></g><g transform="translate(-19.5 -3.4) rotate(45.8)"><ellipse cx="0" cy="-8.5" rx="6.5" ry="8.5" fill="#f3f5f0" transform="rotate(0)"/><ellipse cx="0" cy="-8.5" rx="6.5" ry="8.5" fill="#f3f5f0" transform="rotate(90)"/><ellipse cx="0" cy="-8.5" rx="6.5" ry="8.5" fill="#f3f5f0" transform="rotate(180)"/><ellipse cx="0" cy="-8.5" rx="6.5" ry="8.5" fill="#f3f5f0" transform="rotate(270)"/><circle r="2.5" fill="#aaaca8"/></g><g transform="translate(18.5 -11.8) rotate(72.8)"><ellipse cx="0" cy="-8.5" rx="6.5" ry="8.5" fill="#f3f5f0" transform="rotate(0)"/><ellipse cx="0" cy="-8.5" rx="6.5" ry="8.5" fill="#f3f5f0" transform="rotate(90)"/><ellipse cx="0" cy="-8.5" rx="6.5" ry="8.5" fill="#f3f5f0" transform="rotate(180)"/><ellipse cx="0" cy="-8.5" rx="6.5" ry="8.5" fill="#f3f5f0" transform="rotate(270)"/><circle r="2.5" fill="#aaaca8"/></g><g transform="translate(-6.2 23.1) rotate(1.5)"><ellipse cx="0" cy="-8.5" rx="6.5" ry="8.5" fill="#e9ece5" transform="rotate(0)"/><ellipse cx="0" cy="-8.5" rx="6.5" ry="8.5" fill="#e9ece5" transform="rotate(90)"/><ellipse cx="0" cy="-8.5" rx="6.5" ry="8.5" fill="#e9ece5" transform="rotate(180)"/><ellipse cx="0" cy="-8.5" rx="6.5" ry="8.5" fill="#e9ece5" transform="rotate(270)"/><circle r="2.5" fill="#a3a5a0"/></g><g transform="translate(-11.9 -22.8) rotate(72.3)"><ellipse cx="0" cy="-8.5" rx="6.5" ry="8.5" fill="#f3f5f0" transform="rotate(0)"/><ellipse cx="0" cy="-8.5" rx="6.5" ry="8.5" fill="#f3f5f0" transform="rotate(90)"/><ellipse cx="0" cy="-8.5" rx="6.5" ry="8.5" fill="#f3f5f0" transform="rotate(180)"/><ellipse cx="0" cy="-8.5" rx="6.5" ry="8.5" fill="#f3f5f0" transform="rotate(270)"/><circle r="2.5" fill="#aaaca8"/></g><g transform="translate(25.8 9.4) rotate(24.9)"><ellipse cx="0" cy="-8.5" rx="6.5" ry="8.5" fill="#e0e2dd" transform="rotate(0)"/><ellipse cx="0" cy="-8.5" rx="6.5" ry="8.5" fill="#e0e2dd" transform="rotate(90)"/><ellipse cx="0" cy="-8.5" rx="6.5" ry="8.5" fill="#e0e2dd" transform="rotate(180)"/><ellipse cx="0" cy="-8.5" rx="6.5" ry="8.5" fill="#e0e2dd" transform="rotate(270)"/><circle r="2.5" fill="#9d9e9b"/></g><g transform="translate(-26.8 11.1) rotate(53.5)"><ellipse cx="0" cy="-8.5" rx="6.5" ry="8.5" fill="#e7ebe3" transform="rotate(0)"/><ellipse cx="0" cy="-8.5" rx="6.5" ry="8.5" fill="#e7ebe3" transform="rotate(90)"/><ellipse cx="0" cy="-8.5" rx="6.5" ry="8.5" fill="#e7ebe3" transform="rotate(180)"/><ellipse cx="0" cy="-8.5" rx="6.5" ry="8.5" fill="#e7ebe3" transform="rotate(270)"/><circle r="2.5" fill="#a2a49f"/></g><g transform="translate(12.9 -27.6) rotate(71.5)"><ellipse cx="0" cy="-8.5" rx="6.5" ry="8.5" fill="#f3f5f0" transform="rotate(0)"/><ellipse cx="0" cy="-8.5" rx="6.5" ry="8.5" fill="#f3f5f0" transform="rotate(90)"/><ellipse cx="0" cy="-8.5" rx="6.5" ry="8.5" fill="#f3f5f0" transform="rotate(180)"/><ellipse cx="0" cy="-8.5" rx="6.5" ry="8.5" fill="#f3f5f0" transform="rotate(270)"/><circle r="2.5" fill="#aaaca8"/></g><g transform="translate(9.6 30.5) rotate(15.4)"><ellipse cx="0" cy="-8.5" rx="6.5" ry="8.5" fill="#f3f5f0" transform="rotate(0)"/><ellipse cx="0" cy="-8.5" rx="6.5" ry="8.5" fill="#f3f5f0" transform="rotate(90)"/><ellipse cx="0" cy="-8.5" rx="6.5" ry="8.5" fill="#f3f5f0" transform="rotate(180)"/><ellipse cx="0" cy="-8.5" rx="6.5" ry="8.5" fill="#f3f5f0" transform="rotate(270)"/><circle r="2.5" fill="#aaaca8"/></g><g transform="translate(-28.8 -16.7) rotate(14.7)"><ellipse cx="0" cy="-8.5" rx="6.5" ry="8.5" fill="#d4d8d0" transform="rotate(0)"/><ellipse cx="0" cy="-8.5" rx="6.5" ry="8.5" fill="#d4d8d0" transform="rotate(90)"/><ellipse cx="0" cy="-8.5" rx="6.5" ry="8.5" fill="#d4d8d0" transform="rotate(180)"/><ellipse cx="0" cy="-8.5" rx="6.5" ry="8.5" fill="#d4d8d0" transform="rotate(270)"/><circle r="2.5" fill="#949792"/></g><g transform="translate(33.8 -7.5) rotate(11.4)"><ellipse cx="0" cy="-8.5" rx="6.5" ry="8.5" fill="#e6e8e3" transform="rotate(0)"/><ellipse cx="0" cy="-8.5" rx="6.5" ry="8.5" fill="#e6e8e3" transform="rotate(90)"/><ellipse cx="0" cy="-8.5" rx="6.5" ry="8.5" fill="#e6e8e3" transform="rotate(180)"/><ellipse cx="0" cy="-8.5" rx="6.5" ry="8.5" fill="#e6e8e3" transform="rotate(270)"/><circle r="2.5" fill="#a1a29f"/></g><g transform="translate(-20.6 29.4) rotate(57.1)"><ellipse cx="0" cy="-8.5" rx="6.5" ry="8.5" fill="#e2e4df" transform="rotate(0)"/><ellipse cx="0" cy="-8.5" rx="6.5" ry="8.5" fill="#e2e4df" transform="rotate(90)"/><ellipse cx="0" cy="-8.5" rx="6.5" ry="8.5" fill="#e2e4df" transform="rotate(180)"/><ellipse cx="0" cy="-8.5" rx="6.5" ry="8.5" fill="#e2e4df" transform="rotate(270)"/><circle r="2.5" fill="#9ea09c"/></g><g transform="translate(-4.8 -36.8) rotate(9.3)"><ellipse cx="0" cy="-8.5" rx="6.5" ry="8.5" fill="#e5e9e1" transform="rotate(0)"/><ellipse cx="0" cy="-8.5" rx="6.5" ry="8.5" fill="#e5e9e1" transform="rotate(90)"/><ellipse cx="0" cy="-8.5" rx="6.5" ry="8.5" fill="#e5e9e1" transform="rotate(180)"/><ellipse cx="0" cy="-8.5" rx="6.5" ry="8.5" fill="#e5e9e1" transform="rotate(270)"/><circle r="2.5" fill="#a0a39e"/></g><g transform="translate(29.3 24.6) rotate(82.8)"><ellipse cx="0" cy="-8.5" rx="6.5" ry="8.5" fill="#f3f5f0" transform="rotate(0)"/><ellipse cx="0" cy="-8.5" rx="6.5" ry="8.5" fill="#f3f5f0" transform="rotate(90)"/><ellipse cx="0" cy="-8.5" rx="6.5" ry="8.5" fill="#f3f5f0" transform="rotate(180)"/><ellipse cx="0" cy="-8.5" rx="6.5" ry="8.5" fill="#f3f5f0" transform="rotate(270)"/><circle r="2.5" fill="#aaaca8"/></g></g><g id="s21"><circle r="49" fill="url(#g20)" opacity="0.55"/><g transform="translate(6 0) rotate(43.2)"><ellipse cx="0" cy="-8.5" rx="6.5" ry="8.5" fill="#e5e9e1" transform="rotate(0)"/><ellipse cx="0" cy="-8.5" rx="6.5" ry="8.5" fill="#e5e9e1" transform="rotate(90)"/><ellipse cx="0" cy="-8.5" rx="6.5" ry="8.5" fill="#e5e9e1" transform="rotate(180)"/><ellipse cx="0" cy="-8.5" rx="6.5" ry="8.5" fill="#e5e9e1" transform="rotate(270)"/><circle r="2.5" fill="#a0a39e"/></g><g transform="translate(-8.3 7.6) rotate(37.4)"><ellipse cx="0" cy="-8.5" rx="6.5" ry="8.5" fill="#f4f6f1" transform="rotate(0)"/><ellipse cx="0" cy="-8.5" rx="6.5" ry="8.5" fill="#f4f6f1" transform="rotate(90)"/><ellipse cx="0" cy="-8.5" rx="6.5" ry="8.5" fill="#f4f6f1" transform="rotate(180)"/><ellipse cx="0" cy="-8.5" rx="6.5" ry="8.5" fill="#f4f6f1" transform="rotate(270)"/><circle r="2.5" fill="#abaca9"/></g><g transform="translate(1.3 -14.6) rotate(25.6)"><ellipse cx="0" cy="-8.5" rx="6.5" ry="8.5" fill="#f4f5f1" transform="rotate(0)"/><ellipse cx="0" cy="-8.5" rx="6.5" ry="8.5" fill="#f4f5f1" transform="rotate(90)"/><ellipse cx="0" cy="-8.5" rx="6.5" ry="8.5" fill="#f4f5f1" transform="rotate(180)"/><ellipse cx="0" cy="-8.5" rx="6.5" ry="8.5" fill="#f4f5f1" transform="rotate(270)"/><circle r="2.5" fill="#abaca9"/></g><g transform="translate(10.6 13.8) rotate(16.7)"><ellipse cx="0" cy="-8.5" rx="6.5" ry="8.5" fill="#e7ebe4" transform="rotate(0)"/><ellipse cx="0" cy="-8.5" rx="6.5" ry="8.5" fill="#e7ebe4" transform="rotate(90)"/><ellipse cx="0" cy="-8.5" rx="6.5" ry="8.5" fill="#e7ebe4" transform="rotate(180)"/><ellipse cx="0" cy="-8.5" rx="6.5" ry="8.5" fill="#e7ebe4" transform="rotate(270)"/><circle r="2.5" fill="#a2a4a0"/></g><g transform="translate(-19.5 -3.4) rotate(15.3)"><ellipse cx="0" cy="-8.5" rx="6.5" ry="8.5" fill="#f3f5f0" transform="rotate(0)"/><ellipse cx="0" cy="-8.5" rx="6.5" ry="8.5" fill="#f3f5f0" transform="rotate(90)"/><ellipse cx="0" cy="-8.5" rx="6.5" ry="8.5" fill="#f3f5f0" transform="rotate(180)"/><ellipse cx="0" cy="-8.5" rx="6.5" ry="8.5" fill="#f3f5f0" transform="rotate(270)"/><circle r="2.5" fill="#aaaca8"/></g><g transform="translate(18.5 -11.8) rotate(51.6)"><ellipse cx="0" cy="-8.5" rx="6.5" ry="8.5" fill="#e5e7e3" transform="rotate(0)"/><ellipse cx="0" cy="-8.5" rx="6.5" ry="8.5" fill="#e5e7e3" transform="rotate(90)"/><ellipse cx="0" cy="-8.5" rx="6.5" ry="8.5" fill="#e5e7e3" transform="rotate(180)"/><ellipse cx="0" cy="-8.5" rx="6.5" ry="8.5" fill="#e5e7e3" transform="rotate(270)"/><circle r="2.5" fill="#a0a29f"/></g><g transform="translate(-6.2 23.1) rotate(51.4)"><ellipse cx="0" cy="-8.5" rx="6.5" ry="8.5" fill="#e7ebe3" transform="rotate(0)"/><ellipse cx="0" cy="-8.5" rx="6.5" ry="8.5" fill="#e7ebe3" transform="rotate(90)"/><ellipse cx="0" cy="-8.5" rx="6.5" ry="8.5" fill="#e7ebe3" transform="rotate(180)"/><ellipse cx="0" cy="-8.5" rx="6.5" ry="8.5" fill="#e7ebe3" transform="rotate(270)"/><circle r="2.5" fill="#a2a49f"/></g><g transform="translate(-11.9 -22.8) rotate(20.3)"><ellipse cx="0" cy="-8.5" rx="6.5" ry="8.5" fill="#f3f5f0" transform="rotate(0)"/><ellipse cx="0" cy="-8.5" rx="6.5" ry="8.5" fill="#f3f5f0" transform="rotate(90)"/><ellipse cx="0" cy="-8.5" rx="6.5" ry="8.5" fill="#f3f5f0" transform="rotate(180)"/><ellipse cx="0" cy="-8.5" rx="6.5" ry="8.5" fill="#f3f5f0" transform="rotate(270)"/><circle r="2.5" fill="#aaaca8"/></g><g transform="translate(25.8 9.4) rotate(81.4)"><ellipse cx="0" cy="-8.5" rx="6.5" ry="8.5" fill="#f3f5f0" transform="rotate(0)"/><ellipse cx="0" cy="-8.5" rx="6.5" ry="8.5" fill="#f3f5f0" transform="rotate(90)"/><ellipse cx="0" cy="-8.5" rx="6.5" ry="8.5" fill="#f3f5f0" transform="rotate(180)"/><ellipse cx="0" cy="-8.5" rx="6.5" ry="8.5" fill="#f3f5f0" transform="rotate(270)"/><circle r="2.5" fill="#aaaca8"/></g><g transform="translate(-26.8 11.1) rotate(89.3)"><ellipse cx="0" cy="-8.5" rx="6.5" ry="8.5" fill="#e0e4dc" transform="rotate(0)"/><ellipse cx="0" cy="-8.5" rx="6.5" ry="8.5" fill="#e0e4dc" transform="rotate(90)"/><ellipse cx="0" cy="-8.5" rx="6.5" ry="8.5" fill="#e0e4dc" transform="rotate(180)"/><ellipse cx="0" cy="-8.5" rx="6.5" ry="8.5" fill="#e0e4dc" transform="rotate(270)"/><circle r="2.5" fill="#9da09a"/></g><g transform="translate(12.9 -27.6) rotate(88)"><ellipse cx="0" cy="-8.5" rx="6.5" ry="8.5" fill="#f3f5f0" transform="rotate(0)"/><ellipse cx="0" cy="-8.5" rx="6.5" ry="8.5" fill="#f3f5f0" transform="rotate(90)"/><ellipse cx="0" cy="-8.5" rx="6.5" ry="8.5" fill="#f3f5f0" transform="rotate(180)"/><ellipse cx="0" cy="-8.5" rx="6.5" ry="8.5" fill="#f3f5f0" transform="rotate(270)"/><circle r="2.5" fill="#aaaca8"/></g><g transform="translate(9.6 30.5) rotate(82.2)"><ellipse cx="0" cy="-8.5" rx="6.5" ry="8.5" fill="#f2f4ef" transform="rotate(0)"/><ellipse cx="0" cy="-8.5" rx="6.5" ry="8.5" fill="#f2f4ef" transform="rotate(90)"/><ellipse cx="0" cy="-8.5" rx="6.5" ry="8.5" fill="#f2f4ef" transform="rotate(180)"/><ellipse cx="0" cy="-8.5" rx="6.5" ry="8.5" fill="#f2f4ef" transform="rotate(270)"/><circle r="2.5" fill="#a9aba7"/></g><g transform="translate(-28.8 -16.7) rotate(85.4)"><ellipse cx="0" cy="-8.5" rx="6.5" ry="8.5" fill="#e7ebe3" transform="rotate(0)"/><ellipse cx="0" cy="-8.5" rx="6.5" ry="8.5" fill="#e7ebe3" transform="rotate(90)"/><ellipse cx="0" cy="-8.5" rx="6.5" ry="8.5" fill="#e7ebe3" transform="rotate(180)"/><ellipse cx="0" cy="-8.5" rx="6.5" ry="8.5" fill="#e7ebe3" transform="rotate(270)"/><circle r="2.5" fill="#a2a49f"/></g><g transform="translate(33.8 -7.5) rotate(4.1)"><ellipse cx="0" cy="-8.5" rx="6.5" ry="8.5" fill="#e5e7e2" transform="rotate(0)"/><ellipse cx="0" cy="-8.5" rx="6.5" ry="8.5" fill="#e5e7e2" transform="rotate(90)"/><ellipse cx="0" cy="-8.5" rx="6.5" ry="8.5" fill="#e5e7e2" transform="rotate(180)"/><ellipse cx="0" cy="-8.5" rx="6.5" ry="8.5" fill="#e5e7e2" transform="rotate(270)"/><circle r="2.5" fill="#a0a29e"/></g><g transform="translate(-20.6 29.4) rotate(38.6)"><ellipse cx="0" cy="-8.5" rx="6.5" ry="8.5" fill="#ebede8" transform="rotate(0)"/><ellipse cx="0" cy="-8.5" rx="6.5" ry="8.5" fill="#ebede8" transform="rotate(90)"/><ellipse cx="0" cy="-8.5" rx="6.5" ry="8.5" fill="#ebede8" transform="rotate(180)"/><ellipse cx="0" cy="-8.5" rx="6.5" ry="8.5" fill="#ebede8" transform="rotate(270)"/><circle r="2.5" fill="#a4a6a2"/></g><g transform="translate(-4.8 -36.8) rotate(52.7)"><ellipse cx="0" cy="-8.5" rx="6.5" ry="8.5" fill="#e7ebe3" transform="rotate(0)"/><ellipse cx="0" cy="-8.5" rx="6.5" ry="8.5" fill="#e7ebe3" transform="rotate(90)"/><ellipse cx="0" cy="-8.5" rx="6.5" ry="8.5" fill="#e7ebe3" transform="rotate(180)"/><ellipse cx="0" cy="-8.5" rx="6.5" ry="8.5" fill="#e7ebe3" transform="rotate(270)"/><circle r="2.5" fill="#a2a49f"/></g><g transform="translate(29.3 24.6) rotate(69.2)"><ellipse cx="0" cy="-8.5" rx="6.5" ry="8.5" fill="#e9ebe7" transform="rotate(0)"/><ellipse cx="0" cy="-8.5" rx="6.5" ry="8.5" fill="#e9ebe7" transform="rotate(90)"/><ellipse cx="0" cy="-8.5" rx="6.5" ry="8.5" fill="#e9ebe7" transform="rotate(180)"/><ellipse cx="0" cy="-8.5" rx="6.5" ry="8.5" fill="#e9ebe7" transform="rotate(270)"/><circle r="2.5" fill="#a3a4a2"/></g></g><linearGradient id="g22" x1="0" y1="0" x2="1" y2="0"><stop offset="0" stop-color="#dedcd7"/><stop offset="1" stop-color="#b3afa8"/></linearGradient></defs><rect width="560" height="560" fill="url(#g1)"/><circle cx="20.9" cy="38" r="65.4" fill="#ffffff" opacity="0.12"/><circle cx="32.4" cy="350.1" r="104.4" fill="#ffffff" opacity="0.05"/><circle cx="502.6" cy="314.6" r="111.6" fill="#ffffff" opacity="0.06"/><circle cx="91.5" cy="5.5" r="83.5" fill="#ffffff" opacity="0.10"/><circle cx="0.4" cy="414.5" r="61.4" fill="#ffffff" opacity="0.12"/><circle cx="64.1" cy="85.8" r="33.9" fill="#ffffff" opacity="0.06"/><circle cx="399.1" cy="184.8" r="95.2" fill="#ffffff" opacity="0.13"/><rect y="481.6" width="560" height="78.4" fill="#cfd0cb" opacity="0.4"/><ellipse cx="280" cy="451.1" rx="184.8" ry="16.4" fill="#3a2f28" opacity="0.16"/><use href="#s2" transform="translate(260.1 310.1) rotate(-185.1) scale(0.463)" opacity="0.90"/><use href="#s3" transform="translate(205.2 309.1) rotate(-158.1) scale(0.606)" opacity="0.96"/><use href="#s2" transform="translate(177.2 278.4) rotate(-142) scale(0.643)" opacity="0.94"/><use href="#s3" transform="translate(146.8 257.3) rotate(-110.1) scale(0.608)" opacity="0.88"/><use href="#s2" transform="translate(102.7 229.9) rotate(-108) scale(0.651)" opacity="0.86"/><use href="#s3" transform="translate(104.6 208.9) rotate(-76.1) scale(0.449)" opacity="0.96"/><use href="#s2" transform="translate(119.7 175.8) rotate(-54.5) scale(0.552)" opacity="0.99"/><use href="#s3" transform="translate(165.7 158.5) rotate(-52.7) scale(0.509)" opacity="0.92"/><use href="#s2" transform="translate(223.1 145.3) rotate(-35) scale(0.640)" opacity="0.91"/><use href="#s3" transform="translate(264.6 139.6) rotate(7.6) scale(0.434)" opacity="0.95"/><use href="#s2" transform="translate(311.9 141.3) rotate(17.4) scale(0.619)" opacity="0.91"/><use href="#s3" transform="translate(351.9 150.9) rotate(34.5) scale(0.464)" opacity="0.92"/><use href="#s2" transform="translate(391 168.1) rotate(51.7) scale(0.512)" opacity="0.85"/><use href="#s3" transform="translate(430.1 186.5) rotate(76.7) scale(0.615)" opacity="0.88"/><use href="#s2" transform="translate(431.3 213.2) rotate(93.9) scale(0.624)" opacity="0.98"/><use href="#s3" transform="translate(454.3 232.1) rotate(98) scale(0.496)" opacity="0.86"/><use href="#s2" transform="translate(429.6 268.1) rotate(119.7) scale(0.639)" opacity="0.96"/><use href="#s3" transform="translate(409.8 276.3) rotate(127.9) scale(0.626)" opacity="0.99"/><use href="#s2" transform="translate(343.7 299.9) rotate(163.7) scale(0.607)" opacity="0.98"/><use href="#s3" transform="translate(297.9 307) rotate(162.4) scale(0.443)" opacity="0.95"/><ellipse cx="280" cy="235.1" rx="121" ry="65.2" fill="#405947" opacity="0.32" filter="url(#f5)"/><use href="#s3" transform="translate(163.7 253.7) rotate(58.6) scale(0.296)" opacity="0.85"/><use href="#s3" transform="translate(315.6 145.3) rotate(236.3) scale(0.432)" opacity="0.85"/><use href="#s3" transform="translate(364.3 186.1) rotate(203.1) scale(0.320)" opacity="0.85"/><use href="#s3" transform="translate(138.2 215.2) rotate(61.6) scale(0.430)" opacity="0.85"/><use href="#s3" transform="translate(195.8 155.2) rotate(225.3) scale(0.317)" opacity="0.85"/><use href="#s3" transform="translate(217.5 146.2) rotate(136.2) scale(0.344)" opacity="0.85"/><use href="#s3" transform="translate(277.3 245.3) rotate(197.8) scale(0.428)" opacity="0.85"/><use href="#s3" transform="translate(204.6 197.1) rotate(55.1) scale(0.424)" opacity="0.85"/><use href="#s3" transform="translate(228.3 221.9) rotate(71.4) scale(0.340)" opacity="0.85"/><use href="#s3" transform="translate(228.6 215.7) rotate(189.9) scale(0.323)" opacity="0.85"/><use href="#s3" transform="translate(162.8 255.7) rotate(218.1) scale(0.405)" opacity="0.85"/><use href="#s3" transform="translate(303.6 213) rotate(339.4) scale(0.313)" opacity="0.85"/><use href="#s3" transform="translate(348.5 270) rotate(88.8) scale(0.320)" opacity="0.85"/><use href="#s3" transform="translate(348.7 217.2) rotate(204.9) scale(0.377)" opacity="0.85"/><use href="#s3" transform="translate(416.3 199.2) rotate(51.2) scale(0.431)" opacity="0.85"/><use href="#s3" transform="translate(195 277.6) rotate(124.2) scale(0.297)" opacity="0.85"/><use href="#s13" transform="translate(371.3 152.7) rotate(161.3) scale(0.621)"/><use href="#s19" transform="translate(297.5 156) rotate(10.4) scale(0.808)"/><use href="#s18" transform="translate(282.8 162.5) rotate(-3.8) scale(0.611)"/><use href="#s13" transform="translate(186.8 167.9) rotate(106.5) scale(0.530)"/><use href="#s13" transform="translate(281.9 177.7) rotate(99.6) scale(0.602)"/><use href="#s13" transform="translate(359.5 178) rotate(354) scale(0.618)"/><use href="#s13" transform="translate(194.5 195.2) rotate(206.1) scale(0.557)"/><use href="#s18" transform="translate(135 201.3) rotate(0.4) scale(0.709)"/><use href="#s21" transform="translate(330 214.5) rotate(8.5) scale(0.834)"/><use href="#s6" transform="translate(314.5 219.2) rotate(213.2) scale(0.644)"/><use href="#s14" transform="translate(327.7 220) rotate(-20.5) scale(0.649)"/><use href="#s14" transform="translate(210.2 249) rotate(-7) scale(0.628)"/><use href="#s6" transform="translate(249.8 250.3) rotate(323.5) scale(0.625)"/><use href="#s6" transform="translate(138.3 255.1) rotate(170.5) scale(0.523)"/><use href="#s13" transform="translate(403.4 255.9) rotate(18.6) scale(0.514)"/><use href="#s19" transform="translate(222 259.3) rotate(188.6) scale(0.778)"/><use href="#s6" transform="translate(329.9 265.7) rotate(204) scale(0.616)"/><use href="#s18" transform="translate(388.1 267.4) rotate(7.6) scale(0.605)"/><use href="#s13" transform="translate(227.5 276.9) rotate(207.3) scale(0.645)"/><use href="#s19" transform="translate(332.2 293.6) rotate(201.2) scale(0.834)"/><use href="#s13" transform="translate(333 309.8) rotate(18.2) scale(0.608)"/><use href="#s2" transform="translate(154.5 266) rotate(-135.4) scale(0.306)" opacity="0.90"/><use href="#s2" transform="translate(119.2 200.6) rotate(-82.1) scale(0.300)" opacity="0.90"/><use href="#s2" transform="translate(200.8 149.8) rotate(-14.9) scale(0.386)" opacity="0.90"/><use href="#s2" transform="translate(362.2 156.5) rotate(35.1) scale(0.396)" opacity="0.90"/><use href="#s2" transform="translate(416.7 208.2) rotate(79.3) scale(0.366)" opacity="0.90"/><use href="#s2" transform="translate(405.6 270.2) rotate(120.1) scale(0.404)" opacity="0.90"/><path d="M140 323 L154 448.1 Q280 464.5 406 448.1 L420 323 Z" fill="url(#g22)"/><ellipse cx="280" cy="323" rx="140" ry="20.5" fill="#e1ded9"/><ellipse cx="280" cy="323" rx="126" ry="16.7" fill="#a5a29c"/><path d="M146.3 391.5 L413.7 391.5 L411.6 415.4 L148.4 415.4 Z" fill="#8f9a92" opacity="0.95"/><path d="M280 403.5 C224 379.6 207.2 421.3 280 403.5 Z" fill="#a1aaa3" stroke="#727b75" stroke-width="1"/><path d="M280 403.5 C336 379.6 352.8 421.3 280 403.5 Z" fill="#a1aaa3" stroke="#727b75" stroke-width="1"/><circle cx="280" cy="403.5" r="9.8" fill="#7e8880"/></svg>