<svg xmlns="http://www.w3.org/2000/svg" xmlns:xlink="http://www.w3.org/1999/xlink" viewBox="0 0 700 700" width="700" height="700" role="img" aria-label="parisian-hatbox"><title>parisian-hatbox</title><defs><radialGradient id="g1" cx="50%" cy="38%" r="72%"><stop offset="0" stop-color="#f6ece7"/><stop offset="1" stop-color="#e8d3cb"/></radialGradient><g id="s2"><path d="M0 0 C5 -30 -5 -60 0 -90" fill="none" stroke="#31563f" stroke-width="3.5"/><ellipse cx="-12.8" cy="-15" rx="15" ry="12.3" fill="#3d6b4f" opacity="0.95"/><ellipse cx="12.8" cy="-15" rx="15" ry="12.3" fill="#3d6b4f" opacity="0.95"/><ellipse cx="-11.3" cy="-31" rx="13.2" ry="10.9" fill="#49745a" opacity="0.95"/><ellipse cx="11.3" cy="-31" rx="13.2" ry="10.9" fill="#49745a" opacity="0.95"/><ellipse cx="-9.8" cy="-47" rx="11.5" ry="9.4" fill="#547d64" opacity="0.95"/><ellipse cx="9.8" cy="-47" rx="11.5" ry="9.4" fill="#547d64" opacity="0.95"/><ellipse cx="-8.3" cy="-63" rx="9.7" ry="8" fill="#60866f" opacity="0.95"/><ellipse cx="8.3" cy="-63" rx="9.7" ry="8" fill="#60866f" opacity="0.95"/><ellipse cx="-6.8" cy="-79" rx="8" ry="6.6" fill="#6c8f79" opacity="0.95"/><ellipse cx="6.8" cy="-79" rx="8" ry="6.6" fill="#6c8f79" opacity="0.95"/></g><linearGradient id="g4" x1="0" y1="0" x2="0" y2="1"><stop offset="0" stop-color="#587b66"/><stop offset="1" stop-color="#2c4c39"/></linearGradient><g id="s3"><path d="M0 0 C-21 -30 -15 -67.5 0 -87.5 C15 -67.5 21 -30 0 0 Z" fill="url(#g4)"/><path d="M0 -4 L0 -80" fill="none" stroke="#274533" stroke-width="2.2" opacity="0.55"/></g><filter id="f5" x="-30%" y="-30%" width="160%" height="160%"><feGaussianBlur stdDeviation="21"/></filter><radialGradient id="g7" cx="45%" cy="35%" r="72%"><stop offset="0" stop-color="#b34159"/><stop offset="1" stop-color="#90102b"/></radialGradient><path id="p8" d="M0 0 C-23 -11 -25.8 -33 -11.5 -46.5 C-4.1 -53 4.1 -53 11.5 -46.5 C25.8 -33 23 -11 0 0 Z"/><radialGradient id="g9" cx="45%" cy="35%" r="72%"><stop offset="0" stop-color="#cd4563"/><stop offset="1" stop-color="#ad1536"/></radialGradient><path id="p10" d="M0 0 C-18.5 -8.4 -20.7 -25.1 -9.2 -35.3 C-3.3 -40.3 3.3 -40.3 9.2 -35.3 C20.7 -25.1 18.5 -8.4 0 0 Z"/><path id="p11" d="M0 0 C-14.5 -6.1 -16.2 -18.2 -7.2 -25.6 C-2.6 -29.2 2.6 -29.2 7.2 -25.6 C16.2 -18.2 14.5 -6.1 0 0 Z"/><path id="p12" d="M0 0 C-11 -4.1 -12.3 -12.2 -5.5 -17.2 C-2 -19.6 2 -19.6 5.5 -17.2 C12.3 -12.2 11 -4.1 0 0 Z"/><g id="s6"><circle r="25" fill="#800f28"/><use href="#p8" fill="url(#g7)" stroke="#ab586a" stroke-width="0.6" stroke-opacity="0.5" transform="rotate(16.7)" opacity="0.98"/><use href="#p8" fill="url(#g7)" stroke="#ab586a" stroke-width="0.6" stroke-opacity="0.5" transform="rotate(61.7)" opacity="0.98"/><use href="#p8" fill="url(#g7)" stroke="#ab586a" stroke-width="0.6" stroke-opacity="0.5" transform="rotate(106.7)" opacity="0.98"/><use href="#p8" fill="url(#g7)" stroke="#ab586a" stroke-width="0.6" stroke-opacity="0.5" transform="rotate(151.7)" opacity="0.98"/><use href="#p8" fill="url(#g7)" stroke="#ab586a" stroke-width="0.6" stroke-opacity="0.5" transform="rotate(196.7)" opacity="0.98"/><use href="#p8" fill="url(#g7)" stroke="#ab586a" stroke-width="0.6" stroke-opacity="0.5" transform="rotate(241.7)" opacity="0.98"/><use href="#p8" fill="url(#g7)" stroke="#ab586a" stroke-width="0.6" stroke-opacity="0.5" transform="rotate(286.7)" opacity="0.98"/><use href="#p8" fill="url(#g7)" stroke="#ab586a" stroke-width="0.6" stroke-opacity="0.5" transform="rotate(331.7)" opacity="0.98"/><use href="#p10" fill="url(#g9)" stroke="#ab586a" stroke-width="0.6" stroke-opacity="0.5" transform="rotate(40.7)" opacity="0.98"/><use href="#p10" fill="url(#g9)" stroke="#ab586a" stroke-width="0.6" stroke-opacity="0.5" transform="rotate(92.1)" opacity="0.98"/><use href="#p10" fill="url(#g9)" stroke="#ab586a" stroke-width="0.6" stroke-opacity="0.5" transform="rotate(143.6)" opacity="0.98"/><use href="#p10" fill="url(#g9)" stroke="#ab586a" stroke-width="0.6" stroke-opacity="0.5" transform="rotate(195)" opacity="0.98"/><use href="#p10" fill="url(#g9)" stroke="#ab586a" stroke-width="0.6" stroke-opacity="0.5" transform="rotate(246.4)" opacity="0.98"/><use href="#p10" fill="url(#g9)" stroke="#ab586a" stroke-width="0.6" stroke-opacity="0.5" transform="rotate(297.8)" opacity="0.98"/><use href="#p10" fill="url(#g9)" stroke="#ab586a" stroke-width="0.6" stroke-opacity="0.5" transform="rotate(349.3)" opacity="0.98"/><use href="#p11" fill="url(#g7)" stroke="#ab586a" stroke-width="0.6" stroke-opacity="0.5" transform="rotate(64.7)" opacity="0.98"/><use href="#p11" fill="url(#g7)" stroke="#ab586a" stroke-width="0.6" stroke-opacity="0.5" transform="rotate(124.7)" opacity="0.98"/><use href="#p11" fill="url(#g7)" stroke="#ab586a" stroke-width="0.6" stroke-opacity="0.5" transform="rotate(184.7)" opacity="0.98"/><use href="#p11" fill="url(#g7)" stroke="#ab586a" stroke-width="0.6" stroke-opacity="0.5" transform="rotate(244.7)" opacity="0.98"/><use href="#p11" fill="url(#g7)" stroke="#ab586a" stroke-width="0.6" stroke-opacity="0.5" transform="rotate(304.7)" opacity="0.98"/><use href="#p11" fill="url(#g7)" stroke="#ab586a" stroke-width="0.6" stroke-opacity="0.5" transform="rotate(364.7)" opacity="0.98"/><use href="#p12" fill="url(#g9)" stroke="#ab586a" stroke-width="0.6" stroke-opacity="0.5" transform="rotate(88.7)" opacity="0.98"/><use href="#p12" fill="url(#g9)" stroke="#ab586a" stroke-width="0.6" stroke-opacity="0.5" transform="rotate(160.7)" opacity="0.98"/><use href="#p12" fill="url(#g9)" stroke="#ab586a" stroke-width="0.6" stroke-opacity="0.5" transform="rotate(232.7)" opacity="0.98"/><use href="#p12" fill="url(#g9)" stroke="#ab586a" stroke-width="0.6" stroke-opacity="0.5" transform="rotate(304.7)" opacity="0.98"/><use href="#p12" fill="url(#g9)" stroke="#ab586a" stroke-width="0.6" stroke-opacity="0.5" transform="rotate(376.7)" opacity="0.98"/><circle r="11" fill="none" stroke="#9a364c" stroke-width="3.5" opacity="0.9"/><circle r="7" fill="none" stroke="#a64e61" stroke-width="3.5" opacity="0.9"/><circle r="3.5" fill="none" stroke="#b26677" stroke-width="3.5" opacity="0.9"/><circle r="2.2" fill="#6c0d22"/></g><g id="s13"><circle r="25" fill="#800f28"/><use href="#p8" fill="url(#g7)" stroke="#ab586a" stroke-width="0.6" stroke-opacity="0.5" transform="rotate(32.4)" opacity="0.98"/><use href="#p8" fill="url(#g7)" stroke="#ab586a" stroke-width="0.6" stroke-opacity="0.5" transform="rotate(77.4)" opacity="0.98"/><use href="#p8" fill="url(#g7)" stroke="#ab586a" stroke-width="0.6" stroke-opacity="0.5" transform="rotate(122.4)" opacity="0.98"/><use href="#p8" fill="url(#g7)" stroke="#ab586a" stroke-width="0.6" stroke-opacity="0.5" transform="rotate(167.4)" opacity="0.98"/><use href="#p8" fill="url(#g7)" stroke="#ab586a" stroke-width="0.6" stroke-opacity="0.5" transform="rotate(212.4)" opacity="0.98"/><use href="#p8" fill="url(#g7)" stroke="#ab586a" stroke-width="0.6" stroke-opacity="0.5" transform="rotate(257.4)" opacity="0.98"/><use href="#p8" fill="url(#g7)" stroke="#ab586a" stroke-width="0.6" stroke-opacity="0.5" transform="rotate(302.4)" opacity="0.98"/><use href="#p8" fill="url(#g7)" stroke="#ab586a" stroke-width="0.6" stroke-opacity="0.5" transform="rotate(347.4)" opacity="0.98"/><use href="#p10" fill="url(#g9)" stroke="#ab586a" stroke-width="0.6" stroke-opacity="0.5" transform="rotate(56.4)" opacity="0.98"/><use href="#p10" fill="url(#g9)" stroke="#ab586a" stroke-width="0.6" stroke-opacity="0.5" transform="rotate(107.8)" opacity="0.98"/><use href="#p10" fill="url(#g9)" stroke="#ab586a" stroke-width="0.6" stroke-opacity="0.5" transform="rotate(159.3)" opacity="0.98"/><use href="#p10" fill="url(#g9)" stroke="#ab586a" stroke-width="0.6" stroke-opacity="0.5" transform="rotate(210.7)" opacity="0.98"/><use href="#p10" fill="url(#g9)" stroke="#ab586a" stroke-width="0.6" stroke-opacity="0.5" transform="rotate(262.1)" opacity="0.98"/><use href="#p10" fill="url(#g9)" stroke="#ab586a" stroke-width="0.6" stroke-opacity="0.5" transform="rotate(313.5)" opacity="0.98"/><use href="#p10" fill="url(#g9)" stroke="#ab586a" stroke-width="0.6" stroke-opacity="0.5" transform="rotate(365)" opacity="0.98"/><use href="#p11" fill="url(#g7)" stroke="#ab586a" stroke-width="0.6" stroke-opacity="0.5" transform="rotate(80.4)" opacity="0.98"/><use href="#p11" fill="url(#g7)" stroke="#ab586a" stroke-width="0.6" stroke-opacity="0.5" transform="rotate(140.4)" opacity="0.98"/><use href="#p11" fill="url(#g7)" stroke="#ab586a" stroke-width="0.6" stroke-opacity="0.5" transform="rotate(200.4)" opacity="0.98"/><use href="#p11" fill="url(#g7)" stroke="#ab586a" stroke-width="0.6" stroke-opacity="0.5" transform="rotate(260.4)" opacity="0.98"/><use href="#p11" fill="url(#g7)" stroke="#ab586a" stroke-width="0.6" stroke-opacity="0.5" transform="rotate(320.4)" opacity="0.98"/><use href="#p11" fill="url(#g7)" stroke="#ab586a" stroke-width="0.6" stroke-opacity="0.5" transform="rotate(380.4)" opacity="0.98"/><use href="#p12" fill="url(#g9)" stroke="#ab586a" stroke-width="0.6" stroke-opacity="0.5" transform="rotate(104.4)" opacity="0.98"/><use href="#p12" fill="url(#g9)" stroke="#ab586a" stroke-width="0.6" stroke-opacity="0.5" transform="rotate(176.4)" opacity="0.98"/><use href="#p12" fill="url(#g9)" stroke="#ab586a" stroke-width="0.6" stroke-opacity="0.5" transform="rotate(248.4)" opacity="0.98"/><use href="#p12" fill="url(#g9)" stroke="#ab586a" stroke-width="0.6" stroke-opacity="0.5" transform="rotate(320.4)" opacity="0.98"/><use href="#p12" fill="url(#g9)" stroke="#ab586a" stroke-width="0.6" stroke-opacity="0.5" transform="rotate(392.4)" opacity="0.98"/><circle r="11" fill="none" stroke="#9a364c" stroke-width="3.5" opacity="0.9"/><circle r="7" fill="none" stroke="#a64e61" stroke-width="3.5" opacity="0.9"/><circle r="3.5" fill="none" stroke="#b26677" stroke-width="3.5" opacity="0.9"/><circle r="2.2" fill="#6c0d22"/></g><radialGradient id="g15" cx="45%" cy="35%" r="72%"><stop offset="0" stop-color="#dd5c7b"/><stop offset="1" stop-color="#bf2e51"/></radialGradient><radialGradient id="g16" cx="45%" cy="35%" r="72%"><stop offset="0" stop-color="#c64566"/><stop offset="1" stop-color="#a6143a"/></radialGradient><g id="s14"><circle r="25" fill="#7d0f2c"/><use href="#p8" fill="url(#g15)" stroke="#a9586d" stroke-width="0.6" stroke-opacity="0.5" transform="rotate(16.7)" opacity="0.98"/><use href="#p8" fill="url(#g15)" stroke="#a9586d" stroke-width="0.6" stroke-opacity="0.5" transform="rotate(61.7)" opacity="0.98"/><use href="#p8" fill="url(#g15)" stroke="#a9586d" stroke-width="0.6" stroke-opacity="0.5" transform="rotate(106.7)" opacity="0.98"/><use href="#p8" fill="url(#g15)" stroke="#a9586d" stroke-width="0.6" stroke-opacity="0.5" transform="rotate(151.7)" opacity="0.98"/><use href="#p8" fill="url(#g15)" stroke="#a9586d" stroke-width="0.6" stroke-opacity="0.5" transform="rotate(196.7)" opacity="0.98"/><use href="#p8" fill="url(#g15)" stroke="#a9586d" stroke-width="0.6" stroke-opacity="0.5" transform="rotate(241.7)" opacity="0.98"/><use href="#p8" fill="url(#g15)" stroke="#a9586d" stroke-width="0.6" stroke-opacity="0.5" transform="rotate(286.7)" opacity="0.98"/><use href="#p8" fill="url(#g15)" stroke="#a9586d" stroke-width="0.6" stroke-opacity="0.5" transform="rotate(331.7)" opacity="0.98"/><use href="#p10" fill="url(#g16)" stroke="#a9586d" stroke-width="0.6" stroke-opacity="0.5" transform="rotate(40.7)" opacity="0.98"/><use href="#p10" fill="url(#g16)" stroke="#a9586d" stroke-width="0.6" stroke-opacity="0.5" transform="rotate(92.1)" opacity="0.98"/><use href="#p10" fill="url(#g16)" stroke="#a9586d" stroke-width="0.6" stroke-opacity="0.5" transform="rotate(143.6)" opacity="0.98"/><use href="#p10" fill="url(#g16)" stroke="#a9586d" stroke-width="0.6" stroke-opacity="0.5" transform="rotate(195)" opacity="0.98"/><use href="#p10" fill="url(#g16)" stroke="#a9586d" stroke-width="0.6" stroke-opacity="0.5" transform="rotate(246.4)" opacity="0.98"/><use href="#p10" fill="url(#g16)" stroke="#a9586d" stroke-width="0.6" stroke-opacity="0.5" transform="rotate(297.8)" opacity="0.98"/><use href="#p10" fill="url(#g16)" stroke="#a9586d" stroke-width="0.6" stroke-opacity="0.5" transform="rotate(349.3)" opacity="0.98"/><use href="#p11" fill="url(#g15)" stroke="#a9586d" stroke-width="0.6" stroke-opacity="0.5" transform="rotate(64.7)" opacity="0.98"/><use href="#p11" fill="url(#g15)" stroke="#a9586d" stroke-width="0.6" stroke-opacity="0.5" transform="rotate(124.7)" opacity="0.98"/><use href="#p11" fill="url(#g15)" stroke="#a9586d" stroke-width="0.6" stroke-opacity="0.5" transform="rotate(184.7)" opacity="0.98"/><use href="#p11" fill="url(#g15)" stroke="#a9586d" stroke-width="0.6" stroke-opacity="0.5" transform="rotate(244.7)" opacity="0.98"/><use href="#p11" fill="url(#g15)" stroke="#a9586d" stroke-width="0.6" stroke-opacity="0.5" transform="rotate(304.7)" opacity="0.98"/><use href="#p11" fill="url(#g15)" stroke="#a9586d" stroke-width="0.6" stroke-opacity="0.5" transform="rotate(364.7)" opacity="0.98"/><use href="#p12" fill="url(#g16)" stroke="#a9586d" stroke-width="0.6" stroke-opacity="0.5" transform="rotate(88.7)" opacity="0.98"/><use href="#p12" fill="url(#g16)" stroke="#a9586d" stroke-width="0.6" stroke-opacity="0.5" transform="rotate(160.7)" opacity="0.98"/><use href="#p12" fill="url(#g16)" stroke="#a9586d" stroke-width="0.6" stroke-opacity="0.5" transform="rotate(232.7)" opacity="0.98"/><use href="#p12" fill="url(#g16)" stroke="#a9586d" stroke-width="0.6" stroke-opacity="0.5" transform="rotate(304.7)" opacity="0.98"/><use href="#p12" fill="url(#g16)" stroke="#a9586d" stroke-width="0.6" stroke-opacity="0.5" transform="rotate(376.7)" opacity="0.98"/><circle r="11" fill="none" stroke="#98364f" stroke-width="3.5" opacity="0.9"/><circle r="7" fill="none" stroke="#a44e64" stroke-width="3.5" opacity="0.9"/><circle r="3.5" fill="none" stroke="#b06679" stroke-width="3.5" opacity="0.9"/><circle r="2.2" fill="#6a0d25"/></g><g id="s17"><circle r="25" fill="#7d0f2c"/><use href="#p8" fill="url(#g15)" stroke="#a9586d" stroke-width="0.6" stroke-opacity="0.5" transform="rotate(32.4)" opacity="0.98"/><use href="#p8" fill="url(#g15)" stroke="#a9586d" stroke-width="0.6" stroke-opacity="0.5" transform="rotate(77.4)" opacity="0.98"/><use href="#p8" fill="url(#g15)" stroke="#a9586d" stroke-width="0.6" stroke-opacity="0.5" transform="rotate(122.4)" opacity="0.98"/><use href="#p8" fill="url(#g15)" stroke="#a9586d" stroke-width="0.6" stroke-opacity="0.5" transform="rotate(167.4)" opacity="0.98"/><use href="#p8" fill="url(#g15)" stroke="#a9586d" stroke-width="0.6" stroke-opacity="0.5" transform="rotate(212.4)" opacity="0.98"/><use href="#p8" fill="url(#g15)" stroke="#a9586d" stroke-width="0.6" stroke-opacity="0.5" transform="rotate(257.4)" opacity="0.98"/><use href="#p8" fill="url(#g15)" stroke="#a9586d" stroke-width="0.6" stroke-opacity="0.5" transform="rotate(302.4)" opacity="0.98"/><use href="#p8" fill="url(#g15)" stroke="#a9586d" stroke-width="0.6" stroke-opacity="0.5" transform="rotate(347.4)" opacity="0.98"/><use href="#p10" fill="url(#g16)" stroke="#a9586d" stroke-width="0.6" stroke-opacity="0.5" transform="rotate(56.4)" opacity="0.98"/><use href="#p10" fill="url(#g16)" stroke="#a9586d" stroke-width="0.6" stroke-opacity="0.5" transform="rotate(107.8)" opacity="0.98"/><use href="#p10" fill="url(#g16)" stroke="#a9586d" stroke-width="0.6" stroke-opacity="0.5" transform="rotate(159.3)" opacity="0.98"/><use href="#p10" fill="url(#g16)" stroke="#a9586d" stroke-width="0.6" stroke-opacity="0.5" transform="rotate(210.7)" opacity="0.98"/><use href="#p10" fill="url(#g16)" stroke="#a9586d" stroke-width="0.6" stroke-opacity="0.5" transform="rotate(262.1)" opacity="0.98"/><use href="#p10" fill="url(#g16)" stroke="#a9586d" stroke-width="0.6" stroke-opacity="0.5" transform="rotate(313.5)" opacity="0.98"/><use href="#p10" fill="url(#g16)" stroke="#a9586d" stroke-width="0.6" stroke-opacity="0.5" transform="rotate(365)" opacity="0.98"/><use href="#p11" fill="url(#g15)" stroke="#a9586d" stroke-width="0.6" stroke-opacity="0.5" transform="rotate(80.4)" opacity="0.98"/><use href="#p11" fill="url(#g15)" stroke="#a9586d" stroke-width="0.6" stroke-opacity="0.5" transform="rotate(140.4)" opacity="0.98"/><use href="#p11" fill="url(#g15)" stroke="#a9586d" stroke-width="0.6" stroke-opacity="0.5" transform="rotate(200.4)" opacity="0.98"/><use href="#p11" fill="url(#g15)" stroke="#a9586d" stroke-width="0.6" stroke-opacity="0.5" transform="rotate(260.4)" opacity="0.98"/><use href="#p11" fill="url(#g15)" stroke="#a9586d" stroke-width="0.6" stroke-opacity="0.5" transform="rotate(320.4)" opacity="0.98"/><use href="#p11" fill="url(#g15)" stroke="#a9586d" stroke-width="0.6" stroke-opacity="0.5" transform="rotate(380.4)" opacity="0.98"/><use href="#p12" fill="url(#g16)" stroke="#a9586d" stroke-width="0.6" stroke-opacity="0.5" transform="rotate(104.4)" opacity="0.98"/><use href="#p12" fill="url(#g16)" stroke="#a9586d" stroke-width="0.6" stroke-opacity="0.5" transform="rotate(176.4)" opacity="0.98"/><use href="#p12" fill="url(#g16)" stroke="#a9586d" stroke-width="0.6" stroke-opacity="0.5" transform="rotate(248.4)" opacity="0.98"/><use href="#p12" fill="url(#g16)" stroke="#a9586d" stroke-width="0.6" stroke-opacity="0.5" transform="rotate(320.4)" opacity="0.98"/><use href="#p12" fill="url(#g16)" stroke="#a9586d" stroke-width="0.6" stroke-opacity="0.5" transform="rotate(392.4)" opacity="0.98"/><circle r="11" fill="none" stroke="#98364f" stroke-width="3.5" opacity="0.9"/><circle r="7" fill="none" stroke="#a44e64" stroke-width="3.5" opacity="0.9"/><circle r="3.5" fill="none" stroke="#b06679" stroke-width="3.5" opacity="0.9"/><circle r="2.2" fill="#6a0d25"/></g><linearGradient id="g18" x1="0" y1="0" x2="1" y2="0"><stop offset="0" stop-color="#484441"/><stop offset="1" stop-color="#161311"/></linearGradient></defs><rect width="700" height="700" fill="url(#g1)"/><circle cx="198.2" cy="38.8" r="112.5" fill="#ffffff" opacity="0.13"/><circle cx="294.2" cy="89.3" r="94.7" fill="#ffffff" opacity="0.07"/><circle cx="104" cy="70.9" r="47.6" fill="#ffffff" opacity="0.11"/><circle cx="315.9" cy="233.1" r="55.5" fill="#ffffff" opacity="0.07"/><circle cx="586.2" cy="178.5" r="123.1" fill="#ffffff" opacity="0.07"/><circle cx="193.1" cy="452.6" r="83.7" fill="#ffffff" opacity="0.06"/><circle cx="582.3" cy="377.8" r="98.6" fill="#ffffff" opacity="0.13"/><rect y="602" width="700" height="98" fill="#d1beb7" opacity="0.4"/><ellipse cx="350" cy="563.9" rx="231" ry="20.5" fill="#3a2f28" opacity="0.16"/><use href="#s2" transform="translate(314.8 380.3) rotate(-156.9) scale(0.545)" opacity="0.94"/><use href="#s3" transform="translate(260.3 388.2) rotate(-161.1) scale(0.760)" opacity="1.00"/><use href="#s2" transform="translate(213 347.1) rotate(-121.1) scale(0.662)" opacity="0.85"/><use href="#s3" transform="translate(165.7 337.8) rotate(-124.4) scale(0.794)" opacity="0.88"/><use href="#s2" transform="translate(131.5 295.7) rotate(-96.1) scale(0.556)" opacity="0.92"/><use href="#s3" transform="translate(163.7 266.1) rotate(-94.4) scale(0.553)" opacity="0.99"/><use href="#s2" transform="translate(153.4 220.8) rotate(-66.3) scale(0.607)" opacity="1.00"/><use href="#s3" transform="translate(189.2 202.1) rotate(-43.3) scale(0.702)" opacity="0.87"/><use href="#s2" transform="translate(259.7 180.7) rotate(-20.7) scale(0.551)" opacity="0.85"/><use href="#s3" transform="translate(331.5 166.2) rotate(8.1) scale(0.712)" opacity="0.92"/><use href="#s2" transform="translate(392.2 169.3) rotate(6.8) scale(0.674)" opacity="0.97"/><use href="#s3" transform="translate(435.7 185.3) rotate(33.5) scale(0.812)" opacity="0.94"/><use href="#s2" transform="translate(491.8 206.8) rotate(53.7) scale(0.687)" opacity="0.95"/><use href="#s3" transform="translate(533.3 232.5) rotate(57.3) scale(0.565)" opacity="0.88"/><use href="#s2" transform="translate(554.1 260.5) rotate(71.5) scale(0.575)" opacity="0.98"/><use href="#s3" transform="translate(562.4 291.1) rotate(109.2) scale(0.603)" opacity="0.91"/><use href="#s2" transform="translate(529.3 326.3) rotate(121.3) scale(0.547)" opacity="0.92"/><use href="#s3" transform="translate(485.7 345.8) rotate(131.4) scale(0.691)" opacity="1.00"/><use href="#s2" transform="translate(434.8 372.6) rotate(164.2) scale(0.658)" opacity="0.88"/><use href="#s3" transform="translate(389.4 387.3) rotate(165.9) scale(0.756)" opacity="0.86"/><ellipse cx="350" cy="293.8" rx="151.2" ry="81.5" fill="#2b4b37" opacity="0.32" filter="url(#f5)"/><use href="#s3" transform="translate(388.4 342.4) rotate(110.5) scale(0.502)" opacity="0.85"/><use href="#s3" transform="translate(237.4 199.7) rotate(26.5) scale(0.496)" opacity="0.85"/><use href="#s3" transform="translate(437.9 308.3) rotate(32.5) scale(0.455)" opacity="0.85"/><use href="#s3" transform="translate(437.5 351.7) rotate(62.5) scale(0.452)" opacity="0.85"/><use href="#s3" transform="translate(341.4 363.1) rotate(332.3) scale(0.476)" opacity="0.85"/><use href="#s3" transform="translate(275.9 329.6) rotate(11.2) scale(0.458)" opacity="0.85"/><use href="#s3" transform="translate(508.9 320.4) rotate(16.8) scale(0.404)" opacity="0.85"/><use href="#s3" transform="translate(426.4 276) rotate(132.5) scale(0.461)" opacity="0.85"/><use href="#s3" transform="translate(189.7 235.6) rotate(208.8) scale(0.449)" opacity="0.85"/><use href="#s3" transform="translate(470.7 260.6) rotate(68.6) scale(0.522)" opacity="0.85"/><use href="#s3" transform="translate(299 356.8) rotate(218.3) scale(0.473)" opacity="0.85"/><use href="#s3" transform="translate(483.7 216.6) rotate(29.2) scale(0.472)" opacity="0.85"/><use href="#s3" transform="translate(419.9 287.2) rotate(145.9) scale(0.463)" opacity="0.85"/><use href="#s3" transform="translate(336.2 366) rotate(325.9) scale(0.498)" opacity="0.85"/><use href="#s3" transform="translate(310.8 261.7) rotate(334) scale(0.377)" opacity="0.85"/><use href="#s3" transform="translate(262.4 312.5) rotate(168.6) scale(0.537)" opacity="0.85"/><use href="#s6" transform="translate(258.1 173.8) rotate(252.7) scale(0.761)"/><use href="#s17" transform="translate(456.5 201.7) rotate(151.5) scale(0.710)"/><use href="#s6" transform="translate(225.8 206.4) rotate(58.2) scale(0.644)"/><use href="#s6" transform="translate(468.4 214.5) rotate(207.4) scale(0.678)"/><use href="#s17" transform="translate(354.1 217.9) rotate(320.1) scale(0.697)"/><use href="#s6" transform="translate(251.9 223) rotate(150.6) scale(0.669)"/><use href="#s6" transform="translate(374.9 238.5) rotate(123.4) scale(0.735)"/><use href="#s13" transform="translate(453.8 257.5) rotate(297.2) scale(0.807)"/><use href="#s6" transform="translate(537.6 260.5) rotate(1.2) scale(0.709)"/><use href="#s17" transform="translate(184.7 262.5) rotate(116.6) scale(0.780)"/><use href="#s13" transform="translate(242.2 275.7) rotate(68.7) scale(0.703)"/><use href="#s13" transform="translate(382.7 277.2) rotate(149.5) scale(0.790)"/><use href="#s14" transform="translate(397.9 283) rotate(134.1) scale(0.772)"/><use href="#s13" transform="translate(299.3 296.3) rotate(31.4) scale(0.837)"/><use href="#s13" transform="translate(488.7 304) rotate(185.9) scale(0.715)"/><use href="#s17" transform="translate(279.8 310.6) rotate(170.8) scale(0.745)"/><use href="#s13" transform="translate(217.3 314.3) rotate(81.4) scale(0.771)"/><use href="#s6" transform="translate(407.7 318.3) rotate(149.6) scale(0.826)"/><use href="#s6" transform="translate(530.3 319.7) rotate(119.5) scale(0.682)"/><use href="#s13" transform="translate(314.6 340.6) rotate(114.8) scale(0.792)"/><use href="#s17" transform="translate(427.5 340.7) rotate(148) scale(0.792)"/><use href="#s6" transform="translate(447.7 349.2) rotate(2.6) scale(0.658)"/><use href="#s13" transform="translate(271.9 372.4) rotate(43.8) scale(0.613)"/><use href="#s14" transform="translate(362.3 382.1) rotate(307.9) scale(0.664)"/><use href="#s2" transform="translate(191 335.6) rotate(-133.5) scale(0.368)" opacity="0.90"/><use href="#s2" transform="translate(168.3 253) rotate(-57.7) scale(0.473)" opacity="0.90"/><use href="#s2" transform="translate(285.9 174.6) rotate(-16.9) scale(0.450)" opacity="0.90"/><use href="#s2" transform="translate(402.3 185.5) rotate(1.6) scale(0.482)" opacity="0.90"/><use href="#s2" transform="translate(533.2 274.7) rotate(70.8) scale(0.396)" opacity="0.90"/><use href="#s2" transform="translate(501.9 341.3) rotate(109.7) scale(0.515)" opacity="0.90"/><path d="M175 403.8 L192.5 560.2 Q350 580.7 507.5 560.2 L525 403.8 Z" fill="url(#g18)"/><ellipse cx="350" cy="403.8" rx="175" ry="25.6" fill="#55514e"/><ellipse cx="350" cy="403.8" rx="157.5" ry="20.9" fill="#141210"/><path d="M182.9 489.4 L517.1 489.4 L514.5 519.2 L185.5 519.2 Z" fill="#b8934a" opacity="0.95"/><path d="M350 504.3 C280 474.5 259 526.7 350 504.3 Z" fill="#c3a467" stroke="#93763b" stroke-width="1"/><path d="M350 504.3 C420 474.5 441 526.7 350 504.3 Z" fill="#c3a467" stroke="#93763b" stroke-width="1"/><circle cx="350" cy="504.3" r="12.3" fill="#a28141"/></svg>